<svg xmlns="http://www.w3.org/2000/svg" viewBox="0 0 2221 928" preserveAspectRatio="xMidYMid" width="100%" height="100%" style="shape-rendering: auto; display: block; background: transparent;" xmlns:xlink="http://www.w3.org/1999/xlink"><g><defs><g transform="scale(0.844) translate(-50,-50)" id="id-0"><path fill="var(--primary)" d="M0 0M100 0A100 100 0 0 1 0 100L0 0"></path></g><g transform="scale(0.844) translate(-50,-50)" id="id-1"><path fill="var(--accent)" d="M0 0M100 0A100 100 0 0 1 0 100L0 0"></path></g><g transform="scale(0.844) translate(-50,-50)" id="id-2"><path fill="var(--secondary)" d="M0 0M100 0A100 100 0 0 1 0 100L0 0"></path></g><g transform="scale(0.844) translate(-50,-50)" id="id-3"><path fill="var(--foreground)" d="M0 0M100 0A100 100 0 0 1 0 100L0 0"></path></g></defs><use transform="translate(86,0) rotate(90)" href="#id-3"></use><g transform="translate(172,0)"><g>
<use transform="rotate(270)" href="#id-1"></use>
<animateTransform repeatCount="indefinite" dur="10s" values="0 0;0 86;0 86;0 0;0 0" calcMode="spline" keySplines="0.5 0 0.5 1;0.5 0 0.5 1;0.5 0 0.5 1;0.5 0 0.5 1" keyTimes="0;0.25;0.5;0.75;1" type="translate" attributeName="transform"></animateTransform>
</g></g><use transform="translate(258,0) rotate(0)" href="#id-1"></use><use transform="translate(344,0) rotate(0)" href="#id-3"></use><use transform="translate(516,0) rotate(0)" href="#id-0"></use><use transform="translate(688,0) rotate(90)" href="#id-3"></use><use transform="translate(860,0) rotate(270)" href="#id-2"></use><use transform="translate(946,0) rotate(90)" href="#id-2"></use><use transform="translate(1204,0) rotate(0)" href="#id-2"></use><use transform="translate(1290,0) rotate(0)" href="#id-1"></use><use transform="translate(1462,0) rotate(180)" href="#id-3"></use><use transform="translate(1548,0) rotate(90)" href="#id-0"></use><use transform="translate(1634,0) rotate(180)" href="#id-3"></use><use transform="translate(1720,0) rotate(180)" href="#id-0"></use><use transform="translate(1978,0) rotate(270)" href="#id-3"></use><use transform="translate(2150,0) rotate(270)" href="#id-0"></use><use transform="translate(2236,0) rotate(270)" href="#id-0"></use><use transform="translate(0,86) rotate(90)" href="#id-0"></use><use transform="translate(86,86) rotate(0)" href="#id-3"></use><use transform="translate(344,86) rotate(270)" href="#id-3"></use><use transform="translate(430,86) rotate(270)" href="#id-0"></use><use transform="translate(516,86) rotate(180)" href="#id-1"></use><use transform="translate(1118,86) rotate(270)" href="#id-3"></use><use transform="translate(1204,86) rotate(180)" href="#id-1"></use><use transform="translate(1290,86) rotate(180)" href="#id-2"></use><use transform="translate(1376,86) rotate(90)" href="#id-1"></use><use transform="translate(1720,86) rotate(90)" href="#id-2"></use><use transform="translate(1978,86) rotate(180)" href="#id-2"></use><use transform="translate(2064,86) rotate(180)" href="#id-2"></use><use transform="translate(2150,86) rotate(0)" href="#id-1"></use><g transform="translate(172,172)"><g>
<use transform="rotate(180)" href="#id-0"></use>
<animateTransform repeatCount="indefinite" dur="10s" values="0 0;86 0;86 0;0 0;0 0" calcMode="spline" keySplines="0.5 0 0.5 1;0.5 0 0.5 1;0.5 0 0.5 1;0.5 0 0.5 1" keyTimes="0;0.25;0.5;0.75;1" type="translate" attributeName="transform"></animateTransform>
</g></g><g transform="translate(258,172)"><g>
<use transform="rotate(90)" href="#id-1"></use>
<animateTransform repeatCount="indefinite" dur="10s" values="0 0;86 0;86 0;0 0;0 0" calcMode="spline" keySplines="0.5 0 0.5 1;0.5 0 0.5 1;0.5 0 0.5 1;0.5 0 0.5 1" keyTimes="0;0.25;0.5;0.75;1" type="translate" attributeName="transform"></animateTransform>
</g></g><g transform="translate(344,172)"><g>
<use transform="rotate(0)" href="#id-2"></use>
<animateTransform repeatCount="indefinite" dur="10s" values="0 0;86 0;86 0;0 0;0 0" calcMode="spline" keySplines="0.5 0 0.5 1;0.5 0 0.5 1;0.5 0 0.5 1;0.5 0 0.5 1" keyTimes="0;0.25;0.5;0.75;1" type="translate" attributeName="transform"></animateTransform>
</g></g><g transform="translate(430,172)"><g>
<use transform="rotate(270)" href="#id-3"></use>
<animateTransform repeatCount="indefinite" dur="10s" values="0 0;86 0;86 0;0 0;0 0" calcMode="spline" keySplines="0.5 0 0.5 1;0.5 0 0.5 1;0.5 0 0.5 1;0.5 0 0.5 1" keyTimes="0;0.25;0.5;0.75;1" type="translate" attributeName="transform"></animateTransform>
</g></g><g transform="translate(516,172)"><g>
<use transform="rotate(180)" href="#id-1"></use>
<animateTransform repeatCount="indefinite" dur="10s" values="0 0;86 0;86 0;0 0;0 0" calcMode="spline" keySplines="0.5 0 0.5 1;0.5 0 0.5 1;0.5 0 0.5 1;0.5 0 0.5 1" keyTimes="0;0.25;0.5;0.75;1" type="translate" attributeName="transform"></animateTransform>
</g></g><g transform="translate(602,172)"><g>
<use transform="rotate(270)" href="#id-0"></use>
<animateTransform repeatCount="indefinite" dur="10s" values="0 0;86 0;86 0;0 0;0 0" calcMode="spline" keySplines="0.5 0 0.5 1;0.5 0 0.5 1;0.5 0 0.5 1;0.5 0 0.5 1" keyTimes="0;0.25;0.5;0.75;1" type="translate" attributeName="transform"></animateTransform>
</g></g><g transform="translate(688,172)"><g>
<use transform="rotate(0)" href="#id-0"></use>
<animateTransform repeatCount="indefinite" dur="10s" values="0 0;86 0;86 0;0 0;0 0" calcMode="spline" keySplines="0.5 0 0.5 1;0.5 0 0.5 1;0.5 0 0.5 1;0.5 0 0.5 1" keyTimes="0;0.25;0.5;0.75;1" type="translate" attributeName="transform"></animateTransform>
</g></g><g transform="translate(774,172)"><g>
<use transform="rotate(0)" href="#id-2"></use>
<animateTransform repeatCount="indefinite" dur="10s" values="0 0;86 0;86 0;0 0;0 0" calcMode="spline" keySplines="0.5 0 0.5 1;0.5 0 0.5 1;0.5 0 0.5 1;0.5 0 0.5 1" keyTimes="0;0.25;0.5;0.75;1" type="translate" attributeName="transform"></animateTransform>
</g></g><g transform="translate(860,172)"><g>
<use transform="rotate(270)" href="#id-3"></use>
<animateTransform repeatCount="indefinite" dur="10s" values="0 0;86 0;86 0;0 0;0 0" calcMode="spline" keySplines="0.5 0 0.5 1;0.5 0 0.5 1;0.5 0 0.5 1;0.5 0 0.5 1" keyTimes="0;0.25;0.5;0.75;1" type="translate" attributeName="transform"></animateTransform>
</g></g><g transform="translate(1032,172)"><g>
<use transform="rotate(270)" href="#id-0"></use>
<animateTransform repeatCount="indefinite" dur="10s" values="0 0;86 0;86 0;0 0;0 0" calcMode="spline" keySplines="0.5 0 0.5 1;0.5 0 0.5 1;0.5 0 0.5 1;0.5 0 0.5 1" keyTimes="0;0.25;0.5;0.75;1" type="translate" attributeName="transform"></animateTransform>
</g></g><g transform="translate(1204,172)"><g>
<use transform="rotate(0)" href="#id-2"></use>
<animateTransform repeatCount="indefinite" dur="10s" values="0 0;86 0;86 0;0 0;0 0" calcMode="spline" keySplines="0.5 0 0.5 1;0.5 0 0.5 1;0.5 0 0.5 1;0.5 0 0.5 1" keyTimes="0;0.25;0.5;0.75;1" type="translate" attributeName="transform"></animateTransform>
</g></g><g transform="translate(1290,172)"><g>
<use transform="rotate(90)" href="#id-3"></use>
<animateTransform repeatCount="indefinite" dur="10s" values="0 0;86 0;86 0;0 0;0 0" calcMode="spline" keySplines="0.5 0 0.5 1;0.5 0 0.5 1;0.5 0 0.5 1;0.5 0 0.5 1" keyTimes="0;0.25;0.5;0.75;1" type="translate" attributeName="transform"></animateTransform>
</g></g><g transform="translate(1462,172)"><g>
<use transform="rotate(90)" href="#id-0"></use>
<animateTransform repeatCount="indefinite" dur="10s" values="0 0;86 0;86 0;0 0;0 0" calcMode="spline" keySplines="0.5 0 0.5 1;0.5 0 0.5 1;0.5 0 0.5 1;0.5 0 0.5 1" keyTimes="0;0.25;0.5;0.75;1" type="translate" attributeName="transform"></animateTransform>
</g></g><g transform="translate(1634,172)"><g>
<use transform="rotate(180)" href="#id-1"></use>
<animateTransform repeatCount="indefinite" dur="10s" values="0 0;86 0;86 0;0 0;0 0" calcMode="spline" keySplines="0.5 0 0.5 1;0.5 0 0.5 1;0.5 0 0.5 1;0.5 0 0.5 1" keyTimes="0;0.25;0.5;0.75;1" type="translate" attributeName="transform"></animateTransform>
</g></g><g transform="translate(1720,172)"><g>
<use transform="rotate(180)" href="#id-0"></use>
<animateTransform repeatCount="indefinite" dur="10s" values="0 0;86 0;86 0;0 0;0 0" calcMode="spline" keySplines="0.5 0 0.5 1;0.5 0 0.5 1;0.5 0 0.5 1;0.5 0 0.5 1" keyTimes="0;0.25;0.5;0.75;1" type="translate" attributeName="transform"></animateTransform>
</g></g><g transform="translate(1806,172)"><g>
<use transform="rotate(180)" href="#id-0"></use>
<animateTransform repeatCount="indefinite" dur="10s" values="0 0;86 0;86 0;0 0;0 0" calcMode="spline" keySplines="0.5 0 0.5 1;0.5 0 0.5 1;0.5 0 0.5 1;0.5 0 0.5 1" keyTimes="0;0.25;0.5;0.75;1" type="translate" attributeName="transform"></animateTransform>
</g></g><g transform="translate(1892,172)"><g>
<use transform="rotate(270)" href="#id-0"></use>
<animateTransform repeatCount="indefinite" dur="10s" values="0 0;86 0;86 0;0 0;0 0" calcMode="spline" keySplines="0.5 0 0.5 1;0.5 0 0.5 1;0.5 0 0.5 1;0.5 0 0.5 1" keyTimes="0;0.25;0.5;0.75;1" type="translate" attributeName="transform"></animateTransform>
</g></g><g transform="translate(2064,172)"><g>
<use transform="rotate(270)" href="#id-2"></use>
<animateTransform repeatCount="indefinite" dur="10s" values="0 0;86 0;86 0;0 0;0 0" calcMode="spline" keySplines="0.5 0 0.5 1;0.5 0 0.5 1;0.5 0 0.5 1;0.5 0 0.5 1" keyTimes="0;0.25;0.5;0.75;1" type="translate" attributeName="transform"></animateTransform>
</g></g><g transform="translate(2236,172)"><g>
<use transform="rotate(180)" href="#id-0"></use>
<animateTransform repeatCount="indefinite" dur="10s" values="0 0;86 0;86 0;0 0;0 0" calcMode="spline" keySplines="0.5 0 0.5 1;0.5 0 0.5 1;0.5 0 0.5 1;0.5 0 0.5 1" keyTimes="0;0.25;0.5;0.75;1" type="translate" attributeName="transform"></animateTransform>
</g></g><use transform="translate(0,258) rotate(270)" href="#id-0"></use><use transform="translate(86,258) rotate(0)" href="#id-1"></use><g transform="translate(172,258)"><g>
<use transform="rotate(0)" href="#id-0"></use>
<animateTransform repeatCount="indefinite" dur="10s" values="0 0;0 86;0 86;0 0;0 0" calcMode="spline" keySplines="0.5 0 0.5 1;0.5 0 0.5 1;0.5 0 0.5 1;0.5 0 0.5 1" keyTimes="0;0.25;0.5;0.75;1" type="translate" attributeName="transform"></animateTransform>
</g></g><use transform="translate(258,258) rotate(90)" href="#id-2"></use><use transform="translate(344,258) rotate(180)" href="#id-1"></use><use transform="translate(516,258) rotate(90)" href="#id-3"></use><use transform="translate(774,258) rotate(270)" href="#id-1"></use><use transform="translate(860,258) rotate(270)" href="#id-2"></use><use transform="translate(1548,258) rotate(270)" href="#id-2"></use><use transform="translate(1634,258) rotate(90)" href="#id-2"></use><use transform="translate(1720,258) rotate(90)" href="#id-2"></use><use transform="translate(1806,258) rotate(90)" href="#id-2"></use><use transform="translate(1892,258) rotate(90)" href="#id-1"></use><use transform="translate(1978,258) rotate(90)" href="#id-1"></use><use transform="translate(2064,258) rotate(90)" href="#id-3"></use><use transform="translate(0,344) rotate(270)" href="#id-3"></use><use transform="translate(430,344) rotate(90)" href="#id-2"></use><use transform="translate(516,344) rotate(90)" href="#id-2"></use><use transform="translate(602,344) rotate(270)" href="#id-3"></use><use transform="translate(860,344) rotate(0)" href="#id-0"></use><use transform="translate(1032,344) rotate(90)" href="#id-3"></use><use transform="translate(1118,344) rotate(90)" href="#id-0"></use><use transform="translate(1548,344) rotate(270)" href="#id-0"></use><use transform="translate(1634,344) rotate(0)" href="#id-2"></use><use transform="translate(1720,344) rotate(270)" href="#id-0"></use><use transform="translate(1806,344) rotate(180)" href="#id-2"></use><use transform="translate(2150,344) rotate(270)" href="#id-1"></use><use transform="translate(86,430) rotate(90)" href="#id-0"></use><g transform="translate(172,430)"><g>
<use transform="rotate(0)" href="#id-3"></use>
<animateTransform repeatCount="indefinite" dur="10s" values="0 0;0 86;0 86;0 0;0 0" calcMode="spline" keySplines="0.5 0 0.5 1;0.5 0 0.5 1;0.5 0 0.5 1;0.5 0 0.5 1" keyTimes="0;0.25;0.5;0.75;1" type="translate" attributeName="transform"></animateTransform>
</g></g><use transform="translate(258,430) rotate(0)" href="#id-3"></use><use transform="translate(344,430) rotate(90)" href="#id-3"></use><use transform="translate(516,430) rotate(90)" href="#id-1"></use><use transform="translate(602,430) rotate(0)" href="#id-1"></use><use transform="translate(688,430) rotate(270)" href="#id-2"></use><use transform="translate(860,430) rotate(180)" href="#id-3"></use><use transform="translate(946,430) rotate(180)" href="#id-2"></use><use transform="translate(1290,430) rotate(0)" href="#id-1"></use><use transform="translate(1376,430) rotate(270)" href="#id-1"></use><use transform="translate(1548,430) rotate(180)" href="#id-0"></use><use transform="translate(1634,430) rotate(0)" href="#id-2"></use><use transform="translate(1720,430) rotate(270)" href="#id-2"></use><use transform="translate(1806,430) rotate(90)" href="#id-3"></use><use transform="translate(1892,430) rotate(180)" href="#id-3"></use><use transform="translate(2064,430) rotate(90)" href="#id-3"></use><use transform="translate(2236,430) rotate(0)" href="#id-3"></use><use transform="translate(86,516) rotate(90)" href="#id-0"></use><use transform="translate(258,516) rotate(0)" href="#id-0"></use><use transform="translate(430,516) rotate(180)" href="#id-0"></use><use transform="translate(774,516) rotate(270)" href="#id-3"></use><use transform="translate(946,516) rotate(180)" href="#id-0"></use><use transform="translate(1032,516) rotate(0)" href="#id-0"></use><use transform="translate(1204,516) rotate(180)" href="#id-1"></use><use transform="translate(1290,516) rotate(90)" href="#id-0"></use><use transform="translate(1376,516) rotate(270)" href="#id-3"></use><use transform="translate(1462,516) rotate(180)" href="#id-3"></use><use transform="translate(1548,516) rotate(90)" href="#id-3"></use><use transform="translate(1720,516) rotate(90)" href="#id-3"></use><use transform="translate(1892,516) rotate(180)" href="#id-0"></use><use transform="translate(2064,516) rotate(90)" href="#id-1"></use><use transform="translate(2236,516) rotate(270)" href="#id-0"></use><g transform="translate(172,602)"><g>
<use transform="rotate(0)" href="#id-2"></use>
<animateTransform repeatCount="indefinite" dur="10s" values="0 0;0 86;0 86;0 0;0 0" calcMode="spline" keySplines="0.5 0 0.5 1;0.5 0 0.5 1;0.5 0 0.5 1;0.5 0 0.5 1" keyTimes="0;0.25;0.5;0.75;1" type="translate" attributeName="transform"></animateTransform>
</g></g><use transform="translate(258,602) rotate(270)" href="#id-0"></use><use transform="translate(344,602) rotate(180)" href="#id-1"></use><use transform="translate(430,602) rotate(270)" href="#id-1"></use><use transform="translate(688,602) rotate(0)" href="#id-0"></use><use transform="translate(946,602) rotate(270)" href="#id-2"></use><use transform="translate(1032,602) rotate(90)" href="#id-2"></use><use transform="translate(1118,602) rotate(0)" href="#id-2"></use><use transform="translate(1204,602) rotate(180)" href="#id-0"></use><use transform="translate(1376,602) rotate(90)" href="#id-2"></use><use transform="translate(1548,602) rotate(180)" href="#id-1"></use><use transform="translate(1720,602) rotate(180)" href="#id-1"></use><use transform="translate(1806,602) rotate(0)" href="#id-1"></use><use transform="translate(1892,602) rotate(180)" href="#id-2"></use><use transform="translate(2064,602) rotate(270)" href="#id-2"></use><use transform="translate(2150,602) rotate(180)" href="#id-3"></use><use transform="translate(0,688) rotate(0)" href="#id-3"></use><use transform="translate(86,688) rotate(0)" href="#id-2"></use><g transform="translate(172,688)"><g>
<use transform="rotate(90)" href="#id-0"></use>
<animateTransform repeatCount="indefinite" dur="10s" values="0 0;0 86;0 86;0 0;0 0" calcMode="spline" keySplines="0.5 0 0.5 1;0.5 0 0.5 1;0.5 0 0.5 1;0.5 0 0.5 1" keyTimes="0;0.25;0.5;0.75;1" type="translate" attributeName="transform"></animateTransform>
</g></g><use transform="translate(258,688) rotate(180)" href="#id-2"></use><use transform="translate(344,688) rotate(180)" href="#id-2"></use><use transform="translate(516,688) rotate(270)" href="#id-2"></use><use transform="translate(602,688) rotate(0)" href="#id-0"></use><use transform="translate(774,688) rotate(270)" href="#id-3"></use><use transform="translate(860,688) rotate(180)" href="#id-2"></use><use transform="translate(1032,688) rotate(90)" href="#id-2"></use><use transform="translate(1118,688) rotate(90)" href="#id-3"></use><use transform="translate(1204,688) rotate(180)" href="#id-3"></use><use transform="translate(1290,688) rotate(270)" href="#id-3"></use><use transform="translate(1548,688) rotate(270)" href="#id-1"></use><use transform="translate(1634,688) rotate(180)" href="#id-3"></use><use transform="translate(1892,688) rotate(0)" href="#id-3"></use><use transform="translate(1978,688) rotate(180)" href="#id-1"></use><use transform="translate(2064,688) rotate(180)" href="#id-1"></use><use transform="translate(2236,688) rotate(270)" href="#id-2"></use><use transform="translate(0,774) rotate(270)" href="#id-0"></use><use transform="translate(86,774) rotate(0)" href="#id-2"></use><g transform="translate(172,774)"><g>
<use transform="rotate(180)" href="#id-2"></use>
<animateTransform repeatCount="indefinite" dur="10s" values="0 0;0 86;0 86;0 0;0 0" calcMode="spline" keySplines="0.5 0 0.5 1;0.5 0 0.5 1;0.5 0 0.5 1;0.5 0 0.5 1" keyTimes="0;0.25;0.5;0.75;1" type="translate" attributeName="transform"></animateTransform>
</g></g><use transform="translate(516,774) rotate(270)" href="#id-3"></use><use transform="translate(602,774) rotate(90)" href="#id-2"></use><use transform="translate(860,774) rotate(180)" href="#id-1"></use><use transform="translate(946,774) rotate(270)" href="#id-1"></use><use transform="translate(1290,774) rotate(90)" href="#id-0"></use><use transform="translate(1376,774) rotate(0)" href="#id-2"></use><use transform="translate(1634,774) rotate(270)" href="#id-3"></use><use transform="translate(1806,774) rotate(0)" href="#id-2"></use><use transform="translate(1978,774) rotate(0)" href="#id-0"></use><use transform="translate(2064,774) rotate(90)" href="#id-1"></use><use transform="translate(2236,774) rotate(90)" href="#id-2"></use><use transform="translate(0,860) rotate(90)" href="#id-0"></use><g transform="translate(172,860)"><g>
<use transform="rotate(180)" href="#id-2"></use>
<animateTransform repeatCount="indefinite" dur="10s" values="0 0;0 86;0 86;0 0;0 0" calcMode="spline" keySplines="0.5 0 0.5 1;0.5 0 0.5 1;0.5 0 0.5 1;0.5 0 0.5 1" keyTimes="0;0.25;0.5;0.75;1" type="translate" attributeName="transform"></animateTransform>
</g></g><use transform="translate(344,860) rotate(270)" href="#id-3"></use><use transform="translate(602,860) rotate(0)" href="#id-0"></use><use transform="translate(688,860) rotate(0)" href="#id-2"></use><use transform="translate(774,860) rotate(180)" href="#id-3"></use><use transform="translate(946,860) rotate(180)" href="#id-1"></use><use transform="translate(1032,860) rotate(0)" href="#id-1"></use><use transform="translate(1118,860) rotate(180)" href="#id-3"></use><use transform="translate(1204,860) rotate(90)" href="#id-1"></use><use transform="translate(1290,860) rotate(180)" href="#id-1"></use><use transform="translate(1462,860) rotate(180)" href="#id-3"></use><use transform="translate(1720,860) rotate(90)" href="#id-1"></use><use transform="translate(1806,860) rotate(0)" href="#id-3"></use><use transform="translate(2150,860) rotate(270)" href="#id-2"></use><use transform="translate(2236,860) rotate(90)" href="#id-2"></use><use transform="translate(86,946) rotate(180)" href="#id-0"></use><g transform="translate(172,946)"><g>
<use transform="rotate(180)" href="#id-2"></use>
<animateTransform repeatCount="indefinite" dur="10s" values="0 0;0 86;0 86;0 0;0 0" calcMode="spline" keySplines="0.5 0 0.5 1;0.5 0 0.5 1;0.5 0 0.5 1;0.5 0 0.5 1" keyTimes="0;0.25;0.5;0.75;1" type="translate" attributeName="transform"></animateTransform>
</g></g><use transform="translate(430,946) rotate(270)" href="#id-2"></use><use transform="translate(516,946) rotate(180)" href="#id-3"></use><use transform="translate(602,946) rotate(0)" href="#id-0"></use><use transform="translate(688,946) rotate(0)" href="#id-3"></use><use transform="translate(860,946) rotate(0)" href="#id-3"></use><use transform="translate(946,946) rotate(0)" href="#id-2"></use><use transform="translate(1204,946) rotate(90)" href="#id-3"></use><use transform="translate(1290,946) rotate(180)" href="#id-3"></use><use transform="translate(1548,946) rotate(180)" href="#id-0"></use><use transform="translate(1720,946) rotate(90)" href="#id-1"></use><use transform="translate(1892,946) rotate(180)" href="#id-3"></use><use transform="translate(1978,946) rotate(90)" href="#id-0"></use><use transform="translate(2064,946) rotate(270)" href="#id-1"></use><g></g></g><!-- [ldio] generated by https://loading.io --></svg>