<svg xmlns="http://www.w3.org/2000/svg" viewBox="0 0 2221 928" preserveAspectRatio="xMidYMid" width="100%" height="100%" style="shape-rendering: auto; display: block; background: rgba(255, 178, 91, 0);" xmlns:xlink="http://www.w3.org/1999/xlink"><g><g transform="translate(-100 403.4949860050929) rotate(0)">
  <animateTransform begin="-42.004271852770074s" repeatCount="indefinite" dur="50s" values="-100 403.4949860050929;2321 1525.98136093506" keyTimes="0;1" type="translate" attributeName="transform"></animateTransform>
  <animateTransform additive="sum" repeatCount="indefinite" dur="50s" values="0 50 50;244.87749599633958 50 50" begin="-42.004271852770074s" keyTimes="0;1" type="rotate" attributeName="transform"></animateTransform>
  <path transform="scale(0.5423511652373447)" fill="var(--muted-foreground)" d="M87.422,66.495c-2.009-0.544-4.049-0.97-6.107-1.283c10.617-11.116,15.747-27.37,13.129-42.549 c-5.236,1.77-10.223,4.252-14.824,7.313c-4.13,2.747-7.948,5.961-11.374,9.55C67.425,24.863,61.344,10.451,50.991,0 c-4.015,5.451-7.281,11.444-9.753,17.744c-3.579,9.122-5.501,18.893-5.669,28.691c-4.79-7.979-11.256-14.955-18.858-20.322 c-4.514-3.187-9.431-5.806-14.616-7.72c-3.361,16.717,2.731,35.015,15.445,46.379c0.369,0.33,0.745,0.654,1.126,0.972 c-2.359,0.411-4.689,0.983-6.969,1.714C7.582,68.775,3.634,70.61,0,72.945c8.85,9.963,23.134,14.771,36.208,12.186 c3.524-0.697,7.002-1.919,9.887-4.057c0.073-0.054,0.145-0.111,0.218-0.167c-0.987,5.662-2.714,11.136-5.104,16.221l7.509,2.806 c1.698-5.797,2.631-11.748,2.814-17.669c0.107,0.076,0.215,0.152,0.324,0.225c3.142,2.114,6.863,3.232,10.607,3.796 C76.352,88.379,91.161,82.628,100,71.71C96.061,69.427,91.816,67.684,87.422,66.495z"></path>
</g><g transform="translate(-100 291.73767330246443) rotate(0)">
  <animateTransform begin="-5.847399439813502s" repeatCount="indefinite" dur="50s" values="-100 291.73767330246443;2321 1302.6678266198912" keyTimes="0;1" type="translate" attributeName="transform"></animateTransform>
  <animateTransform additive="sum" repeatCount="indefinite" dur="50s" values="0 50 50;925.7181027984202 50 50" begin="-5.847399439813502s" keyTimes="0;1" type="rotate" attributeName="transform"></animateTransform>
  <path transform="scale(0.6267063943354403)" fill="var(--secondary)" d="M87.422,66.495c-2.009-0.544-4.049-0.97-6.107-1.283c10.617-11.116,15.747-27.37,13.129-42.549 c-5.236,1.77-10.223,4.252-14.824,7.313c-4.13,2.747-7.948,5.961-11.374,9.55C67.425,24.863,61.344,10.451,50.991,0 c-4.015,5.451-7.281,11.444-9.753,17.744c-3.579,9.122-5.501,18.893-5.669,28.691c-4.79-7.979-11.256-14.955-18.858-20.322 c-4.514-3.187-9.431-5.806-14.616-7.72c-3.361,16.717,2.731,35.015,15.445,46.379c0.369,0.33,0.745,0.654,1.126,0.972 c-2.359,0.411-4.689,0.983-6.969,1.714C7.582,68.775,3.634,70.61,0,72.945c8.85,9.963,23.134,14.771,36.208,12.186 c3.524-0.697,7.002-1.919,9.887-4.057c0.073-0.054,0.145-0.111,0.218-0.167c-0.987,5.662-2.714,11.136-5.104,16.221l7.509,2.806 c1.698-5.797,2.631-11.748,2.814-17.669c0.107,0.076,0.215,0.152,0.324,0.225c3.142,2.114,6.863,3.232,10.607,3.796 C76.352,88.379,91.161,82.628,100,71.71C96.061,69.427,91.816,67.684,87.422,66.495z"></path>
</g><g transform="translate(-100 392.6618652944175) rotate(0)">
  <animateTransform begin="-4.182712368038905s" repeatCount="indefinite" dur="50s" values="-100 392.6618652944175;1950.1012864938125 1028" keyTimes="0;1" type="translate" attributeName="transform"></animateTransform>
  <animateTransform additive="sum" repeatCount="indefinite" dur="50s" values="0 50 50;598.2972897534207 50 50" begin="-4.182712368038905s" keyTimes="0;1" type="rotate" attributeName="transform"></animateTransform>
  <path transform="scale(0.6184371751455036)" fill="var(--primary)" d="M87.422,66.495c-2.009-0.544-4.049-0.97-6.107-1.283c10.617-11.116,15.747-27.37,13.129-42.549 c-5.236,1.77-10.223,4.252-14.824,7.313c-4.13,2.747-7.948,5.961-11.374,9.55C67.425,24.863,61.344,10.451,50.991,0 c-4.015,5.451-7.281,11.444-9.753,17.744c-3.579,9.122-5.501,18.893-5.669,28.691c-4.79-7.979-11.256-14.955-18.858-20.322 c-4.514-3.187-9.431-5.806-14.616-7.72c-3.361,16.717,2.731,35.015,15.445,46.379c0.369,0.33,0.745,0.654,1.126,0.972 c-2.359,0.411-4.689,0.983-6.969,1.714C7.582,68.775,3.634,70.61,0,72.945c8.85,9.963,23.134,14.771,36.208,12.186 c3.524-0.697,7.002-1.919,9.887-4.057c0.073-0.054,0.145-0.111,0.218-0.167c-0.987,5.662-2.714,11.136-5.104,16.221l7.509,2.806 c1.698-5.797,2.631-11.748,2.814-17.669c0.107,0.076,0.215,0.152,0.324,0.225c3.142,2.114,6.863,3.232,10.607,3.796 C76.352,88.379,91.161,82.628,100,71.71C96.061,69.427,91.816,67.684,87.422,66.495z"></path>
</g><g transform="translate(-100 10.1503040877204) rotate(0)">
  <animateTransform begin="-35.975539184663s" repeatCount="indefinite" dur="50s" values="-100 10.1503040877204;1120.4268290027492 1028" keyTimes="0;1" type="translate" attributeName="transform"></animateTransform>
  <animateTransform additive="sum" repeatCount="indefinite" dur="50s" values="0 50 50;855.1667433070202 50 50" begin="-35.975539184663s" keyTimes="0;1" type="rotate" attributeName="transform"></animateTransform>
  <path transform="scale(0.8833153983713644)" fill="var(--primary)" d="M87.422,66.495c-2.009-0.544-4.049-0.97-6.107-1.283c10.617-11.116,15.747-27.37,13.129-42.549 c-5.236,1.77-10.223,4.252-14.824,7.313c-4.13,2.747-7.948,5.961-11.374,9.55C67.425,24.863,61.344,10.451,50.991,0 c-4.015,5.451-7.281,11.444-9.753,17.744c-3.579,9.122-5.501,18.893-5.669,28.691c-4.79-7.979-11.256-14.955-18.858-20.322 c-4.514-3.187-9.431-5.806-14.616-7.72c-3.361,16.717,2.731,35.015,15.445,46.379c0.369,0.33,0.745,0.654,1.126,0.972 c-2.359,0.411-4.689,0.983-6.969,1.714C7.582,68.775,3.634,70.61,0,72.945c8.85,9.963,23.134,14.771,36.208,12.186 c3.524-0.697,7.002-1.919,9.887-4.057c0.073-0.054,0.145-0.111,0.218-0.167c-0.987,5.662-2.714,11.136-5.104,16.221l7.509,2.806 c1.698-5.797,2.631-11.748,2.814-17.669c0.107,0.076,0.215,0.152,0.324,0.225c3.142,2.114,6.863,3.232,10.607,3.796 C76.352,88.379,91.161,82.628,100,71.71C96.061,69.427,91.816,67.684,87.422,66.495z"></path>
</g><g transform="translate(769.0089837528253 -100) rotate(0)">
  <animateTransform begin="-15.189236034285388s" repeatCount="indefinite" dur="50s" values="769.0089837528253 -100;2321 574.0774066902416" keyTimes="0;1" type="translate" attributeName="transform"></animateTransform>
  <animateTransform additive="sum" repeatCount="indefinite" dur="50s" values="0 50 50;433.9697049378885 50 50" begin="-15.189236034285388s" keyTimes="0;1" type="rotate" attributeName="transform"></animateTransform>
  <path transform="scale(0.9074116174432334)" fill="var(--secondary)" d="M87.422,66.495c-2.009-0.544-4.049-0.97-6.107-1.283c10.617-11.116,15.747-27.37,13.129-42.549 c-5.236,1.77-10.223,4.252-14.824,7.313c-4.13,2.747-7.948,5.961-11.374,9.55C67.425,24.863,61.344,10.451,50.991,0 c-4.015,5.451-7.281,11.444-9.753,17.744c-3.579,9.122-5.501,18.893-5.669,28.691c-4.79-7.979-11.256-14.955-18.858-20.322 c-4.514-3.187-9.431-5.806-14.616-7.72c-3.361,16.717,2.731,35.015,15.445,46.379c0.369,0.33,0.745,0.654,1.126,0.972 c-2.359,0.411-4.689,0.983-6.969,1.714C7.582,68.775,3.634,70.61,0,72.945c8.85,9.963,23.134,14.771,36.208,12.186 c3.524-0.697,7.002-1.919,9.887-4.057c0.073-0.054,0.145-0.111,0.218-0.167c-0.987,5.662-2.714,11.136-5.104,16.221l7.509,2.806 c1.698-5.797,2.631-11.748,2.814-17.669c0.107,0.076,0.215,0.152,0.324,0.225c3.142,2.114,6.863,3.232,10.607,3.796 C76.352,88.379,91.161,82.628,100,71.71C96.061,69.427,91.816,67.684,87.422,66.495z"></path>
</g><g transform="translate(1043.1085004652653 -100) rotate(0)">
  <animateTransform begin="-37.2546560347556s" repeatCount="indefinite" dur="50s" values="1043.1085004652653 -100;2321 1035.4732528686122" keyTimes="0;1" type="translate" attributeName="transform"></animateTransform>
  <animateTransform additive="sum" repeatCount="indefinite" dur="50s" values="0 50 50;185.85480564085904 50 50" begin="-37.2546560347556s" keyTimes="0;1" type="rotate" attributeName="transform"></animateTransform>
  <path transform="scale(1.110121671715468)" fill="var(--primary)" d="M87.422,66.495c-2.009-0.544-4.049-0.97-6.107-1.283c10.617-11.116,15.747-27.37,13.129-42.549 c-5.236,1.77-10.223,4.252-14.824,7.313c-4.13,2.747-7.948,5.961-11.374,9.55C67.425,24.863,61.344,10.451,50.991,0 c-4.015,5.451-7.281,11.444-9.753,17.744c-3.579,9.122-5.501,18.893-5.669,28.691c-4.79-7.979-11.256-14.955-18.858-20.322 c-4.514-3.187-9.431-5.806-14.616-7.72c-3.361,16.717,2.731,35.015,15.445,46.379c0.369,0.33,0.745,0.654,1.126,0.972 c-2.359,0.411-4.689,0.983-6.969,1.714C7.582,68.775,3.634,70.61,0,72.945c8.85,9.963,23.134,14.771,36.208,12.186 c3.524-0.697,7.002-1.919,9.887-4.057c0.073-0.054,0.145-0.111,0.218-0.167c-0.987,5.662-2.714,11.136-5.104,16.221l7.509,2.806 c1.698-5.797,2.631-11.748,2.814-17.669c0.107,0.076,0.215,0.152,0.324,0.225c3.142,2.114,6.863,3.232,10.607,3.796 C76.352,88.379,91.161,82.628,100,71.71C96.061,69.427,91.816,67.684,87.422,66.495z"></path>
</g><g transform="translate(-100 370.2261411001954) rotate(0)">
  <animateTransform begin="-12.282034934286672s" repeatCount="indefinite" dur="50s" values="-100 370.2261411001954;2321 1305.906423198" keyTimes="0;1" type="translate" attributeName="transform"></animateTransform>
  <animateTransform additive="sum" repeatCount="indefinite" dur="50s" values="0 50 50;615.64524022894 50 50" begin="-12.282034934286672s" keyTimes="0;1" type="rotate" attributeName="transform"></animateTransform>
  <path transform="scale(1.0475431643495516)" fill="var(--primary)" d="M87.422,66.495c-2.009-0.544-4.049-0.97-6.107-1.283c10.617-11.116,15.747-27.37,13.129-42.549 c-5.236,1.77-10.223,4.252-14.824,7.313c-4.13,2.747-7.948,5.961-11.374,9.55C67.425,24.863,61.344,10.451,50.991,0 c-4.015,5.451-7.281,11.444-9.753,17.744c-3.579,9.122-5.501,18.893-5.669,28.691c-4.79-7.979-11.256-14.955-18.858-20.322 c-4.514-3.187-9.431-5.806-14.616-7.72c-3.361,16.717,2.731,35.015,15.445,46.379c0.369,0.33,0.745,0.654,1.126,0.972 c-2.359,0.411-4.689,0.983-6.969,1.714C7.582,68.775,3.634,70.61,0,72.945c8.85,9.963,23.134,14.771,36.208,12.186 c3.524-0.697,7.002-1.919,9.887-4.057c0.073-0.054,0.145-0.111,0.218-0.167c-0.987,5.662-2.714,11.136-5.104,16.221l7.509,2.806 c1.698-5.797,2.631-11.748,2.814-17.669c0.107,0.076,0.215,0.152,0.324,0.225c3.142,2.114,6.863,3.232,10.607,3.796 C76.352,88.379,91.161,82.628,100,71.71C96.061,69.427,91.816,67.684,87.422,66.495z"></path>
</g><g transform="translate(-100 389.5021812167582) rotate(0)">
  <animateTransform begin="-21.501274695163357s" repeatCount="indefinite" dur="50s" values="-100 389.5021812167582;1324.0095469357116 1028" keyTimes="0;1" type="translate" attributeName="transform"></animateTransform>
  <animateTransform additive="sum" repeatCount="indefinite" dur="50s" values="0 50 50;27.206121494103712 50 50" begin="-21.501274695163357s" keyTimes="0;1" type="rotate" attributeName="transform"></animateTransform>
  <path transform="scale(1.076273507566187)" fill="var(--primary)" d="M87.422,66.495c-2.009-0.544-4.049-0.97-6.107-1.283c10.617-11.116,15.747-27.37,13.129-42.549 c-5.236,1.77-10.223,4.252-14.824,7.313c-4.13,2.747-7.948,5.961-11.374,9.55C67.425,24.863,61.344,10.451,50.991,0 c-4.015,5.451-7.281,11.444-9.753,17.744c-3.579,9.122-5.501,18.893-5.669,28.691c-4.79-7.979-11.256-14.955-18.858-20.322 c-4.514-3.187-9.431-5.806-14.616-7.72c-3.361,16.717,2.731,35.015,15.445,46.379c0.369,0.33,0.745,0.654,1.126,0.972 c-2.359,0.411-4.689,0.983-6.969,1.714C7.582,68.775,3.634,70.61,0,72.945c8.85,9.963,23.134,14.771,36.208,12.186 c3.524-0.697,7.002-1.919,9.887-4.057c0.073-0.054,0.145-0.111,0.218-0.167c-0.987,5.662-2.714,11.136-5.104,16.221l7.509,2.806 c1.698-5.797,2.631-11.748,2.814-17.669c0.107,0.076,0.215,0.152,0.324,0.225c3.142,2.114,6.863,3.232,10.607,3.796 C76.352,88.379,91.161,82.628,100,71.71C96.061,69.427,91.816,67.684,87.422,66.495z"></path>
</g><g transform="translate(-100 141.26972979054977) rotate(0)">
  <animateTransform begin="-32.112037848016705s" repeatCount="indefinite" dur="50s" values="-100 141.26972979054977;2823.6119055082095 1028" keyTimes="0;1" type="translate" attributeName="transform"></animateTransform>
  <animateTransform additive="sum" repeatCount="indefinite" dur="50s" values="0 50 50;61.41618344439244 50 50" begin="-32.112037848016705s" keyTimes="0;1" type="rotate" attributeName="transform"></animateTransform>
  <path transform="scale(0.7015542270833056)" fill="var(--muted-foreground)" d="M87.422,66.495c-2.009-0.544-4.049-0.97-6.107-1.283c10.617-11.116,15.747-27.37,13.129-42.549 c-5.236,1.77-10.223,4.252-14.824,7.313c-4.13,2.747-7.948,5.961-11.374,9.55C67.425,24.863,61.344,10.451,50.991,0 c-4.015,5.451-7.281,11.444-9.753,17.744c-3.579,9.122-5.501,18.893-5.669,28.691c-4.79-7.979-11.256-14.955-18.858-20.322 c-4.514-3.187-9.431-5.806-14.616-7.72c-3.361,16.717,2.731,35.015,15.445,46.379c0.369,0.33,0.745,0.654,1.126,0.972 c-2.359,0.411-4.689,0.983-6.969,1.714C7.582,68.775,3.634,70.61,0,72.945c8.85,9.963,23.134,14.771,36.208,12.186 c3.524-0.697,7.002-1.919,9.887-4.057c0.073-0.054,0.145-0.111,0.218-0.167c-0.987,5.662-2.714,11.136-5.104,16.221l7.509,2.806 c1.698-5.797,2.631-11.748,2.814-17.669c0.107,0.076,0.215,0.152,0.324,0.225c3.142,2.114,6.863,3.232,10.607,3.796 C76.352,88.379,91.161,82.628,100,71.71C96.061,69.427,91.816,67.684,87.422,66.495z"></path>
</g><g transform="translate(1405.5221096412681 -100) rotate(0)">
  <animateTransform begin="-0.7744793929571769s" repeatCount="indefinite" dur="50s" values="1405.5221096412681 -100;4403.0296225053635 1028" keyTimes="0;1" type="translate" attributeName="transform"></animateTransform>
  <animateTransform additive="sum" repeatCount="indefinite" dur="50s" values="0 50 50;179.22199204850696 50 50" begin="-0.7744793929571769s" keyTimes="0;1" type="rotate" attributeName="transform"></animateTransform>
  <path transform="scale(0.8693379446829541)" fill="var(--muted-foreground)" d="M87.422,66.495c-2.009-0.544-4.049-0.97-6.107-1.283c10.617-11.116,15.747-27.37,13.129-42.549 c-5.236,1.77-10.223,4.252-14.824,7.313c-4.13,2.747-7.948,5.961-11.374,9.55C67.425,24.863,61.344,10.451,50.991,0 c-4.015,5.451-7.281,11.444-9.753,17.744c-3.579,9.122-5.501,18.893-5.669,28.691c-4.79-7.979-11.256-14.955-18.858-20.322 c-4.514-3.187-9.431-5.806-14.616-7.72c-3.361,16.717,2.731,35.015,15.445,46.379c0.369,0.33,0.745,0.654,1.126,0.972 c-2.359,0.411-4.689,0.983-6.969,1.714C7.582,68.775,3.634,70.61,0,72.945c8.85,9.963,23.134,14.771,36.208,12.186 c3.524-0.697,7.002-1.919,9.887-4.057c0.073-0.054,0.145-0.111,0.218-0.167c-0.987,5.662-2.714,11.136-5.104,16.221l7.509,2.806 c1.698-5.797,2.631-11.748,2.814-17.669c0.107,0.076,0.215,0.152,0.324,0.225c3.142,2.114,6.863,3.232,10.607,3.796 C76.352,88.379,91.161,82.628,100,71.71C96.061,69.427,91.816,67.684,87.422,66.495z"></path>
</g><g transform="translate(-100 447.3222105908697) rotate(0)">
  <animateTransform begin="-11.387597719678585s" repeatCount="indefinite" dur="50s" values="-100 447.3222105908697;1860.9704559250606 1028" keyTimes="0;1" type="translate" attributeName="transform"></animateTransform>
  <animateTransform additive="sum" repeatCount="indefinite" dur="50s" values="0 50 50;74.05764700727266 50 50" begin="-11.387597719678585s" keyTimes="0;1" type="rotate" attributeName="transform"></animateTransform>
  <path transform="scale(0.9615935351978134)" fill="var(--secondary)" d="M87.422,66.495c-2.009-0.544-4.049-0.97-6.107-1.283c10.617-11.116,15.747-27.37,13.129-42.549 c-5.236,1.77-10.223,4.252-14.824,7.313c-4.13,2.747-7.948,5.961-11.374,9.55C67.425,24.863,61.344,10.451,50.991,0 c-4.015,5.451-7.281,11.444-9.753,17.744c-3.579,9.122-5.501,18.893-5.669,28.691c-4.79-7.979-11.256-14.955-18.858-20.322 c-4.514-3.187-9.431-5.806-14.616-7.72c-3.361,16.717,2.731,35.015,15.445,46.379c0.369,0.33,0.745,0.654,1.126,0.972 c-2.359,0.411-4.689,0.983-6.969,1.714C7.582,68.775,3.634,70.61,0,72.945c8.85,9.963,23.134,14.771,36.208,12.186 c3.524-0.697,7.002-1.919,9.887-4.057c0.073-0.054,0.145-0.111,0.218-0.167c-0.987,5.662-2.714,11.136-5.104,16.221l7.509,2.806 c1.698-5.797,2.631-11.748,2.814-17.669c0.107,0.076,0.215,0.152,0.324,0.225c3.142,2.114,6.863,3.232,10.607,3.796 C76.352,88.379,91.161,82.628,100,71.71C96.061,69.427,91.816,67.684,87.422,66.495z"></path>
</g><g transform="translate(-100 17.08919300104489) rotate(0)">
  <animateTransform begin="-44.311812209663586s" repeatCount="indefinite" dur="50s" values="-100 17.08919300104489;2321 555.9756116565601" keyTimes="0;1" type="translate" attributeName="transform"></animateTransform>
  <animateTransform additive="sum" repeatCount="indefinite" dur="50s" values="0 50 50;828.5472980088716 50 50" begin="-44.311812209663586s" keyTimes="0;1" type="rotate" attributeName="transform"></animateTransform>
  <path transform="scale(1.1145963742911122)" fill="var(--muted-foreground)" d="M87.422,66.495c-2.009-0.544-4.049-0.97-6.107-1.283c10.617-11.116,15.747-27.37,13.129-42.549 c-5.236,1.77-10.223,4.252-14.824,7.313c-4.13,2.747-7.948,5.961-11.374,9.55C67.425,24.863,61.344,10.451,50.991,0 c-4.015,5.451-7.281,11.444-9.753,17.744c-3.579,9.122-5.501,18.893-5.669,28.691c-4.79-7.979-11.256-14.955-18.858-20.322 c-4.514-3.187-9.431-5.806-14.616-7.72c-3.361,16.717,2.731,35.015,15.445,46.379c0.369,0.33,0.745,0.654,1.126,0.972 c-2.359,0.411-4.689,0.983-6.969,1.714C7.582,68.775,3.634,70.61,0,72.945c8.85,9.963,23.134,14.771,36.208,12.186 c3.524-0.697,7.002-1.919,9.887-4.057c0.073-0.054,0.145-0.111,0.218-0.167c-0.987,5.662-2.714,11.136-5.104,16.221l7.509,2.806 c1.698-5.797,2.631-11.748,2.814-17.669c0.107,0.076,0.215,0.152,0.324,0.225c3.142,2.114,6.863,3.232,10.607,3.796 C76.352,88.379,91.161,82.628,100,71.71C96.061,69.427,91.816,67.684,87.422,66.495z"></path>
</g><g transform="translate(2129.2666263402502 -100) rotate(0)">
  <animateTransform begin="-47.65757222967277s" repeatCount="indefinite" dur="50s" values="2129.2666263402502 -100;3903.505089506765 1028" keyTimes="0;1" type="translate" attributeName="transform"></animateTransform>
  <animateTransform additive="sum" repeatCount="indefinite" dur="50s" values="0 50 50;554.8658367836783 50 50" begin="-47.65757222967277s" keyTimes="0;1" type="rotate" attributeName="transform"></animateTransform>
  <path transform="scale(0.7104958517412984)" fill="var(--accent)" d="M87.422,66.495c-2.009-0.544-4.049-0.97-6.107-1.283c10.617-11.116,15.747-27.37,13.129-42.549 c-5.236,1.77-10.223,4.252-14.824,7.313c-4.13,2.747-7.948,5.961-11.374,9.55C67.425,24.863,61.344,10.451,50.991,0 c-4.015,5.451-7.281,11.444-9.753,17.744c-3.579,9.122-5.501,18.893-5.669,28.691c-4.79-7.979-11.256-14.955-18.858-20.322 c-4.514-3.187-9.431-5.806-14.616-7.72c-3.361,16.717,2.731,35.015,15.445,46.379c0.369,0.33,0.745,0.654,1.126,0.972 c-2.359,0.411-4.689,0.983-6.969,1.714C7.582,68.775,3.634,70.61,0,72.945c8.85,9.963,23.134,14.771,36.208,12.186 c3.524-0.697,7.002-1.919,9.887-4.057c0.073-0.054,0.145-0.111,0.218-0.167c-0.987,5.662-2.714,11.136-5.104,16.221l7.509,2.806 c1.698-5.797,2.631-11.748,2.814-17.669c0.107,0.076,0.215,0.152,0.324,0.225c3.142,2.114,6.863,3.232,10.607,3.796 C76.352,88.379,91.161,82.628,100,71.71C96.061,69.427,91.816,67.684,87.422,66.495z"></path>
</g><g transform="translate(-100 375.71132389195293) rotate(0)">
  <animateTransform begin="-43.55186900801053s" repeatCount="indefinite" dur="50s" values="-100 375.71132389195293;1835.3058176932918 1028" keyTimes="0;1" type="translate" attributeName="transform"></animateTransform>
  <animateTransform additive="sum" repeatCount="indefinite" dur="50s" values="0 50 50;1027.2636497338917 50 50" begin="-43.55186900801053s" keyTimes="0;1" type="rotate" attributeName="transform"></animateTransform>
  <path transform="scale(0.5275961762587449)" fill="var(--secondary)" d="M87.422,66.495c-2.009-0.544-4.049-0.97-6.107-1.283c10.617-11.116,15.747-27.37,13.129-42.549 c-5.236,1.77-10.223,4.252-14.824,7.313c-4.13,2.747-7.948,5.961-11.374,9.55C67.425,24.863,61.344,10.451,50.991,0 c-4.015,5.451-7.281,11.444-9.753,17.744c-3.579,9.122-5.501,18.893-5.669,28.691c-4.79-7.979-11.256-14.955-18.858-20.322 c-4.514-3.187-9.431-5.806-14.616-7.72c-3.361,16.717,2.731,35.015,15.445,46.379c0.369,0.33,0.745,0.654,1.126,0.972 c-2.359,0.411-4.689,0.983-6.969,1.714C7.582,68.775,3.634,70.61,0,72.945c8.85,9.963,23.134,14.771,36.208,12.186 c3.524-0.697,7.002-1.919,9.887-4.057c0.073-0.054,0.145-0.111,0.218-0.167c-0.987,5.662-2.714,11.136-5.104,16.221l7.509,2.806 c1.698-5.797,2.631-11.748,2.814-17.669c0.107,0.076,0.215,0.152,0.324,0.225c3.142,2.114,6.863,3.232,10.607,3.796 C76.352,88.379,91.161,82.628,100,71.71C96.061,69.427,91.816,67.684,87.422,66.495z"></path>
</g><g transform="translate(589.6504314142314 -100) rotate(0)">
  <animateTransform begin="-41.58169217964681s" repeatCount="indefinite" dur="50s" values="589.6504314142314 -100;2321 1058.4593252207503" keyTimes="0;1" type="translate" attributeName="transform"></animateTransform>
  <animateTransform additive="sum" repeatCount="indefinite" dur="50s" values="0 50 50;611.2272557039311 50 50" begin="-41.58169217964681s" keyTimes="0;1" type="rotate" attributeName="transform"></animateTransform>
  <path transform="scale(0.7049118491717193)" fill="var(--primary)" d="M87.422,66.495c-2.009-0.544-4.049-0.97-6.107-1.283c10.617-11.116,15.747-27.37,13.129-42.549 c-5.236,1.77-10.223,4.252-14.824,7.313c-4.13,2.747-7.948,5.961-11.374,9.55C67.425,24.863,61.344,10.451,50.991,0 c-4.015,5.451-7.281,11.444-9.753,17.744c-3.579,9.122-5.501,18.893-5.669,28.691c-4.79-7.979-11.256-14.955-18.858-20.322 c-4.514-3.187-9.431-5.806-14.616-7.72c-3.361,16.717,2.731,35.015,15.445,46.379c0.369,0.33,0.745,0.654,1.126,0.972 c-2.359,0.411-4.689,0.983-6.969,1.714C7.582,68.775,3.634,70.61,0,72.945c8.85,9.963,23.134,14.771,36.208,12.186 c3.524-0.697,7.002-1.919,9.887-4.057c0.073-0.054,0.145-0.111,0.218-0.167c-0.987,5.662-2.714,11.136-5.104,16.221l7.509,2.806 c1.698-5.797,2.631-11.748,2.814-17.669c0.107,0.076,0.215,0.152,0.324,0.225c3.142,2.114,6.863,3.232,10.607,3.796 C76.352,88.379,91.161,82.628,100,71.71C96.061,69.427,91.816,67.684,87.422,66.495z"></path>
</g><g transform="translate(-100 5.162428769328589) rotate(0)">
  <animateTransform begin="-9.12245650416855s" repeatCount="indefinite" dur="50s" values="-100 5.162428769328589;3051.4243589053685 1028" keyTimes="0;1" type="translate" attributeName="transform"></animateTransform>
  <animateTransform additive="sum" repeatCount="indefinite" dur="50s" values="0 50 50;335.77396604780745 50 50" begin="-9.12245650416855s" keyTimes="0;1" type="rotate" attributeName="transform"></animateTransform>
  <path transform="scale(0.6925639005898336)" fill="var(--accent)" d="M87.422,66.495c-2.009-0.544-4.049-0.97-6.107-1.283c10.617-11.116,15.747-27.37,13.129-42.549 c-5.236,1.77-10.223,4.252-14.824,7.313c-4.13,2.747-7.948,5.961-11.374,9.55C67.425,24.863,61.344,10.451,50.991,0 c-4.015,5.451-7.281,11.444-9.753,17.744c-3.579,9.122-5.501,18.893-5.669,28.691c-4.79-7.979-11.256-14.955-18.858-20.322 c-4.514-3.187-9.431-5.806-14.616-7.72c-3.361,16.717,2.731,35.015,15.445,46.379c0.369,0.33,0.745,0.654,1.126,0.972 c-2.359,0.411-4.689,0.983-6.969,1.714C7.582,68.775,3.634,70.61,0,72.945c8.85,9.963,23.134,14.771,36.208,12.186 c3.524-0.697,7.002-1.919,9.887-4.057c0.073-0.054,0.145-0.111,0.218-0.167c-0.987,5.662-2.714,11.136-5.104,16.221l7.509,2.806 c1.698-5.797,2.631-11.748,2.814-17.669c0.107,0.076,0.215,0.152,0.324,0.225c3.142,2.114,6.863,3.232,10.607,3.796 C76.352,88.379,91.161,82.628,100,71.71C96.061,69.427,91.816,67.684,87.422,66.495z"></path>
</g><g transform="translate(-100 412.62259096576895) rotate(0)">
  <animateTransform begin="-25.032850322722915s" repeatCount="indefinite" dur="50s" values="-100 412.62259096576895;2321 1184.5764215505897" keyTimes="0;1" type="translate" attributeName="transform"></animateTransform>
  <animateTransform additive="sum" repeatCount="indefinite" dur="50s" values="0 50 50;51.16886823385414 50 50" begin="-25.032850322722915s" keyTimes="0;1" type="rotate" attributeName="transform"></animateTransform>
  <path transform="scale(0.8214876992994526)" fill="var(--accent)" d="M87.422,66.495c-2.009-0.544-4.049-0.97-6.107-1.283c10.617-11.116,15.747-27.37,13.129-42.549 c-5.236,1.77-10.223,4.252-14.824,7.313c-4.13,2.747-7.948,5.961-11.374,9.55C67.425,24.863,61.344,10.451,50.991,0 c-4.015,5.451-7.281,11.444-9.753,17.744c-3.579,9.122-5.501,18.893-5.669,28.691c-4.79-7.979-11.256-14.955-18.858-20.322 c-4.514-3.187-9.431-5.806-14.616-7.72c-3.361,16.717,2.731,35.015,15.445,46.379c0.369,0.33,0.745,0.654,1.126,0.972 c-2.359,0.411-4.689,0.983-6.969,1.714C7.582,68.775,3.634,70.61,0,72.945c8.85,9.963,23.134,14.771,36.208,12.186 c3.524-0.697,7.002-1.919,9.887-4.057c0.073-0.054,0.145-0.111,0.218-0.167c-0.987,5.662-2.714,11.136-5.104,16.221l7.509,2.806 c1.698-5.797,2.631-11.748,2.814-17.669c0.107,0.076,0.215,0.152,0.324,0.225c3.142,2.114,6.863,3.232,10.607,3.796 C76.352,88.379,91.161,82.628,100,71.71C96.061,69.427,91.816,67.684,87.422,66.495z"></path>
</g><g transform="translate(-100 431.18658829684534) rotate(0)">
  <animateTransform begin="-8.820881395697135s" repeatCount="indefinite" dur="50s" values="-100 431.18658829684534;2321 1314.7920798596124" keyTimes="0;1" type="translate" attributeName="transform"></animateTransform>
  <animateTransform additive="sum" repeatCount="indefinite" dur="50s" values="0 50 50;305.186774374563 50 50" begin="-8.820881395697135s" keyTimes="0;1" type="rotate" attributeName="transform"></animateTransform>
  <path transform="scale(1.1116444118545599)" fill="var(--muted-foreground)" d="M87.422,66.495c-2.009-0.544-4.049-0.97-6.107-1.283c10.617-11.116,15.747-27.37,13.129-42.549 c-5.236,1.77-10.223,4.252-14.824,7.313c-4.13,2.747-7.948,5.961-11.374,9.55C67.425,24.863,61.344,10.451,50.991,0 c-4.015,5.451-7.281,11.444-9.753,17.744c-3.579,9.122-5.501,18.893-5.669,28.691c-4.79-7.979-11.256-14.955-18.858-20.322 c-4.514-3.187-9.431-5.806-14.616-7.72c-3.361,16.717,2.731,35.015,15.445,46.379c0.369,0.33,0.745,0.654,1.126,0.972 c-2.359,0.411-4.689,0.983-6.969,1.714C7.582,68.775,3.634,70.61,0,72.945c8.85,9.963,23.134,14.771,36.208,12.186 c3.524-0.697,7.002-1.919,9.887-4.057c0.073-0.054,0.145-0.111,0.218-0.167c-0.987,5.662-2.714,11.136-5.104,16.221l7.509,2.806 c1.698-5.797,2.631-11.748,2.814-17.669c0.107,0.076,0.215,0.152,0.324,0.225c3.142,2.114,6.863,3.232,10.607,3.796 C76.352,88.379,91.161,82.628,100,71.71C96.061,69.427,91.816,67.684,87.422,66.495z"></path>
</g><g transform="translate(1890.365785037878 -100) rotate(0)">
  <animateTransform begin="-19.303713742712887s" repeatCount="indefinite" dur="50s" values="1890.365785037878 -100;3470.137065320636 1028" keyTimes="0;1" type="translate" attributeName="transform"></animateTransform>
  <animateTransform additive="sum" repeatCount="indefinite" dur="50s" values="0 50 50;857.405175233409 50 50" begin="-19.303713742712887s" keyTimes="0;1" type="rotate" attributeName="transform"></animateTransform>
  <path transform="scale(0.6973280678845963)" fill="var(--muted-foreground)" d="M87.422,66.495c-2.009-0.544-4.049-0.97-6.107-1.283c10.617-11.116,15.747-27.37,13.129-42.549 c-5.236,1.77-10.223,4.252-14.824,7.313c-4.13,2.747-7.948,5.961-11.374,9.55C67.425,24.863,61.344,10.451,50.991,0 c-4.015,5.451-7.281,11.444-9.753,17.744c-3.579,9.122-5.501,18.893-5.669,28.691c-4.79-7.979-11.256-14.955-18.858-20.322 c-4.514-3.187-9.431-5.806-14.616-7.72c-3.361,16.717,2.731,35.015,15.445,46.379c0.369,0.33,0.745,0.654,1.126,0.972 c-2.359,0.411-4.689,0.983-6.969,1.714C7.582,68.775,3.634,70.61,0,72.945c8.85,9.963,23.134,14.771,36.208,12.186 c3.524-0.697,7.002-1.919,9.887-4.057c0.073-0.054,0.145-0.111,0.218-0.167c-0.987,5.662-2.714,11.136-5.104,16.221l7.509,2.806 c1.698-5.797,2.631-11.748,2.814-17.669c0.107,0.076,0.215,0.152,0.324,0.225c3.142,2.114,6.863,3.232,10.607,3.796 C76.352,88.379,91.161,82.628,100,71.71C96.061,69.427,91.816,67.684,87.422,66.495z"></path>
</g><g transform="translate(1366.27681678502 -100) rotate(0)">
  <animateTransform begin="-4.647786748810106s" repeatCount="indefinite" dur="50s" values="1366.27681678502 -100;2534.6868747916556 1028" keyTimes="0;1" type="translate" attributeName="transform"></animateTransform>
  <animateTransform additive="sum" repeatCount="indefinite" dur="50s" values="0 50 50;1036.2312143666159 50 50" begin="-4.647786748810106s" keyTimes="0;1" type="rotate" attributeName="transform"></animateTransform>
  <path transform="scale(0.9560995835065127)" fill="var(--muted-foreground)" d="M87.422,66.495c-2.009-0.544-4.049-0.97-6.107-1.283c10.617-11.116,15.747-27.37,13.129-42.549 c-5.236,1.77-10.223,4.252-14.824,7.313c-4.13,2.747-7.948,5.961-11.374,9.55C67.425,24.863,61.344,10.451,50.991,0 c-4.015,5.451-7.281,11.444-9.753,17.744c-3.579,9.122-5.501,18.893-5.669,28.691c-4.79-7.979-11.256-14.955-18.858-20.322 c-4.514-3.187-9.431-5.806-14.616-7.72c-3.361,16.717,2.731,35.015,15.445,46.379c0.369,0.33,0.745,0.654,1.126,0.972 c-2.359,0.411-4.689,0.983-6.969,1.714C7.582,68.775,3.634,70.61,0,72.945c8.85,9.963,23.134,14.771,36.208,12.186 c3.524-0.697,7.002-1.919,9.887-4.057c0.073-0.054,0.145-0.111,0.218-0.167c-0.987,5.662-2.714,11.136-5.104,16.221l7.509,2.806 c1.698-5.797,2.631-11.748,2.814-17.669c0.107,0.076,0.215,0.152,0.324,0.225c3.142,2.114,6.863,3.232,10.607,3.796 C76.352,88.379,91.161,82.628,100,71.71C96.061,69.427,91.816,67.684,87.422,66.495z"></path>
</g><g transform="translate(1294.042362265648 -100) rotate(0)">
  <animateTransform begin="-45.941632852160254s" repeatCount="indefinite" dur="50s" values="1294.042362265648 -100;2321 1272.8942277406163" keyTimes="0;1" type="translate" attributeName="transform"></animateTransform>
  <animateTransform additive="sum" repeatCount="indefinite" dur="50s" values="0 50 50;75.74282548159233 50 50" begin="-45.941632852160254s" keyTimes="0;1" type="rotate" attributeName="transform"></animateTransform>
  <path transform="scale(0.9844849172874366)" fill="var(--accent)" d="M87.422,66.495c-2.009-0.544-4.049-0.97-6.107-1.283c10.617-11.116,15.747-27.37,13.129-42.549 c-5.236,1.77-10.223,4.252-14.824,7.313c-4.13,2.747-7.948,5.961-11.374,9.55C67.425,24.863,61.344,10.451,50.991,0 c-4.015,5.451-7.281,11.444-9.753,17.744c-3.579,9.122-5.501,18.893-5.669,28.691c-4.79-7.979-11.256-14.955-18.858-20.322 c-4.514-3.187-9.431-5.806-14.616-7.72c-3.361,16.717,2.731,35.015,15.445,46.379c0.369,0.33,0.745,0.654,1.126,0.972 c-2.359,0.411-4.689,0.983-6.969,1.714C7.582,68.775,3.634,70.61,0,72.945c8.85,9.963,23.134,14.771,36.208,12.186 c3.524-0.697,7.002-1.919,9.887-4.057c0.073-0.054,0.145-0.111,0.218-0.167c-0.987,5.662-2.714,11.136-5.104,16.221l7.509,2.806 c1.698-5.797,2.631-11.748,2.814-17.669c0.107,0.076,0.215,0.152,0.324,0.225c3.142,2.114,6.863,3.232,10.607,3.796 C76.352,88.379,91.161,82.628,100,71.71C96.061,69.427,91.816,67.684,87.422,66.495z"></path>
</g><g transform="translate(-100 301.69829521592254) rotate(0)">
  <animateTransform begin="-45.18632497342631s" repeatCount="indefinite" dur="50s" values="-100 301.69829521592254;1729.8178023760122 1028" keyTimes="0;1" type="translate" attributeName="transform"></animateTransform>
  <animateTransform additive="sum" repeatCount="indefinite" dur="50s" values="0 50 50;277.3250280662696 50 50" begin="-45.18632497342631s" keyTimes="0;1" type="rotate" attributeName="transform"></animateTransform>
  <path transform="scale(0.7904956869295613)" fill="var(--primary)" d="M87.422,66.495c-2.009-0.544-4.049-0.97-6.107-1.283c10.617-11.116,15.747-27.37,13.129-42.549 c-5.236,1.77-10.223,4.252-14.824,7.313c-4.13,2.747-7.948,5.961-11.374,9.55C67.425,24.863,61.344,10.451,50.991,0 c-4.015,5.451-7.281,11.444-9.753,17.744c-3.579,9.122-5.501,18.893-5.669,28.691c-4.79-7.979-11.256-14.955-18.858-20.322 c-4.514-3.187-9.431-5.806-14.616-7.72c-3.361,16.717,2.731,35.015,15.445,46.379c0.369,0.33,0.745,0.654,1.126,0.972 c-2.359,0.411-4.689,0.983-6.969,1.714C7.582,68.775,3.634,70.61,0,72.945c8.85,9.963,23.134,14.771,36.208,12.186 c3.524-0.697,7.002-1.919,9.887-4.057c0.073-0.054,0.145-0.111,0.218-0.167c-0.987,5.662-2.714,11.136-5.104,16.221l7.509,2.806 c1.698-5.797,2.631-11.748,2.814-17.669c0.107,0.076,0.215,0.152,0.324,0.225c3.142,2.114,6.863,3.232,10.607,3.796 C76.352,88.379,91.161,82.628,100,71.71C96.061,69.427,91.816,67.684,87.422,66.495z"></path>
</g><g transform="translate(-100 46.115820751495434) rotate(0)">
  <animateTransform begin="-41.969525068021376s" repeatCount="indefinite" dur="50s" values="-100 46.115820751495434;2321 1124.6934877345923" keyTimes="0;1" type="translate" attributeName="transform"></animateTransform>
  <animateTransform additive="sum" repeatCount="indefinite" dur="50s" values="0 50 50;673.425119630008 50 50" begin="-41.969525068021376s" keyTimes="0;1" type="rotate" attributeName="transform"></animateTransform>
  <path transform="scale(0.8634266798579153)" fill="var(--secondary)" d="M87.422,66.495c-2.009-0.544-4.049-0.97-6.107-1.283c10.617-11.116,15.747-27.37,13.129-42.549 c-5.236,1.77-10.223,4.252-14.824,7.313c-4.13,2.747-7.948,5.961-11.374,9.55C67.425,24.863,61.344,10.451,50.991,0 c-4.015,5.451-7.281,11.444-9.753,17.744c-3.579,9.122-5.501,18.893-5.669,28.691c-4.79-7.979-11.256-14.955-18.858-20.322 c-4.514-3.187-9.431-5.806-14.616-7.72c-3.361,16.717,2.731,35.015,15.445,46.379c0.369,0.33,0.745,0.654,1.126,0.972 c-2.359,0.411-4.689,0.983-6.969,1.714C7.582,68.775,3.634,70.61,0,72.945c8.85,9.963,23.134,14.771,36.208,12.186 c3.524-0.697,7.002-1.919,9.887-4.057c0.073-0.054,0.145-0.111,0.218-0.167c-0.987,5.662-2.714,11.136-5.104,16.221l7.509,2.806 c1.698-5.797,2.631-11.748,2.814-17.669c0.107,0.076,0.215,0.152,0.324,0.225c3.142,2.114,6.863,3.232,10.607,3.796 C76.352,88.379,91.161,82.628,100,71.71C96.061,69.427,91.816,67.684,87.422,66.495z"></path>
</g><g transform="translate(-100 19.279312361463315) rotate(0)">
  <animateTransform begin="-36.70422100971293s" repeatCount="indefinite" dur="50s" values="-100 19.279312361463315;2321 1139.164249270894" keyTimes="0;1" type="translate" attributeName="transform"></animateTransform>
  <animateTransform additive="sum" repeatCount="indefinite" dur="50s" values="0 50 50;318.60205444767695 50 50" begin="-36.70422100971293s" keyTimes="0;1" type="rotate" attributeName="transform"></animateTransform>
  <path transform="scale(0.9242862411791299)" fill="var(--accent)" d="M87.422,66.495c-2.009-0.544-4.049-0.97-6.107-1.283c10.617-11.116,15.747-27.37,13.129-42.549 c-5.236,1.77-10.223,4.252-14.824,7.313c-4.13,2.747-7.948,5.961-11.374,9.55C67.425,24.863,61.344,10.451,50.991,0 c-4.015,5.451-7.281,11.444-9.753,17.744c-3.579,9.122-5.501,18.893-5.669,28.691c-4.79-7.979-11.256-14.955-18.858-20.322 c-4.514-3.187-9.431-5.806-14.616-7.72c-3.361,16.717,2.731,35.015,15.445,46.379c0.369,0.33,0.745,0.654,1.126,0.972 c-2.359,0.411-4.689,0.983-6.969,1.714C7.582,68.775,3.634,70.61,0,72.945c8.85,9.963,23.134,14.771,36.208,12.186 c3.524-0.697,7.002-1.919,9.887-4.057c0.073-0.054,0.145-0.111,0.218-0.167c-0.987,5.662-2.714,11.136-5.104,16.221l7.509,2.806 c1.698-5.797,2.631-11.748,2.814-17.669c0.107,0.076,0.215,0.152,0.324,0.225c3.142,2.114,6.863,3.232,10.607,3.796 C76.352,88.379,91.161,82.628,100,71.71C96.061,69.427,91.816,67.684,87.422,66.495z"></path>
</g><g transform="translate(-100 412.55285793066366) rotate(0)">
  <animateTransform begin="-42.2344976400824s" repeatCount="indefinite" dur="50s" values="-100 412.55285793066366;2321 1681.708936049099" keyTimes="0;1" type="translate" attributeName="transform"></animateTransform>
  <animateTransform additive="sum" repeatCount="indefinite" dur="50s" values="0 50 50;819.1810263667136 50 50" begin="-42.2344976400824s" keyTimes="0;1" type="rotate" attributeName="transform"></animateTransform>
  <path transform="scale(0.8501789614457999)" fill="var(--primary)" d="M87.422,66.495c-2.009-0.544-4.049-0.97-6.107-1.283c10.617-11.116,15.747-27.37,13.129-42.549 c-5.236,1.77-10.223,4.252-14.824,7.313c-4.13,2.747-7.948,5.961-11.374,9.55C67.425,24.863,61.344,10.451,50.991,0 c-4.015,5.451-7.281,11.444-9.753,17.744c-3.579,9.122-5.501,18.893-5.669,28.691c-4.79-7.979-11.256-14.955-18.858-20.322 c-4.514-3.187-9.431-5.806-14.616-7.72c-3.361,16.717,2.731,35.015,15.445,46.379c0.369,0.33,0.745,0.654,1.126,0.972 c-2.359,0.411-4.689,0.983-6.969,1.714C7.582,68.775,3.634,70.61,0,72.945c8.85,9.963,23.134,14.771,36.208,12.186 c3.524-0.697,7.002-1.919,9.887-4.057c0.073-0.054,0.145-0.111,0.218-0.167c-0.987,5.662-2.714,11.136-5.104,16.221l7.509,2.806 c1.698-5.797,2.631-11.748,2.814-17.669c0.107,0.076,0.215,0.152,0.324,0.225c3.142,2.114,6.863,3.232,10.607,3.796 C76.352,88.379,91.161,82.628,100,71.71C96.061,69.427,91.816,67.684,87.422,66.495z"></path>
</g><g transform="translate(1764.9993492768656 -100) rotate(0)">
  <animateTransform begin="-34.47602391681301s" repeatCount="indefinite" dur="50s" values="1764.9993492768656 -100;2321 984.8639411172717" keyTimes="0;1" type="translate" attributeName="transform"></animateTransform>
  <animateTransform additive="sum" repeatCount="indefinite" dur="50s" values="0 50 50;956.2756378945957 50 50" begin="-34.47602391681301s" keyTimes="0;1" type="rotate" attributeName="transform"></animateTransform>
  <path transform="scale(1.0589128547306348)" fill="var(--primary)" d="M87.422,66.495c-2.009-0.544-4.049-0.97-6.107-1.283c10.617-11.116,15.747-27.37,13.129-42.549 c-5.236,1.77-10.223,4.252-14.824,7.313c-4.13,2.747-7.948,5.961-11.374,9.55C67.425,24.863,61.344,10.451,50.991,0 c-4.015,5.451-7.281,11.444-9.753,17.744c-3.579,9.122-5.501,18.893-5.669,28.691c-4.79-7.979-11.256-14.955-18.858-20.322 c-4.514-3.187-9.431-5.806-14.616-7.72c-3.361,16.717,2.731,35.015,15.445,46.379c0.369,0.33,0.745,0.654,1.126,0.972 c-2.359,0.411-4.689,0.983-6.969,1.714C7.582,68.775,3.634,70.61,0,72.945c8.85,9.963,23.134,14.771,36.208,12.186 c3.524-0.697,7.002-1.919,9.887-4.057c0.073-0.054,0.145-0.111,0.218-0.167c-0.987,5.662-2.714,11.136-5.104,16.221l7.509,2.806 c1.698-5.797,2.631-11.748,2.814-17.669c0.107,0.076,0.215,0.152,0.324,0.225c3.142,2.114,6.863,3.232,10.607,3.796 C76.352,88.379,91.161,82.628,100,71.71C96.061,69.427,91.816,67.684,87.422,66.495z"></path>
</g><g transform="translate(875.1219792026968 -100) rotate(0)">
  <animateTransform begin="-15.325209623396265s" repeatCount="indefinite" dur="50s" values="875.1219792026968 -100;2198.7551518802684 1028" keyTimes="0;1" type="translate" attributeName="transform"></animateTransform>
  <animateTransform additive="sum" repeatCount="indefinite" dur="50s" values="0 50 50;43.764811943122766 50 50" begin="-15.325209623396265s" keyTimes="0;1" type="rotate" attributeName="transform"></animateTransform>
  <path transform="scale(0.528912356394814)" fill="var(--accent)" d="M87.422,66.495c-2.009-0.544-4.049-0.97-6.107-1.283c10.617-11.116,15.747-27.37,13.129-42.549 c-5.236,1.77-10.223,4.252-14.824,7.313c-4.13,2.747-7.948,5.961-11.374,9.55C67.425,24.863,61.344,10.451,50.991,0 c-4.015,5.451-7.281,11.444-9.753,17.744c-3.579,9.122-5.501,18.893-5.669,28.691c-4.79-7.979-11.256-14.955-18.858-20.322 c-4.514-3.187-9.431-5.806-14.616-7.72c-3.361,16.717,2.731,35.015,15.445,46.379c0.369,0.33,0.745,0.654,1.126,0.972 c-2.359,0.411-4.689,0.983-6.969,1.714C7.582,68.775,3.634,70.61,0,72.945c8.85,9.963,23.134,14.771,36.208,12.186 c3.524-0.697,7.002-1.919,9.887-4.057c0.073-0.054,0.145-0.111,0.218-0.167c-0.987,5.662-2.714,11.136-5.104,16.221l7.509,2.806 c1.698-5.797,2.631-11.748,2.814-17.669c0.107,0.076,0.215,0.152,0.324,0.225c3.142,2.114,6.863,3.232,10.607,3.796 C76.352,88.379,91.161,82.628,100,71.71C96.061,69.427,91.816,67.684,87.422,66.495z"></path>
</g><g transform="translate(-100 210.8616381641441) rotate(0)">
  <animateTransform begin="-36.27088556447427s" repeatCount="indefinite" dur="50s" values="-100 210.8616381641441;1454.4553747755165 1028" keyTimes="0;1" type="translate" attributeName="transform"></animateTransform>
  <animateTransform additive="sum" repeatCount="indefinite" dur="50s" values="0 50 50;107.39772416414321 50 50" begin="-36.27088556447427s" keyTimes="0;1" type="rotate" attributeName="transform"></animateTransform>
  <path transform="scale(0.7834071134809615)" fill="var(--muted-foreground)" d="M87.422,66.495c-2.009-0.544-4.049-0.97-6.107-1.283c10.617-11.116,15.747-27.37,13.129-42.549 c-5.236,1.77-10.223,4.252-14.824,7.313c-4.13,2.747-7.948,5.961-11.374,9.55C67.425,24.863,61.344,10.451,50.991,0 c-4.015,5.451-7.281,11.444-9.753,17.744c-3.579,9.122-5.501,18.893-5.669,28.691c-4.79-7.979-11.256-14.955-18.858-20.322 c-4.514-3.187-9.431-5.806-14.616-7.72c-3.361,16.717,2.731,35.015,15.445,46.379c0.369,0.33,0.745,0.654,1.126,0.972 c-2.359,0.411-4.689,0.983-6.969,1.714C7.582,68.775,3.634,70.61,0,72.945c8.85,9.963,23.134,14.771,36.208,12.186 c3.524-0.697,7.002-1.919,9.887-4.057c0.073-0.054,0.145-0.111,0.218-0.167c-0.987,5.662-2.714,11.136-5.104,16.221l7.509,2.806 c1.698-5.797,2.631-11.748,2.814-17.669c0.107,0.076,0.215,0.152,0.324,0.225c3.142,2.114,6.863,3.232,10.607,3.796 C76.352,88.379,91.161,82.628,100,71.71C96.061,69.427,91.816,67.684,87.422,66.495z"></path>
</g><g transform="translate(-100 166.68532718921583) rotate(0)">
  <animateTransform begin="-22.642779082154384s" repeatCount="indefinite" dur="50s" values="-100 166.68532718921583;2816.4188596014355 1028" keyTimes="0;1" type="translate" attributeName="transform"></animateTransform>
  <animateTransform additive="sum" repeatCount="indefinite" dur="50s" values="0 50 50;643.8924799862305 50 50" begin="-22.642779082154384s" keyTimes="0;1" type="rotate" attributeName="transform"></animateTransform>
  <path transform="scale(0.67312520374801)" fill="var(--muted-foreground)" d="M87.422,66.495c-2.009-0.544-4.049-0.97-6.107-1.283c10.617-11.116,15.747-27.37,13.129-42.549 c-5.236,1.77-10.223,4.252-14.824,7.313c-4.13,2.747-7.948,5.961-11.374,9.55C67.425,24.863,61.344,10.451,50.991,0 c-4.015,5.451-7.281,11.444-9.753,17.744c-3.579,9.122-5.501,18.893-5.669,28.691c-4.79-7.979-11.256-14.955-18.858-20.322 c-4.514-3.187-9.431-5.806-14.616-7.72c-3.361,16.717,2.731,35.015,15.445,46.379c0.369,0.33,0.745,0.654,1.126,0.972 c-2.359,0.411-4.689,0.983-6.969,1.714C7.582,68.775,3.634,70.61,0,72.945c8.85,9.963,23.134,14.771,36.208,12.186 c3.524-0.697,7.002-1.919,9.887-4.057c0.073-0.054,0.145-0.111,0.218-0.167c-0.987,5.662-2.714,11.136-5.104,16.221l7.509,2.806 c1.698-5.797,2.631-11.748,2.814-17.669c0.107,0.076,0.215,0.152,0.324,0.225c3.142,2.114,6.863,3.232,10.607,3.796 C76.352,88.379,91.161,82.628,100,71.71C96.061,69.427,91.816,67.684,87.422,66.495z"></path>
</g><g transform="translate(2093.370179106683 -100) rotate(0)">
  <animateTransform begin="-4.755541928450125s" repeatCount="indefinite" dur="50s" values="2093.370179106683 -100;2321 1122.8489528730445" keyTimes="0;1" type="translate" attributeName="transform"></animateTransform>
  <animateTransform additive="sum" repeatCount="indefinite" dur="50s" values="0 50 50;57.30992381961151 50 50" begin="-4.755541928450125s" keyTimes="0;1" type="rotate" attributeName="transform"></animateTransform>
  <path transform="scale(0.7451834238069972)" fill="var(--primary)" d="M87.422,66.495c-2.009-0.544-4.049-0.97-6.107-1.283c10.617-11.116,15.747-27.37,13.129-42.549 c-5.236,1.77-10.223,4.252-14.824,7.313c-4.13,2.747-7.948,5.961-11.374,9.55C67.425,24.863,61.344,10.451,50.991,0 c-4.015,5.451-7.281,11.444-9.753,17.744c-3.579,9.122-5.501,18.893-5.669,28.691c-4.79-7.979-11.256-14.955-18.858-20.322 c-4.514-3.187-9.431-5.806-14.616-7.72c-3.361,16.717,2.731,35.015,15.445,46.379c0.369,0.33,0.745,0.654,1.126,0.972 c-2.359,0.411-4.689,0.983-6.969,1.714C7.582,68.775,3.634,70.61,0,72.945c8.85,9.963,23.134,14.771,36.208,12.186 c3.524-0.697,7.002-1.919,9.887-4.057c0.073-0.054,0.145-0.111,0.218-0.167c-0.987,5.662-2.714,11.136-5.104,16.221l7.509,2.806 c1.698-5.797,2.631-11.748,2.814-17.669c0.107,0.076,0.215,0.152,0.324,0.225c3.142,2.114,6.863,3.232,10.607,3.796 C76.352,88.379,91.161,82.628,100,71.71C96.061,69.427,91.816,67.684,87.422,66.495z"></path>
</g><g transform="translate(-100 66.75328801579748) rotate(0)">
  <animateTransform begin="-3.249258679199612s" repeatCount="indefinite" dur="50s" values="-100 66.75328801579748;3194.8733761995327 1028" keyTimes="0;1" type="translate" attributeName="transform"></animateTransform>
  <animateTransform additive="sum" repeatCount="indefinite" dur="50s" values="0 50 50;886.9452933410778 50 50" begin="-3.249258679199612s" keyTimes="0;1" type="rotate" attributeName="transform"></animateTransform>
  <path transform="scale(0.7922197540277656)" fill="var(--accent)" d="M87.422,66.495c-2.009-0.544-4.049-0.97-6.107-1.283c10.617-11.116,15.747-27.37,13.129-42.549 c-5.236,1.77-10.223,4.252-14.824,7.313c-4.13,2.747-7.948,5.961-11.374,9.55C67.425,24.863,61.344,10.451,50.991,0 c-4.015,5.451-7.281,11.444-9.753,17.744c-3.579,9.122-5.501,18.893-5.669,28.691c-4.79-7.979-11.256-14.955-18.858-20.322 c-4.514-3.187-9.431-5.806-14.616-7.72c-3.361,16.717,2.731,35.015,15.445,46.379c0.369,0.33,0.745,0.654,1.126,0.972 c-2.359,0.411-4.689,0.983-6.969,1.714C7.582,68.775,3.634,70.61,0,72.945c8.85,9.963,23.134,14.771,36.208,12.186 c3.524-0.697,7.002-1.919,9.887-4.057c0.073-0.054,0.145-0.111,0.218-0.167c-0.987,5.662-2.714,11.136-5.104,16.221l7.509,2.806 c1.698-5.797,2.631-11.748,2.814-17.669c0.107,0.076,0.215,0.152,0.324,0.225c3.142,2.114,6.863,3.232,10.607,3.796 C76.352,88.379,91.161,82.628,100,71.71C96.061,69.427,91.816,67.684,87.422,66.495z"></path>
</g><g transform="translate(1802.4888823281058 -100) rotate(0)">
  <animateTransform begin="-37.92683384170442s" repeatCount="indefinite" dur="50s" values="1802.4888823281058 -100;4164.662066049481 1028" keyTimes="0;1" type="translate" attributeName="transform"></animateTransform>
  <animateTransform additive="sum" repeatCount="indefinite" dur="50s" values="0 50 50;640.2512504834722 50 50" begin="-37.92683384170442s" keyTimes="0;1" type="rotate" attributeName="transform"></animateTransform>
  <path transform="scale(0.9543637630857842)" fill="var(--muted-foreground)" d="M87.422,66.495c-2.009-0.544-4.049-0.97-6.107-1.283c10.617-11.116,15.747-27.37,13.129-42.549 c-5.236,1.77-10.223,4.252-14.824,7.313c-4.13,2.747-7.948,5.961-11.374,9.55C67.425,24.863,61.344,10.451,50.991,0 c-4.015,5.451-7.281,11.444-9.753,17.744c-3.579,9.122-5.501,18.893-5.669,28.691c-4.79-7.979-11.256-14.955-18.858-20.322 c-4.514-3.187-9.431-5.806-14.616-7.72c-3.361,16.717,2.731,35.015,15.445,46.379c0.369,0.33,0.745,0.654,1.126,0.972 c-2.359,0.411-4.689,0.983-6.969,1.714C7.582,68.775,3.634,70.61,0,72.945c8.85,9.963,23.134,14.771,36.208,12.186 c3.524-0.697,7.002-1.919,9.887-4.057c0.073-0.054,0.145-0.111,0.218-0.167c-0.987,5.662-2.714,11.136-5.104,16.221l7.509,2.806 c1.698-5.797,2.631-11.748,2.814-17.669c0.107,0.076,0.215,0.152,0.324,0.225c3.142,2.114,6.863,3.232,10.607,3.796 C76.352,88.379,91.161,82.628,100,71.71C96.061,69.427,91.816,67.684,87.422,66.495z"></path>
</g><g transform="translate(-100 325.2604220450177) rotate(0)">
  <animateTransform begin="-45.532200419365246s" repeatCount="indefinite" dur="50s" values="-100 325.2604220450177;2321 1215.9430398466122" keyTimes="0;1" type="translate" attributeName="transform"></animateTransform>
  <animateTransform additive="sum" repeatCount="indefinite" dur="50s" values="0 50 50;172.0264345445288 50 50" begin="-45.532200419365246s" keyTimes="0;1" type="rotate" attributeName="transform"></animateTransform>
  <path transform="scale(0.6042045752684599)" fill="var(--accent)" d="M87.422,66.495c-2.009-0.544-4.049-0.97-6.107-1.283c10.617-11.116,15.747-27.37,13.129-42.549 c-5.236,1.77-10.223,4.252-14.824,7.313c-4.13,2.747-7.948,5.961-11.374,9.55C67.425,24.863,61.344,10.451,50.991,0 c-4.015,5.451-7.281,11.444-9.753,17.744c-3.579,9.122-5.501,18.893-5.669,28.691c-4.79-7.979-11.256-14.955-18.858-20.322 c-4.514-3.187-9.431-5.806-14.616-7.72c-3.361,16.717,2.731,35.015,15.445,46.379c0.369,0.33,0.745,0.654,1.126,0.972 c-2.359,0.411-4.689,0.983-6.969,1.714C7.582,68.775,3.634,70.61,0,72.945c8.85,9.963,23.134,14.771,36.208,12.186 c3.524-0.697,7.002-1.919,9.887-4.057c0.073-0.054,0.145-0.111,0.218-0.167c-0.987,5.662-2.714,11.136-5.104,16.221l7.509,2.806 c1.698-5.797,2.631-11.748,2.814-17.669c0.107,0.076,0.215,0.152,0.324,0.225c3.142,2.114,6.863,3.232,10.607,3.796 C76.352,88.379,91.161,82.628,100,71.71C96.061,69.427,91.816,67.684,87.422,66.495z"></path>
</g><g transform="translate(-100 396.98496837730534) rotate(0)">
  <animateTransform begin="-23.195972511364594s" repeatCount="indefinite" dur="50s" values="-100 396.98496837730534;1728.3980894567103 1028" keyTimes="0;1" type="translate" attributeName="transform"></animateTransform>
  <animateTransform additive="sum" repeatCount="indefinite" dur="50s" values="0 50 50;175.82347619706275 50 50" begin="-23.195972511364594s" keyTimes="0;1" type="rotate" attributeName="transform"></animateTransform>
  <path transform="scale(0.5009873159818229)" fill="var(--accent)" d="M87.422,66.495c-2.009-0.544-4.049-0.97-6.107-1.283c10.617-11.116,15.747-27.37,13.129-42.549 c-5.236,1.77-10.223,4.252-14.824,7.313c-4.13,2.747-7.948,5.961-11.374,9.55C67.425,24.863,61.344,10.451,50.991,0 c-4.015,5.451-7.281,11.444-9.753,17.744c-3.579,9.122-5.501,18.893-5.669,28.691c-4.79-7.979-11.256-14.955-18.858-20.322 c-4.514-3.187-9.431-5.806-14.616-7.72c-3.361,16.717,2.731,35.015,15.445,46.379c0.369,0.33,0.745,0.654,1.126,0.972 c-2.359,0.411-4.689,0.983-6.969,1.714C7.582,68.775,3.634,70.61,0,72.945c8.85,9.963,23.134,14.771,36.208,12.186 c3.524-0.697,7.002-1.919,9.887-4.057c0.073-0.054,0.145-0.111,0.218-0.167c-0.987,5.662-2.714,11.136-5.104,16.221l7.509,2.806 c1.698-5.797,2.631-11.748,2.814-17.669c0.107,0.076,0.215,0.152,0.324,0.225c3.142,2.114,6.863,3.232,10.607,3.796 C76.352,88.379,91.161,82.628,100,71.71C96.061,69.427,91.816,67.684,87.422,66.495z"></path>
</g><g transform="translate(201.46926723374622 -100) rotate(0)">
  <animateTransform begin="-11.104128423727898s" repeatCount="indefinite" dur="50s" values="201.46926723374622 -100;2321 1131.9745982833988" keyTimes="0;1" type="translate" attributeName="transform"></animateTransform>
  <animateTransform additive="sum" repeatCount="indefinite" dur="50s" values="0 50 50;679.6589335046086 50 50" begin="-11.104128423727898s" keyTimes="0;1" type="rotate" attributeName="transform"></animateTransform>
  <path transform="scale(0.822033248904642)" fill="var(--accent)" d="M87.422,66.495c-2.009-0.544-4.049-0.97-6.107-1.283c10.617-11.116,15.747-27.37,13.129-42.549 c-5.236,1.77-10.223,4.252-14.824,7.313c-4.13,2.747-7.948,5.961-11.374,9.55C67.425,24.863,61.344,10.451,50.991,0 c-4.015,5.451-7.281,11.444-9.753,17.744c-3.579,9.122-5.501,18.893-5.669,28.691c-4.79-7.979-11.256-14.955-18.858-20.322 c-4.514-3.187-9.431-5.806-14.616-7.72c-3.361,16.717,2.731,35.015,15.445,46.379c0.369,0.33,0.745,0.654,1.126,0.972 c-2.359,0.411-4.689,0.983-6.969,1.714C7.582,68.775,3.634,70.61,0,72.945c8.85,9.963,23.134,14.771,36.208,12.186 c3.524-0.697,7.002-1.919,9.887-4.057c0.073-0.054,0.145-0.111,0.218-0.167c-0.987,5.662-2.714,11.136-5.104,16.221l7.509,2.806 c1.698-5.797,2.631-11.748,2.814-17.669c0.107,0.076,0.215,0.152,0.324,0.225c3.142,2.114,6.863,3.232,10.607,3.796 C76.352,88.379,91.161,82.628,100,71.71C96.061,69.427,91.816,67.684,87.422,66.495z"></path>
</g><g transform="translate(503.8618981067089 -100) rotate(0)">
  <animateTransform begin="-44.208715943445966s" repeatCount="indefinite" dur="50s" values="503.8618981067089 -100;2321 532.6525786181165" keyTimes="0;1" type="translate" attributeName="transform"></animateTransform>
  <animateTransform additive="sum" repeatCount="indefinite" dur="50s" values="0 50 50;668.0314114511284 50 50" begin="-44.208715943445966s" keyTimes="0;1" type="rotate" attributeName="transform"></animateTransform>
  <path transform="scale(0.6136610371079025)" fill="var(--muted-foreground)" d="M87.422,66.495c-2.009-0.544-4.049-0.97-6.107-1.283c10.617-11.116,15.747-27.37,13.129-42.549 c-5.236,1.77-10.223,4.252-14.824,7.313c-4.13,2.747-7.948,5.961-11.374,9.55C67.425,24.863,61.344,10.451,50.991,0 c-4.015,5.451-7.281,11.444-9.753,17.744c-3.579,9.122-5.501,18.893-5.669,28.691c-4.79-7.979-11.256-14.955-18.858-20.322 c-4.514-3.187-9.431-5.806-14.616-7.72c-3.361,16.717,2.731,35.015,15.445,46.379c0.369,0.33,0.745,0.654,1.126,0.972 c-2.359,0.411-4.689,0.983-6.969,1.714C7.582,68.775,3.634,70.61,0,72.945c8.85,9.963,23.134,14.771,36.208,12.186 c3.524-0.697,7.002-1.919,9.887-4.057c0.073-0.054,0.145-0.111,0.218-0.167c-0.987,5.662-2.714,11.136-5.104,16.221l7.509,2.806 c1.698-5.797,2.631-11.748,2.814-17.669c0.107,0.076,0.215,0.152,0.324,0.225c3.142,2.114,6.863,3.232,10.607,3.796 C76.352,88.379,91.161,82.628,100,71.71C96.061,69.427,91.816,67.684,87.422,66.495z"></path>
</g><g transform="translate(-100 303.24966243868283) rotate(0)">
  <animateTransform begin="-34.12493157576961s" repeatCount="indefinite" dur="50s" values="-100 303.24966243868283;2794.499824721378 1028" keyTimes="0;1" type="translate" attributeName="transform"></animateTransform>
  <animateTransform additive="sum" repeatCount="indefinite" dur="50s" values="0 50 50;459.94273547882756 50 50" begin="-34.12493157576961s" keyTimes="0;1" type="rotate" attributeName="transform"></animateTransform>
  <path transform="scale(0.7186708604225549)" fill="var(--secondary)" d="M87.422,66.495c-2.009-0.544-4.049-0.97-6.107-1.283c10.617-11.116,15.747-27.37,13.129-42.549 c-5.236,1.77-10.223,4.252-14.824,7.313c-4.13,2.747-7.948,5.961-11.374,9.55C67.425,24.863,61.344,10.451,50.991,0 c-4.015,5.451-7.281,11.444-9.753,17.744c-3.579,9.122-5.501,18.893-5.669,28.691c-4.79-7.979-11.256-14.955-18.858-20.322 c-4.514-3.187-9.431-5.806-14.616-7.72c-3.361,16.717,2.731,35.015,15.445,46.379c0.369,0.33,0.745,0.654,1.126,0.972 c-2.359,0.411-4.689,0.983-6.969,1.714C7.582,68.775,3.634,70.61,0,72.945c8.85,9.963,23.134,14.771,36.208,12.186 c3.524-0.697,7.002-1.919,9.887-4.057c0.073-0.054,0.145-0.111,0.218-0.167c-0.987,5.662-2.714,11.136-5.104,16.221l7.509,2.806 c1.698-5.797,2.631-11.748,2.814-17.669c0.107,0.076,0.215,0.152,0.324,0.225c3.142,2.114,6.863,3.232,10.607,3.796 C76.352,88.379,91.161,82.628,100,71.71C96.061,69.427,91.816,67.684,87.422,66.495z"></path>
</g><g transform="translate(1916.7703125150542 -100) rotate(0)">
  <animateTransform begin="-23.000987614150056s" repeatCount="indefinite" dur="50s" values="1916.7703125150542 -100;2321 774.6533918124151" keyTimes="0;1" type="translate" attributeName="transform"></animateTransform>
  <animateTransform additive="sum" repeatCount="indefinite" dur="50s" values="0 50 50;999.0229388275785 50 50" begin="-23.000987614150056s" keyTimes="0;1" type="rotate" attributeName="transform"></animateTransform>
  <path transform="scale(0.7378537161682677)" fill="var(--muted-foreground)" d="M87.422,66.495c-2.009-0.544-4.049-0.97-6.107-1.283c10.617-11.116,15.747-27.37,13.129-42.549 c-5.236,1.77-10.223,4.252-14.824,7.313c-4.13,2.747-7.948,5.961-11.374,9.55C67.425,24.863,61.344,10.451,50.991,0 c-4.015,5.451-7.281,11.444-9.753,17.744c-3.579,9.122-5.501,18.893-5.669,28.691c-4.79-7.979-11.256-14.955-18.858-20.322 c-4.514-3.187-9.431-5.806-14.616-7.72c-3.361,16.717,2.731,35.015,15.445,46.379c0.369,0.33,0.745,0.654,1.126,0.972 c-2.359,0.411-4.689,0.983-6.969,1.714C7.582,68.775,3.634,70.61,0,72.945c8.85,9.963,23.134,14.771,36.208,12.186 c3.524-0.697,7.002-1.919,9.887-4.057c0.073-0.054,0.145-0.111,0.218-0.167c-0.987,5.662-2.714,11.136-5.104,16.221l7.509,2.806 c1.698-5.797,2.631-11.748,2.814-17.669c0.107,0.076,0.215,0.152,0.324,0.225c3.142,2.114,6.863,3.232,10.607,3.796 C76.352,88.379,91.161,82.628,100,71.71C96.061,69.427,91.816,67.684,87.422,66.495z"></path>
</g><g transform="translate(74.55136592241413 -100) rotate(0)">
  <animateTransform begin="-9.320970529808314s" repeatCount="indefinite" dur="50s" values="74.55136592241413 -100;1645.5399177579784 1028" keyTimes="0;1" type="translate" attributeName="transform"></animateTransform>
  <animateTransform additive="sum" repeatCount="indefinite" dur="50s" values="0 50 50;403.45652931741387 50 50" begin="-9.320970529808314s" keyTimes="0;1" type="rotate" attributeName="transform"></animateTransform>
  <path transform="scale(0.7747356023394978)" fill="var(--muted-foreground)" d="M87.422,66.495c-2.009-0.544-4.049-0.97-6.107-1.283c10.617-11.116,15.747-27.37,13.129-42.549 c-5.236,1.77-10.223,4.252-14.824,7.313c-4.13,2.747-7.948,5.961-11.374,9.55C67.425,24.863,61.344,10.451,50.991,0 c-4.015,5.451-7.281,11.444-9.753,17.744c-3.579,9.122-5.501,18.893-5.669,28.691c-4.79-7.979-11.256-14.955-18.858-20.322 c-4.514-3.187-9.431-5.806-14.616-7.72c-3.361,16.717,2.731,35.015,15.445,46.379c0.369,0.33,0.745,0.654,1.126,0.972 c-2.359,0.411-4.689,0.983-6.969,1.714C7.582,68.775,3.634,70.61,0,72.945c8.85,9.963,23.134,14.771,36.208,12.186 c3.524-0.697,7.002-1.919,9.887-4.057c0.073-0.054,0.145-0.111,0.218-0.167c-0.987,5.662-2.714,11.136-5.104,16.221l7.509,2.806 c1.698-5.797,2.631-11.748,2.814-17.669c0.107,0.076,0.215,0.152,0.324,0.225c3.142,2.114,6.863,3.232,10.607,3.796 C76.352,88.379,91.161,82.628,100,71.71C96.061,69.427,91.816,67.684,87.422,66.495z"></path>
</g><g transform="translate(-100 239.16900664070639) rotate(0)">
  <animateTransform begin="-8.276891624756038s" repeatCount="indefinite" dur="50s" values="-100 239.16900664070639;2321 1315.7715871436071" keyTimes="0;1" type="translate" attributeName="transform"></animateTransform>
  <animateTransform additive="sum" repeatCount="indefinite" dur="50s" values="0 50 50;417.00699543513997 50 50" begin="-8.276891624756038s" keyTimes="0;1" type="rotate" attributeName="transform"></animateTransform>
  <path transform="scale(1.054651638932679)" fill="var(--muted-foreground)" d="M87.422,66.495c-2.009-0.544-4.049-0.97-6.107-1.283c10.617-11.116,15.747-27.37,13.129-42.549 c-5.236,1.77-10.223,4.252-14.824,7.313c-4.13,2.747-7.948,5.961-11.374,9.55C67.425,24.863,61.344,10.451,50.991,0 c-4.015,5.451-7.281,11.444-9.753,17.744c-3.579,9.122-5.501,18.893-5.669,28.691c-4.79-7.979-11.256-14.955-18.858-20.322 c-4.514-3.187-9.431-5.806-14.616-7.72c-3.361,16.717,2.731,35.015,15.445,46.379c0.369,0.33,0.745,0.654,1.126,0.972 c-2.359,0.411-4.689,0.983-6.969,1.714C7.582,68.775,3.634,70.61,0,72.945c8.85,9.963,23.134,14.771,36.208,12.186 c3.524-0.697,7.002-1.919,9.887-4.057c0.073-0.054,0.145-0.111,0.218-0.167c-0.987,5.662-2.714,11.136-5.104,16.221l7.509,2.806 c1.698-5.797,2.631-11.748,2.814-17.669c0.107,0.076,0.215,0.152,0.324,0.225c3.142,2.114,6.863,3.232,10.607,3.796 C76.352,88.379,91.161,82.628,100,71.71C96.061,69.427,91.816,67.684,87.422,66.495z"></path>
</g><g transform="translate(-100 460.67092954938505) rotate(0)">
  <animateTransform begin="-32.27218270942482s" repeatCount="indefinite" dur="50s" values="-100 460.67092954938505;2789.2826092925316 1028" keyTimes="0;1" type="translate" attributeName="transform"></animateTransform>
  <animateTransform additive="sum" repeatCount="indefinite" dur="50s" values="0 50 50;186.0860862961735 50 50" begin="-32.27218270942482s" keyTimes="0;1" type="rotate" attributeName="transform"></animateTransform>
  <path transform="scale(0.7567218402998785)" fill="var(--accent)" d="M87.422,66.495c-2.009-0.544-4.049-0.97-6.107-1.283c10.617-11.116,15.747-27.37,13.129-42.549 c-5.236,1.77-10.223,4.252-14.824,7.313c-4.13,2.747-7.948,5.961-11.374,9.55C67.425,24.863,61.344,10.451,50.991,0 c-4.015,5.451-7.281,11.444-9.753,17.744c-3.579,9.122-5.501,18.893-5.669,28.691c-4.79-7.979-11.256-14.955-18.858-20.322 c-4.514-3.187-9.431-5.806-14.616-7.72c-3.361,16.717,2.731,35.015,15.445,46.379c0.369,0.33,0.745,0.654,1.126,0.972 c-2.359,0.411-4.689,0.983-6.969,1.714C7.582,68.775,3.634,70.61,0,72.945c8.85,9.963,23.134,14.771,36.208,12.186 c3.524-0.697,7.002-1.919,9.887-4.057c0.073-0.054,0.145-0.111,0.218-0.167c-0.987,5.662-2.714,11.136-5.104,16.221l7.509,2.806 c1.698-5.797,2.631-11.748,2.814-17.669c0.107,0.076,0.215,0.152,0.324,0.225c3.142,2.114,6.863,3.232,10.607,3.796 C76.352,88.379,91.161,82.628,100,71.71C96.061,69.427,91.816,67.684,87.422,66.495z"></path>
</g><g transform="translate(-100 320.6755085042713) rotate(0)">
  <animateTransform begin="-39.9030792546335s" repeatCount="indefinite" dur="50s" values="-100 320.6755085042713;2321 1544.0412811451406" keyTimes="0;1" type="translate" attributeName="transform"></animateTransform>
  <animateTransform additive="sum" repeatCount="indefinite" dur="50s" values="0 50 50;673.9667855540322 50 50" begin="-39.9030792546335s" keyTimes="0;1" type="rotate" attributeName="transform"></animateTransform>
  <path transform="scale(0.9927812469504179)" fill="var(--primary)" d="M87.422,66.495c-2.009-0.544-4.049-0.97-6.107-1.283c10.617-11.116,15.747-27.37,13.129-42.549 c-5.236,1.77-10.223,4.252-14.824,7.313c-4.13,2.747-7.948,5.961-11.374,9.55C67.425,24.863,61.344,10.451,50.991,0 c-4.015,5.451-7.281,11.444-9.753,17.744c-3.579,9.122-5.501,18.893-5.669,28.691c-4.79-7.979-11.256-14.955-18.858-20.322 c-4.514-3.187-9.431-5.806-14.616-7.72c-3.361,16.717,2.731,35.015,15.445,46.379c0.369,0.33,0.745,0.654,1.126,0.972 c-2.359,0.411-4.689,0.983-6.969,1.714C7.582,68.775,3.634,70.61,0,72.945c8.85,9.963,23.134,14.771,36.208,12.186 c3.524-0.697,7.002-1.919,9.887-4.057c0.073-0.054,0.145-0.111,0.218-0.167c-0.987,5.662-2.714,11.136-5.104,16.221l7.509,2.806 c1.698-5.797,2.631-11.748,2.814-17.669c0.107,0.076,0.215,0.152,0.324,0.225c3.142,2.114,6.863,3.232,10.607,3.796 C76.352,88.379,91.161,82.628,100,71.71C96.061,69.427,91.816,67.684,87.422,66.495z"></path>
</g><g transform="translate(-100 312.54120885539083) rotate(0)">
  <animateTransform begin="-35.24498662668845s" repeatCount="indefinite" dur="50s" values="-100 312.54120885539083;2321 978.7165069040921" keyTimes="0;1" type="translate" attributeName="transform"></animateTransform>
  <animateTransform additive="sum" repeatCount="indefinite" dur="50s" values="0 50 50;1068.810365942334 50 50" begin="-35.24498662668845s" keyTimes="0;1" type="rotate" attributeName="transform"></animateTransform>
  <path transform="scale(0.8629677624983847)" fill="var(--accent)" d="M87.422,66.495c-2.009-0.544-4.049-0.97-6.107-1.283c10.617-11.116,15.747-27.37,13.129-42.549 c-5.236,1.77-10.223,4.252-14.824,7.313c-4.13,2.747-7.948,5.961-11.374,9.55C67.425,24.863,61.344,10.451,50.991,0 c-4.015,5.451-7.281,11.444-9.753,17.744c-3.579,9.122-5.501,18.893-5.669,28.691c-4.79-7.979-11.256-14.955-18.858-20.322 c-4.514-3.187-9.431-5.806-14.616-7.72c-3.361,16.717,2.731,35.015,15.445,46.379c0.369,0.33,0.745,0.654,1.126,0.972 c-2.359,0.411-4.689,0.983-6.969,1.714C7.582,68.775,3.634,70.61,0,72.945c8.85,9.963,23.134,14.771,36.208,12.186 c3.524-0.697,7.002-1.919,9.887-4.057c0.073-0.054,0.145-0.111,0.218-0.167c-0.987,5.662-2.714,11.136-5.104,16.221l7.509,2.806 c1.698-5.797,2.631-11.748,2.814-17.669c0.107,0.076,0.215,0.152,0.324,0.225c3.142,2.114,6.863,3.232,10.607,3.796 C76.352,88.379,91.161,82.628,100,71.71C96.061,69.427,91.816,67.684,87.422,66.495z"></path>
</g><g transform="translate(-100 252.97717443200423) rotate(0)">
  <animateTransform begin="-35.167857212495626s" repeatCount="indefinite" dur="50s" values="-100 252.97717443200423;2321 1190.7610508838816" keyTimes="0;1" type="translate" attributeName="transform"></animateTransform>
  <animateTransform additive="sum" repeatCount="indefinite" dur="50s" values="0 50 50;231.54519332961726 50 50" begin="-35.167857212495626s" keyTimes="0;1" type="rotate" attributeName="transform"></animateTransform>
  <path transform="scale(0.8263760195523719)" fill="var(--secondary)" d="M87.422,66.495c-2.009-0.544-4.049-0.97-6.107-1.283c10.617-11.116,15.747-27.37,13.129-42.549 c-5.236,1.77-10.223,4.252-14.824,7.313c-4.13,2.747-7.948,5.961-11.374,9.55C67.425,24.863,61.344,10.451,50.991,0 c-4.015,5.451-7.281,11.444-9.753,17.744c-3.579,9.122-5.501,18.893-5.669,28.691c-4.79-7.979-11.256-14.955-18.858-20.322 c-4.514-3.187-9.431-5.806-14.616-7.72c-3.361,16.717,2.731,35.015,15.445,46.379c0.369,0.33,0.745,0.654,1.126,0.972 c-2.359,0.411-4.689,0.983-6.969,1.714C7.582,68.775,3.634,70.61,0,72.945c8.85,9.963,23.134,14.771,36.208,12.186 c3.524-0.697,7.002-1.919,9.887-4.057c0.073-0.054,0.145-0.111,0.218-0.167c-0.987,5.662-2.714,11.136-5.104,16.221l7.509,2.806 c1.698-5.797,2.631-11.748,2.814-17.669c0.107,0.076,0.215,0.152,0.324,0.225c3.142,2.114,6.863,3.232,10.607,3.796 C76.352,88.379,91.161,82.628,100,71.71C96.061,69.427,91.816,67.684,87.422,66.495z"></path>
</g><g transform="translate(1096.9107645993947 -100) rotate(0)">
  <animateTransform begin="-3.1576298266312373s" repeatCount="indefinite" dur="50s" values="1096.9107645993947 -100;2321 439.60335771245013" keyTimes="0;1" type="translate" attributeName="transform"></animateTransform>
  <animateTransform additive="sum" repeatCount="indefinite" dur="50s" values="0 50 50;938.2252047344745 50 50" begin="-3.1576298266312373s" keyTimes="0;1" type="rotate" attributeName="transform"></animateTransform>
  <path transform="scale(0.5800431716959755)" fill="var(--secondary)" d="M87.422,66.495c-2.009-0.544-4.049-0.97-6.107-1.283c10.617-11.116,15.747-27.37,13.129-42.549 c-5.236,1.77-10.223,4.252-14.824,7.313c-4.13,2.747-7.948,5.961-11.374,9.55C67.425,24.863,61.344,10.451,50.991,0 c-4.015,5.451-7.281,11.444-9.753,17.744c-3.579,9.122-5.501,18.893-5.669,28.691c-4.79-7.979-11.256-14.955-18.858-20.322 c-4.514-3.187-9.431-5.806-14.616-7.72c-3.361,16.717,2.731,35.015,15.445,46.379c0.369,0.33,0.745,0.654,1.126,0.972 c-2.359,0.411-4.689,0.983-6.969,1.714C7.582,68.775,3.634,70.61,0,72.945c8.85,9.963,23.134,14.771,36.208,12.186 c3.524-0.697,7.002-1.919,9.887-4.057c0.073-0.054,0.145-0.111,0.218-0.167c-0.987,5.662-2.714,11.136-5.104,16.221l7.509,2.806 c1.698-5.797,2.631-11.748,2.814-17.669c0.107,0.076,0.215,0.152,0.324,0.225c3.142,2.114,6.863,3.232,10.607,3.796 C76.352,88.379,91.161,82.628,100,71.71C96.061,69.427,91.816,67.684,87.422,66.495z"></path>
</g><g></g></g><!-- [ldio] generated by https://loading.io --></svg>