<svg xmlns="http://www.w3.org/2000/svg" viewBox="0 0 1742 928" preserveAspectRatio="xMidYMid" width="100%" height="100%" style="shape-rendering: auto; display: block; background: transparent;" xmlns:xlink="http://www.w3.org/1999/xlink"><g><defs>
  <path transform="scale(0.3)" stroke-width="4.333333333333334" stroke="inherit" fill="none" d="M-35 -35L35 -35L35 35L-35 35Z" id="path-1mup4zi39bw-1"></path>
  <path transform="scale(0.3)" stroke-width="4.333333333333334" stroke="inherit" fill="none" d="M0 -37A37 37 0 0 1 0 37A37 37 0 0 1 0 -37" id="path-1mup4zi39bw-2"></path>
  <path transform="scale(0.3)" stroke-width="4.333333333333334" stroke="inherit" fill="none" d="M0 -34.641L40 34.641L-40 34.641Z" id="path-1mup4zi39bw-3"></path>
</defs><path stroke="none" fill="none" d="M 103.16935537497277 249.4682058468789
c 0 31.582407862994327 -7.727610434562441 9.071542684051563 -16.799153118614004 9.071542684051563
S 69.57104913774477 281.05061370987323 69.57104913774477 249.4682058468789
s 7.727610434562441 -9.071542684051563 16.799153118614004 -9.071542684051563
S 103.16935537497277 217.88579798388457 103.16935537497277 249.4682058468789
z" id="path0"></path>
<use stroke="var(--primary)" y="0" x="0" xlink:href="#path-1mup4zi39bw-2">
  <animateMotion calcMode="linear" repeatCount="indefinite" keyTimes="0;1" keyPoints="1;0" dur="10.638297872340425s" begin="-8.15468868184948s">
    <mpath xlink:href="#path0"></mpath>
  </animateMotion>
</use><path stroke="none" fill="none" d="M 177.718562989802 811.7724937568366
c 0 43.42742270742319 -10.625858747560992 12.473834181919427 -23.09969292948042 12.473834181919427
S 131.51917713084114 855.1999164642598 131.51917713084114 811.7724937568366
s 10.625858747560992 -12.473834181919427 23.09969292948042 -12.473834181919427
S 177.718562989802 768.3450710494135 177.718562989802 811.7724937568366
z" id="path1"></path>
<use stroke="var(--secondary)" y="0" x="0" xlink:href="#path-1mup4zi39bw-1">
  <animateMotion calcMode="linear" repeatCount="indefinite" keyTimes="0;1" keyPoints="0;1" dur="10.638297872340425s" begin="-8.47569601677182s">
    <mpath xlink:href="#path1"></mpath>
  </animateMotion>
</use><path stroke="none" fill="none" d="M 318.7153789145889 229.15926809458546
c 0 53.465534434127996 -13.081992467924934 15.357121592781445 -28.43911406070638 15.357121592781445
S 261.8371507931761 282.6248025287135 261.8371507931761 229.15926809458546
s 13.081992467924934 -15.357121592781445 28.43911406070638 -15.357121592781445
S 318.7153789145889 175.69373366045747 318.7153789145889 229.15926809458546
z" id="path2"></path>
<use stroke="var(--accent)" y="0" x="0" xlink:href="#path-1mup4zi39bw-2">
  <animateMotion calcMode="linear" repeatCount="indefinite" keyTimes="0;1" keyPoints="1;0" dur="10.638297872340425s" begin="-1.8304167399517886s">
    <mpath xlink:href="#path2"></mpath>
  </animateMotion>
</use><path stroke="none" fill="none" d="M 407.397723684408 414.1620867667399
c 0 49.70471279842915 -12.161791429402875 14.276885591038159 -26.438677020441034 14.276885591038159
S 354.5203696435259 463.86679956516906 354.5203696435259 414.1620867667399
s 12.161791429402875 -14.276885591038159 26.438677020441034 -14.276885591038159
S 407.397723684408 364.4573739683107 407.397723684408 414.1620867667399
z" id="path3"></path>
<use stroke="var(--primary)" y="0" x="0" xlink:href="#path-1mup4zi39bw-3">
  <animateMotion calcMode="linear" repeatCount="indefinite" keyTimes="0;1" keyPoints="1;0" dur="10.638297872340425s" begin="-9.527840922057818s">
    <mpath xlink:href="#path3"></mpath>
  </animateMotion>
</use><path stroke="none" fill="none" d="M 456.70708005006725 751.8607833452899
c 0 23.07466292807652 -5.645928163252765 6.627828713383681 -12.273756876636446 6.627828713383681
S 432.1595662967943 774.9354462733663 432.1595662967943 751.8607833452899
s 5.645928163252765 -6.627828713383681 12.273756876636446 -6.627828713383681
S 456.70708005006725 728.7861204172134 456.70708005006725 751.8607833452899
z" id="path4"></path>
<use stroke="var(--accent)" y="0" x="0" xlink:href="#path-1mup4zi39bw-1">
  <animateMotion calcMode="linear" repeatCount="indefinite" keyTimes="0;1" keyPoints="0;1" dur="10.638297872340425s" begin="-2.0567831336487736s">
    <mpath xlink:href="#path4"></mpath>
  </animateMotion>
</use><path stroke="none" fill="none" d="M 576.1084462486314 204.78965808744624
c 0 41.763864517425716 -10.218817913838206 11.996003637983984 -22.21482155182219 11.996003637983984
S 531.678803144987 246.55352260487194 531.678803144987 204.78965808744624
s 10.218817913838206 -11.996003637983984 22.21482155182219 -11.996003637983984
S 576.1084462486314 163.02579357002054 576.1084462486314 204.78965808744624
z" id="path5"></path>
<use stroke="var(--secondary)" y="0" x="0" xlink:href="#path-1mup4zi39bw-3">
  <animateMotion calcMode="linear" repeatCount="indefinite" keyTimes="0;1" keyPoints="0;1" dur="10.638297872340425s" begin="-0.9508626291992321s">
    <mpath xlink:href="#path5"></mpath>
  </animateMotion>
</use><path stroke="none" fill="none" d="M 673.9446942931771 270.1557531585484
c 0 34.83659718570783 -8.523848247566809 10.006256638447994 -18.5301048860148 10.006256638447994
S 636.8844845211476 304.99235034425624 636.8844845211476 270.1557531585484
s 8.523848247566809 -10.006256638447994 18.5301048860148 -10.006256638447994
S 673.9446942931771 235.31915597284058 673.9446942931771 270.1557531585484
z" id="path6"></path>
<use stroke="var(--accent)" y="0" x="0" xlink:href="#path-1mup4zi39bw-1">
  <animateMotion calcMode="linear" repeatCount="indefinite" keyTimes="0;1" keyPoints="0;1" dur="10.638297872340425s" begin="-9.936653191247727s">
    <mpath xlink:href="#path6"></mpath>
  </animateMotion>
</use><path stroke="none" fill="none" d="M 763.499160878417 187.13176172692638
c 0 43.57621044386916 -10.662264257542454 12.516571084941141 -23.178835342483595 12.516571084941141
S 717.1414901934498 230.70797217079553 717.1414901934498 187.13176172692638
s 10.662264257542454 -12.516571084941141 23.178835342483595 -12.516571084941141
S 763.499160878417 143.55555128305724 763.499160878417 187.13176172692638
z" id="path7"></path>
<use stroke="var(--accent)" y="0" x="0" xlink:href="#path-1mup4zi39bw-3">
  <animateMotion calcMode="linear" repeatCount="indefinite" keyTimes="0;1" keyPoints="1;0" dur="10.638297872340425s" begin="-7.059928985456878s">
    <mpath xlink:href="#path7"></mpath>
  </animateMotion>
</use><path stroke="none" fill="none" d="M 824.0109711023589 891.3080189641663
c 0 61.763481995371926 -15.11234133929313 17.740574615691937 -32.852915954985065 17.740574615691937
S 758.3051391923888 953.0715009595382 758.3051391923888 891.3080189641663
s 15.11234133929313 -17.740574615691937 32.852915954985065 -17.740574615691937
S 824.0109711023589 829.5445369687944 824.0109711023589 891.3080189641663
z" id="path8"></path>
<use stroke="var(--secondary)" y="0" x="0" xlink:href="#path-1mup4zi39bw-3">
  <animateMotion calcMode="linear" repeatCount="indefinite" keyTimes="0;1" keyPoints="0;1" dur="10.638297872340425s" begin="-7.9456975736488s">
    <mpath xlink:href="#path8"></mpath>
  </animateMotion>
</use><path stroke="none" fill="none" d="M 957.2833140981035 322.41842485345893
c 0 47.9336730071372 -11.728451906001654 13.768182672262814 -25.49663457826447 13.768182672262814
S 906.2900449415746 370.35209786059613 906.2900449415746 322.41842485345893
s 11.728451906001654 -13.768182672262814 25.49663457826447 -13.768182672262814
S 957.2833140981035 274.4847518463217 957.2833140981035 322.41842485345893
z" id="path9"></path>
<use stroke="var(--accent)" y="0" x="0" xlink:href="#path-1mup4zi39bw-2">
  <animateMotion calcMode="linear" repeatCount="indefinite" keyTimes="0;1" keyPoints="0;1" dur="10.638297872340425s" begin="-7.14254721599611s">
    <mpath xlink:href="#path9"></mpath>
  </animateMotion>
</use><path stroke="none" fill="none" d="M 1059.5318197562185 246.81323902481319
c 0 19.494717709885258 -4.769984120503839 5.599546576243639 -10.369530696747479 5.599546576243639
S 1038.7927583627236 266.30795673469845 1038.7927583627236 246.81323902481319
s 4.769984120503839 -5.599546576243639 10.369530696747479 -5.599546576243639
S 1059.5318197562185 227.31852131492792 1059.5318197562185 246.81323902481319
z" id="path10"></path>
<use stroke="var(--primary)" y="0" x="0" xlink:href="#path-1mup4zi39bw-2">
  <animateMotion calcMode="linear" repeatCount="indefinite" keyTimes="0;1" keyPoints="1;0" dur="10.638297872340425s" begin="-7.708386174345705s">
    <mpath xlink:href="#path10"></mpath>
  </animateMotion>
</use><path stroke="none" fill="none" d="M 1109.8692372667565 500.0086685026149
c 0 55.334713808870184 -13.53934486812781 15.894013540845693 -29.433358408973504 15.894013540845693
S 1051.0025204488097 555.3433823114851 1051.0025204488097 500.0086685026149
s 13.53934486812781 -15.894013540845693 29.433358408973504 -15.894013540845693
S 1109.8692372667565 444.67395469374475 1109.8692372667565 500.0086685026149
z" id="path11"></path>
<use stroke="var(--secondary)" y="0" x="0" xlink:href="#path-1mup4zi39bw-1">
  <animateMotion calcMode="linear" repeatCount="indefinite" keyTimes="0;1" keyPoints="1;0" dur="10.638297872340425s" begin="-4.515289111154754s">
    <mpath xlink:href="#path11"></mpath>
  </animateMotion>
</use><path stroke="none" fill="none" d="M 1203.7931828668168 534.7316190260287
c 0 41.568079681845155 -10.170913113642962 11.939767568189566 -22.110680681832527 11.939767568189566
S 1159.5718215031518 576.2996987078739 1159.5718215031518 534.7316190260287
s 10.170913113642962 -11.939767568189566 22.110680681832527 -11.939767568189566
S 1203.7931828668168 493.16353934418356 1203.7931828668168 534.7316190260287
z" id="path12"></path>
<use stroke="var(--primary)" y="0" x="0" xlink:href="#path-1mup4zi39bw-3">
  <animateMotion calcMode="linear" repeatCount="indefinite" keyTimes="0;1" keyPoints="0;1" dur="10.638297872340425s" begin="-2.8325069744069444s">
    <mpath xlink:href="#path12"></mpath>
  </animateMotion>
</use><path stroke="none" fill="none" d="M 1310.7840255782487 83.43648616773069
c 0 32.40484839854553 -7.9288458847505 9.307775603837547 -17.236621488588046 9.307775603837547
S 1276.3107826010726 115.84133456627623 1276.3107826010726 83.43648616773069
s 7.9288458847505 -9.307775603837547 17.236621488588046 -9.307775603837547
S 1310.7840255782487 51.03163776918516 1310.7840255782487 83.43648616773069
z" id="path13"></path>
<use stroke="var(--accent)" y="0" x="0" xlink:href="#path-1mup4zi39bw-1">
  <animateMotion calcMode="linear" repeatCount="indefinite" keyTimes="0;1" keyPoints="0;1" dur="10.638297872340425s" begin="-0.9271922041901518s">
    <mpath xlink:href="#path13"></mpath>
  </animateMotion>
</use><path stroke="none" fill="none" d="M 1427.298163211948 381.285974508101
c 0 26.53288588068071 -6.492089098464428 7.621148072110416 -14.113237170574845 7.621148072110416
S 1399.0716888707982 407.8188603887817 1399.0716888707982 381.285974508101
s 6.492089098464428 -7.621148072110416 14.113237170574845 -7.621148072110416
S 1427.298163211948 354.7530886274203 1427.298163211948 381.285974508101
z" id="path14"></path>
<use stroke="var(--primary)" y="0" x="0" xlink:href="#path-1mup4zi39bw-2">
  <animateMotion calcMode="linear" repeatCount="indefinite" keyTimes="0;1" keyPoints="0;1" dur="10.638297872340425s" begin="-1.8530435582684552s">
    <mpath xlink:href="#path14"></mpath>
  </animateMotion>
</use><path stroke="none" fill="none" d="M 1478.0481445855553 675.3356952255057
c 0 40.355828246660515 -9.874298400778635 11.591567687870572 -21.465866088649207 11.591567687870572
S 1435.116412408257 715.6915234721662 1435.116412408257 675.3356952255057
s 9.874298400778635 -11.591567687870572 21.465866088649207 -11.591567687870572
S 1478.0481445855553 634.9798669788452 1478.0481445855553 675.3356952255057
z" id="path15"></path>
<use stroke="var(--primary)" y="0" x="0" xlink:href="#path-1mup4zi39bw-1">
  <animateMotion calcMode="linear" repeatCount="indefinite" keyTimes="0;1" keyPoints="0;1" dur="10.638297872340425s" begin="-3.5435640390396297s">
    <mpath xlink:href="#path15"></mpath>
  </animateMotion>
</use><path stroke="none" fill="none" d="M 1587.2375941345442 205.38623908684445
c 0 41.04263567826224 -10.04234702765991 11.788842162905114 -21.831189190565023 11.788842162905114
S 1543.575215753414 246.42887476510668 1543.575215753414 205.38623908684445
s 10.04234702765991 -11.788842162905114 21.831189190565023 -11.788842162905114
S 1587.2375941345442 164.34360340858223 1587.2375941345442 205.38623908684445
z" id="path16"></path>
<use stroke="var(--secondary)" y="0" x="0" xlink:href="#path-1mup4zi39bw-2">
  <animateMotion calcMode="linear" repeatCount="indefinite" keyTimes="0;1" keyPoints="1;0" dur="10.638297872340425s" begin="-3.4176506042875503s">
    <mpath xlink:href="#path16"></mpath>
  </animateMotion>
</use><path stroke="none" fill="none" d="M 1692.8281692070082 24.219555542029365
c 0 38.25848273747841 -9.361118116617057 10.989138658637417 -20.350256775254472 10.989138658637417
S 1652.1276556564994 62.47803827950777 1652.1276556564994 24.219555542029365
s 9.361118116617057 -10.989138658637417 20.350256775254472 -10.989138658637417
S 1692.8281692070082 -14.038927195449045 1692.8281692070082 24.219555542029365
z" id="path17"></path>
<use stroke="var(--accent)" y="0" x="0" xlink:href="#path-1mup4zi39bw-1">
  <animateMotion calcMode="linear" repeatCount="indefinite" keyTimes="0;1" keyPoints="0;1" dur="10.638297872340425s" begin="-4.70622516619664s">
    <mpath xlink:href="#path17"></mpath>
  </animateMotion>
</use><g></g></g><!-- [ldio] generated by https://loading.io --></svg>