<svg xmlns="http://www.w3.org/2000/svg" viewBox="0 0 2221 928" preserveAspectRatio="xMidYMid" width="100%" height="100%" style="shape-rendering: auto; display: block; background: rgba(255, 255, 255, 0);" xmlns:xlink="http://www.w3.org/1999/xlink"><g><g><path fill="var(--primary)" d="M-370.17 -351.66A185.08 185.08 0 0 1 0 -351.66A185.08 185.08 0 0 1 370.17 -351.66A185.08 185.08 0 0 1 740.33 -351.66A185.08 185.08 0 0 1 1110.50 -351.66A185.08 185.08 0 0 1 1480.67 -351.66A185.08 185.08 0 0 1 1850.83 -351.66A185.08 185.08 0 0 1 2221 -351.66A185.08 185.08 0 0 1 2591.17 -351.66L-370.17 -351.66">
<animateTransform values="0 0;185.08333333333334 0;0 0;-185.08333333333334 0;0 0" keyTimes="0;0.25;0.5;0.75;1" keySplines="0.3 0 0.7 1;0.3 0 0.7 1;0.3 0 0.7 1;0.3 0 0.7 1" calcMode="spline" repeatCount="indefinite" begin="0s" dur="10s" type="translate" attributeName="transform"></animateTransform>
</path>
<animateTransform values="0 0;0 18.508333333333333;0 0;0 -18.508333333333333;0 0" keyTimes="0;0.25;0.5;0.75;1" keySplines="0.5 0 0.5 1;0.5 0 0.5 1;0.5 0 0.5 1;0.5 0 0.5 1" calcMode="spline" repeatCount="indefinite" begin="0s" dur="3.3333333333333335s" type="translate" attributeName="transform"></animateTransform>
</g><g><path fill="var(--secondary)" d="M-185.08 -277.63A185.08 185.08 0 0 1 185.08 -277.63A185.08 185.08 0 0 1 555.25 -277.63A185.08 185.08 0 0 1 925.42 -277.63A185.08 185.08 0 0 1 1295.58 -277.63A185.08 185.08 0 0 1 1665.75 -277.63A185.08 185.08 0 0 1 2035.92 -277.63A185.08 185.08 0 0 1 2406.08 -277.63A185.08 185.08 0 0 1 2776.25 -277.63L-185.08 -277.63">
<animateTransform values="0 0;185.08333333333334 0;0 0;-185.08333333333334 0;0 0" keyTimes="0;0.25;0.5;0.75;1" keySplines="0.3 0 0.7 1;0.3 0 0.7 1;0.3 0 0.7 1;0.3 0 0.7 1" calcMode="spline" repeatCount="indefinite" begin="-0.5263157894736842s" dur="10s" type="translate" attributeName="transform"></animateTransform>
</path>
<animateTransform values="0 0;0 18.508333333333333;0 0;0 -18.508333333333333;0 0" keyTimes="0;0.25;0.5;0.75;1" keySplines="0.5 0 0.5 1;0.5 0 0.5 1;0.5 0 0.5 1;0.5 0 0.5 1" calcMode="spline" repeatCount="indefinite" begin="-0.5263157894736842s" dur="3.3333333333333335s" type="translate" attributeName="transform"></animateTransform>
</g><g><path fill="var(--accent)" d="M-370.17 -203.59A185.08 185.08 0 0 1 0 -203.59A185.08 185.08 0 0 1 370.17 -203.59A185.08 185.08 0 0 1 740.33 -203.59A185.08 185.08 0 0 1 1110.50 -203.59A185.08 185.08 0 0 1 1480.67 -203.59A185.08 185.08 0 0 1 1850.83 -203.59A185.08 185.08 0 0 1 2221 -203.59A185.08 185.08 0 0 1 2591.17 -203.59L-370.17 -203.59">
<animateTransform values="0 0;185.08333333333334 0;0 0;-185.08333333333334 0;0 0" keyTimes="0;0.25;0.5;0.75;1" keySplines="0.3 0 0.7 1;0.3 0 0.7 1;0.3 0 0.7 1;0.3 0 0.7 1" calcMode="spline" repeatCount="indefinite" begin="-1.0526315789473684s" dur="10s" type="translate" attributeName="transform"></animateTransform>
</path>
<animateTransform values="0 0;0 18.508333333333333;0 0;0 -18.508333333333333;0 0" keyTimes="0;0.25;0.5;0.75;1" keySplines="0.5 0 0.5 1;0.5 0 0.5 1;0.5 0 0.5 1;0.5 0 0.5 1" calcMode="spline" repeatCount="indefinite" begin="-1.0526315789473684s" dur="3.3333333333333335s" type="translate" attributeName="transform"></animateTransform>
</g><g><path fill="var(--muted-foreground)" d="M-185.08 -129.56A185.08 185.08 0 0 1 185.08 -129.56A185.08 185.08 0 0 1 555.25 -129.56A185.08 185.08 0 0 1 925.42 -129.56A185.08 185.08 0 0 1 1295.58 -129.56A185.08 185.08 0 0 1 1665.75 -129.56A185.08 185.08 0 0 1 2035.92 -129.56A185.08 185.08 0 0 1 2406.08 -129.56A185.08 185.08 0 0 1 2776.25 -129.56L-185.08 -129.56">
<animateTransform values="0 0;185.08333333333334 0;0 0;-185.08333333333334 0;0 0" keyTimes="0;0.25;0.5;0.75;1" keySplines="0.3 0 0.7 1;0.3 0 0.7 1;0.3 0 0.7 1;0.3 0 0.7 1" calcMode="spline" repeatCount="indefinite" begin="-1.5789473684210527s" dur="10s" type="translate" attributeName="transform"></animateTransform>
</path>
<animateTransform values="0 0;0 18.508333333333333;0 0;0 -18.508333333333333;0 0" keyTimes="0;0.25;0.5;0.75;1" keySplines="0.5 0 0.5 1;0.5 0 0.5 1;0.5 0 0.5 1;0.5 0 0.5 1" calcMode="spline" repeatCount="indefinite" begin="-1.5789473684210527s" dur="3.3333333333333335s" type="translate" attributeName="transform"></animateTransform>
</g><g><path fill="var(--foreground)" d="M-370.17 -55.53A185.08 185.08 0 0 1 0 -55.53A185.08 185.08 0 0 1 370.17 -55.53A185.08 185.08 0 0 1 740.33 -55.53A185.08 185.08 0 0 1 1110.50 -55.53A185.08 185.08 0 0 1 1480.67 -55.53A185.08 185.08 0 0 1 1850.83 -55.53A185.08 185.08 0 0 1 2221 -55.53A185.08 185.08 0 0 1 2591.17 -55.53L-370.17 -55.53">
<animateTransform values="0 0;185.08333333333334 0;0 0;-185.08333333333334 0;0 0" keyTimes="0;0.25;0.5;0.75;1" keySplines="0.3 0 0.7 1;0.3 0 0.7 1;0.3 0 0.7 1;0.3 0 0.7 1" calcMode="spline" repeatCount="indefinite" begin="-2.1052631578947367s" dur="10s" type="translate" attributeName="transform"></animateTransform>
</path>
<animateTransform values="0 0;0 18.508333333333333;0 0;0 -18.508333333333333;0 0" keyTimes="0;0.25;0.5;0.75;1" keySplines="0.5 0 0.5 1;0.5 0 0.5 1;0.5 0 0.5 1;0.5 0 0.5 1" calcMode="spline" repeatCount="indefinite" begin="-2.1052631578947367s" dur="3.3333333333333335s" type="translate" attributeName="transform"></animateTransform>
</g><g><path fill="var(--card)" d="M-185.08 18.51A185.08 185.08 0 0 1 185.08 18.51A185.08 185.08 0 0 1 555.25 18.51A185.08 185.08 0 0 1 925.42 18.51A185.08 185.08 0 0 1 1295.58 18.51A185.08 185.08 0 0 1 1665.75 18.51A185.08 185.08 0 0 1 2035.92 18.51A185.08 185.08 0 0 1 2406.08 18.51A185.08 185.08 0 0 1 2776.25 18.51L-185.08 18.51">
<animateTransform values="0 0;185.08333333333334 0;0 0;-185.08333333333334 0;0 0" keyTimes="0;0.25;0.5;0.75;1" keySplines="0.3 0 0.7 1;0.3 0 0.7 1;0.3 0 0.7 1;0.3 0 0.7 1" calcMode="spline" repeatCount="indefinite" begin="-2.6315789473684212s" dur="10s" type="translate" attributeName="transform"></animateTransform>
</path>
<animateTransform values="0 0;0 18.508333333333333;0 0;0 -18.508333333333333;0 0" keyTimes="0;0.25;0.5;0.75;1" keySplines="0.5 0 0.5 1;0.5 0 0.5 1;0.5 0 0.5 1;0.5 0 0.5 1" calcMode="spline" repeatCount="indefinite" begin="-2.6315789473684212s" dur="3.3333333333333335s" type="translate" attributeName="transform"></animateTransform>
</g><g><path fill="var(--card-foreground)" d="M-370.17 92.54A185.08 185.08 0 0 1 0 92.54A185.08 185.08 0 0 1 370.17 92.54A185.08 185.08 0 0 1 740.33 92.54A185.08 185.08 0 0 1 1110.50 92.54A185.08 185.08 0 0 1 1480.67 92.54A185.08 185.08 0 0 1 1850.83 92.54A185.08 185.08 0 0 1 2221 92.54A185.08 185.08 0 0 1 2591.17 92.54L-370.17 92.54">
<animateTransform values="0 0;185.08333333333334 0;0 0;-185.08333333333334 0;0 0" keyTimes="0;0.25;0.5;0.75;1" keySplines="0.3 0 0.7 1;0.3 0 0.7 1;0.3 0 0.7 1;0.3 0 0.7 1" calcMode="spline" repeatCount="indefinite" begin="-3.1578947368421053s" dur="10s" type="translate" attributeName="transform"></animateTransform>
</path>
<animateTransform values="0 0;0 18.508333333333333;0 0;0 -18.508333333333333;0 0" keyTimes="0;0.25;0.5;0.75;1" keySplines="0.5 0 0.5 1;0.5 0 0.5 1;0.5 0 0.5 1;0.5 0 0.5 1" calcMode="spline" repeatCount="indefinite" begin="-3.1578947368421053s" dur="3.3333333333333335s" type="translate" attributeName="transform"></animateTransform>
</g><g><path fill="var(--muted)" d="M-185.08 166.57A185.08 185.08 0 0 1 185.08 166.57A185.08 185.08 0 0 1 555.25 166.57A185.08 185.08 0 0 1 925.42 166.57A185.08 185.08 0 0 1 1295.58 166.57A185.08 185.08 0 0 1 1665.75 166.57A185.08 185.08 0 0 1 2035.92 166.57A185.08 185.08 0 0 1 2406.08 166.57A185.08 185.08 0 0 1 2776.25 166.57L-185.08 166.57">
<animateTransform values="0 0;185.08333333333334 0;0 0;-185.08333333333334 0;0 0" keyTimes="0;0.25;0.5;0.75;1" keySplines="0.3 0 0.7 1;0.3 0 0.7 1;0.3 0 0.7 1;0.3 0 0.7 1" calcMode="spline" repeatCount="indefinite" begin="-3.6842105263157894s" dur="10s" type="translate" attributeName="transform"></animateTransform>
</path>
<animateTransform values="0 0;0 18.508333333333333;0 0;0 -18.508333333333333;0 0" keyTimes="0;0.25;0.5;0.75;1" keySplines="0.5 0 0.5 1;0.5 0 0.5 1;0.5 0 0.5 1;0.5 0 0.5 1" calcMode="spline" repeatCount="indefinite" begin="-3.6842105263157894s" dur="3.3333333333333335s" type="translate" attributeName="transform"></animateTransform>
</g><g><path fill="var(--primary)" d="M-370.17 240.61A185.08 185.08 0 0 1 0 240.61A185.08 185.08 0 0 1 370.17 240.61A185.08 185.08 0 0 1 740.33 240.61A185.08 185.08 0 0 1 1110.50 240.61A185.08 185.08 0 0 1 1480.67 240.61A185.08 185.08 0 0 1 1850.83 240.61A185.08 185.08 0 0 1 2221 240.61A185.08 185.08 0 0 1 2591.17 240.61L-370.17 240.61">
<animateTransform values="0 0;185.08333333333334 0;0 0;-185.08333333333334 0;0 0" keyTimes="0;0.25;0.5;0.75;1" keySplines="0.3 0 0.7 1;0.3 0 0.7 1;0.3 0 0.7 1;0.3 0 0.7 1" calcMode="spline" repeatCount="indefinite" begin="-4.2105263157894735s" dur="10s" type="translate" attributeName="transform"></animateTransform>
</path>
<animateTransform values="0 0;0 18.508333333333333;0 0;0 -18.508333333333333;0 0" keyTimes="0;0.25;0.5;0.75;1" keySplines="0.5 0 0.5 1;0.5 0 0.5 1;0.5 0 0.5 1;0.5 0 0.5 1" calcMode="spline" repeatCount="indefinite" begin="-4.2105263157894735s" dur="3.3333333333333335s" type="translate" attributeName="transform"></animateTransform>
</g><g><path fill="var(--secondary)" d="M-185.08 314.64A185.08 185.08 0 0 1 185.08 314.64A185.08 185.08 0 0 1 555.25 314.64A185.08 185.08 0 0 1 925.42 314.64A185.08 185.08 0 0 1 1295.58 314.64A185.08 185.08 0 0 1 1665.75 314.64A185.08 185.08 0 0 1 2035.92 314.64A185.08 185.08 0 0 1 2406.08 314.64A185.08 185.08 0 0 1 2776.25 314.64L-185.08 314.64">
<animateTransform values="0 0;185.08333333333334 0;0 0;-185.08333333333334 0;0 0" keyTimes="0;0.25;0.5;0.75;1" keySplines="0.3 0 0.7 1;0.3 0 0.7 1;0.3 0 0.7 1;0.3 0 0.7 1" calcMode="spline" repeatCount="indefinite" begin="-4.7368421052631575s" dur="10s" type="translate" attributeName="transform"></animateTransform>
</path>
<animateTransform values="0 0;0 18.508333333333333;0 0;0 -18.508333333333333;0 0" keyTimes="0;0.25;0.5;0.75;1" keySplines="0.5 0 0.5 1;0.5 0 0.5 1;0.5 0 0.5 1;0.5 0 0.5 1" calcMode="spline" repeatCount="indefinite" begin="-4.7368421052631575s" dur="3.3333333333333335s" type="translate" attributeName="transform"></animateTransform>
</g><g><path fill="var(--accent)" d="M-370.17 388.67A185.08 185.08 0 0 1 0 388.67A185.08 185.08 0 0 1 370.17 388.67A185.08 185.08 0 0 1 740.33 388.67A185.08 185.08 0 0 1 1110.50 388.67A185.08 185.08 0 0 1 1480.67 388.67A185.08 185.08 0 0 1 1850.83 388.67A185.08 185.08 0 0 1 2221 388.67A185.08 185.08 0 0 1 2591.17 388.67L-370.17 388.67">
<animateTransform values="0 0;185.08333333333334 0;0 0;-185.08333333333334 0;0 0" keyTimes="0;0.25;0.5;0.75;1" keySplines="0.3 0 0.7 1;0.3 0 0.7 1;0.3 0 0.7 1;0.3 0 0.7 1" calcMode="spline" repeatCount="indefinite" begin="-5.2631578947368425s" dur="10s" type="translate" attributeName="transform"></animateTransform>
</path>
<animateTransform values="0 0;0 18.508333333333333;0 0;0 -18.508333333333333;0 0" keyTimes="0;0.25;0.5;0.75;1" keySplines="0.5 0 0.5 1;0.5 0 0.5 1;0.5 0 0.5 1;0.5 0 0.5 1" calcMode="spline" repeatCount="indefinite" begin="-5.2631578947368425s" dur="3.3333333333333335s" type="translate" attributeName="transform"></animateTransform>
</g><g><path fill="var(--muted-foreground)" d="M-185.08 462.71A185.08 185.08 0 0 1 185.08 462.71A185.08 185.08 0 0 1 555.25 462.71A185.08 185.08 0 0 1 925.42 462.71A185.08 185.08 0 0 1 1295.58 462.71A185.08 185.08 0 0 1 1665.75 462.71A185.08 185.08 0 0 1 2035.92 462.71A185.08 185.08 0 0 1 2406.08 462.71A185.08 185.08 0 0 1 2776.25 462.71L-185.08 462.71">
<animateTransform values="0 0;185.08333333333334 0;0 0;-185.08333333333334 0;0 0" keyTimes="0;0.25;0.5;0.75;1" keySplines="0.3 0 0.7 1;0.3 0 0.7 1;0.3 0 0.7 1;0.3 0 0.7 1" calcMode="spline" repeatCount="indefinite" begin="-5.7894736842105265s" dur="10s" type="translate" attributeName="transform"></animateTransform>
</path>
<animateTransform values="0 0;0 18.508333333333333;0 0;0 -18.508333333333333;0 0" keyTimes="0;0.25;0.5;0.75;1" keySplines="0.5 0 0.5 1;0.5 0 0.5 1;0.5 0 0.5 1;0.5 0 0.5 1" calcMode="spline" repeatCount="indefinite" begin="-5.7894736842105265s" dur="3.3333333333333335s" type="translate" attributeName="transform"></animateTransform>
</g><g><path fill="var(--foreground)" d="M-370.17 536.74A185.08 185.08 0 0 1 0 536.74A185.08 185.08 0 0 1 370.17 536.74A185.08 185.08 0 0 1 740.33 536.74A185.08 185.08 0 0 1 1110.50 536.74A185.08 185.08 0 0 1 1480.67 536.74A185.08 185.08 0 0 1 1850.83 536.74A185.08 185.08 0 0 1 2221 536.74A185.08 185.08 0 0 1 2591.17 536.74L-370.17 536.74">
<animateTransform values="0 0;185.08333333333334 0;0 0;-185.08333333333334 0;0 0" keyTimes="0;0.25;0.5;0.75;1" keySplines="0.3 0 0.7 1;0.3 0 0.7 1;0.3 0 0.7 1;0.3 0 0.7 1" calcMode="spline" repeatCount="indefinite" begin="-6.315789473684211s" dur="10s" type="translate" attributeName="transform"></animateTransform>
</path>
<animateTransform values="0 0;0 18.508333333333333;0 0;0 -18.508333333333333;0 0" keyTimes="0;0.25;0.5;0.75;1" keySplines="0.5 0 0.5 1;0.5 0 0.5 1;0.5 0 0.5 1;0.5 0 0.5 1" calcMode="spline" repeatCount="indefinite" begin="-6.315789473684211s" dur="3.3333333333333335s" type="translate" attributeName="transform"></animateTransform>
</g><g><path fill="var(--card)" d="M-185.08 610.77A185.08 185.08 0 0 1 185.08 610.77A185.08 185.08 0 0 1 555.25 610.77A185.08 185.08 0 0 1 925.42 610.77A185.08 185.08 0 0 1 1295.58 610.77A185.08 185.08 0 0 1 1665.75 610.77A185.08 185.08 0 0 1 2035.92 610.77A185.08 185.08 0 0 1 2406.08 610.77A185.08 185.08 0 0 1 2776.25 610.77L-185.08 610.77">
<animateTransform values="0 0;185.08333333333334 0;0 0;-185.08333333333334 0;0 0" keyTimes="0;0.25;0.5;0.75;1" keySplines="0.3 0 0.7 1;0.3 0 0.7 1;0.3 0 0.7 1;0.3 0 0.7 1" calcMode="spline" repeatCount="indefinite" begin="-6.842105263157895s" dur="10s" type="translate" attributeName="transform"></animateTransform>
</path>
<animateTransform values="0 0;0 18.508333333333333;0 0;0 -18.508333333333333;0 0" keyTimes="0;0.25;0.5;0.75;1" keySplines="0.5 0 0.5 1;0.5 0 0.5 1;0.5 0 0.5 1;0.5 0 0.5 1" calcMode="spline" repeatCount="indefinite" begin="-6.842105263157895s" dur="3.3333333333333335s" type="translate" attributeName="transform"></animateTransform>
</g><g><path fill="var(--card-foreground)" d="M-370.17 684.81A185.08 185.08 0 0 1 0 684.81A185.08 185.08 0 0 1 370.17 684.81A185.08 185.08 0 0 1 740.33 684.81A185.08 185.08 0 0 1 1110.50 684.81A185.08 185.08 0 0 1 1480.67 684.81A185.08 185.08 0 0 1 1850.83 684.81A185.08 185.08 0 0 1 2221 684.81A185.08 185.08 0 0 1 2591.17 684.81L-370.17 684.81">
<animateTransform values="0 0;185.08333333333334 0;0 0;-185.08333333333334 0;0 0" keyTimes="0;0.25;0.5;0.75;1" keySplines="0.3 0 0.7 1;0.3 0 0.7 1;0.3 0 0.7 1;0.3 0 0.7 1" calcMode="spline" repeatCount="indefinite" begin="-7.368421052631579s" dur="10s" type="translate" attributeName="transform"></animateTransform>
</path>
<animateTransform values="0 0;0 18.508333333333333;0 0;0 -18.508333333333333;0 0" keyTimes="0;0.25;0.5;0.75;1" keySplines="0.5 0 0.5 1;0.5 0 0.5 1;0.5 0 0.5 1;0.5 0 0.5 1" calcMode="spline" repeatCount="indefinite" begin="-7.368421052631579s" dur="3.3333333333333335s" type="translate" attributeName="transform"></animateTransform>
</g><g><path fill="var(--muted)" d="M-185.08 758.84A185.08 185.08 0 0 1 185.08 758.84A185.08 185.08 0 0 1 555.25 758.84A185.08 185.08 0 0 1 925.42 758.84A185.08 185.08 0 0 1 1295.58 758.84A185.08 185.08 0 0 1 1665.75 758.84A185.08 185.08 0 0 1 2035.92 758.84A185.08 185.08 0 0 1 2406.08 758.84A185.08 185.08 0 0 1 2776.25 758.84L-185.08 758.84">
<animateTransform values="0 0;185.08333333333334 0;0 0;-185.08333333333334 0;0 0" keyTimes="0;0.25;0.5;0.75;1" keySplines="0.3 0 0.7 1;0.3 0 0.7 1;0.3 0 0.7 1;0.3 0 0.7 1" calcMode="spline" repeatCount="indefinite" begin="-7.894736842105263s" dur="10s" type="translate" attributeName="transform"></animateTransform>
</path>
<animateTransform values="0 0;0 18.508333333333333;0 0;0 -18.508333333333333;0 0" keyTimes="0;0.25;0.5;0.75;1" keySplines="0.5 0 0.5 1;0.5 0 0.5 1;0.5 0 0.5 1;0.5 0 0.5 1" calcMode="spline" repeatCount="indefinite" begin="-7.894736842105263s" dur="3.3333333333333335s" type="translate" attributeName="transform"></animateTransform>
</g><g><path fill="var(--primary)" d="M-370.17 832.87A185.08 185.08 0 0 1 0 832.87A185.08 185.08 0 0 1 370.17 832.87A185.08 185.08 0 0 1 740.33 832.87A185.08 185.08 0 0 1 1110.50 832.87A185.08 185.08 0 0 1 1480.67 832.87A185.08 185.08 0 0 1 1850.83 832.87A185.08 185.08 0 0 1 2221 832.87A185.08 185.08 0 0 1 2591.17 832.87L-370.17 832.87">
<animateTransform values="0 0;185.08333333333334 0;0 0;-185.08333333333334 0;0 0" keyTimes="0;0.25;0.5;0.75;1" keySplines="0.3 0 0.7 1;0.3 0 0.7 1;0.3 0 0.7 1;0.3 0 0.7 1" calcMode="spline" repeatCount="indefinite" begin="-8.421052631578947s" dur="10s" type="translate" attributeName="transform"></animateTransform>
</path>
<animateTransform values="0 0;0 18.508333333333333;0 0;0 -18.508333333333333;0 0" keyTimes="0;0.25;0.5;0.75;1" keySplines="0.5 0 0.5 1;0.5 0 0.5 1;0.5 0 0.5 1;0.5 0 0.5 1" calcMode="spline" repeatCount="indefinite" begin="-8.421052631578947s" dur="3.3333333333333335s" type="translate" attributeName="transform"></animateTransform>
</g><g><path fill="var(--secondary)" d="M-185.08 906.91A185.08 185.08 0 0 1 185.08 906.91A185.08 185.08 0 0 1 555.25 906.91A185.08 185.08 0 0 1 925.42 906.91A185.08 185.08 0 0 1 1295.58 906.91A185.08 185.08 0 0 1 1665.75 906.91A185.08 185.08 0 0 1 2035.92 906.91A185.08 185.08 0 0 1 2406.08 906.91A185.08 185.08 0 0 1 2776.25 906.91L-185.08 906.91">
<animateTransform values="0 0;185.08333333333334 0;0 0;-185.08333333333334 0;0 0" keyTimes="0;0.25;0.5;0.75;1" keySplines="0.3 0 0.7 1;0.3 0 0.7 1;0.3 0 0.7 1;0.3 0 0.7 1" calcMode="spline" repeatCount="indefinite" begin="-8.947368421052632s" dur="10s" type="translate" attributeName="transform"></animateTransform>
</path>
<animateTransform values="0 0;0 18.508333333333333;0 0;0 -18.508333333333333;0 0" keyTimes="0;0.25;0.5;0.75;1" keySplines="0.5 0 0.5 1;0.5 0 0.5 1;0.5 0 0.5 1;0.5 0 0.5 1" calcMode="spline" repeatCount="indefinite" begin="-8.947368421052632s" dur="3.3333333333333335s" type="translate" attributeName="transform"></animateTransform>
</g><g><path fill="var(--accent)" d="M-370.17 980.94A185.08 185.08 0 0 1 0 980.94A185.08 185.08 0 0 1 370.17 980.94A185.08 185.08 0 0 1 740.33 980.94A185.08 185.08 0 0 1 1110.50 980.94A185.08 185.08 0 0 1 1480.67 980.94A185.08 185.08 0 0 1 1850.83 980.94A185.08 185.08 0 0 1 2221 980.94A185.08 185.08 0 0 1 2591.17 980.94L-370.17 980.94">
<animateTransform values="0 0;185.08333333333334 0;0 0;-185.08333333333334 0;0 0" keyTimes="0;0.25;0.5;0.75;1" keySplines="0.3 0 0.7 1;0.3 0 0.7 1;0.3 0 0.7 1;0.3 0 0.7 1" calcMode="spline" repeatCount="indefinite" begin="-9.473684210526315s" dur="10s" type="translate" attributeName="transform"></animateTransform>
</path>
<animateTransform values="0 0;0 18.508333333333333;0 0;0 -18.508333333333333;0 0" keyTimes="0;0.25;0.5;0.75;1" keySplines="0.5 0 0.5 1;0.5 0 0.5 1;0.5 0 0.5 1;0.5 0 0.5 1" calcMode="spline" repeatCount="indefinite" begin="-9.473684210526315s" dur="3.3333333333333335s" type="translate" attributeName="transform"></animateTransform>
</g><g></g></g><!-- [ldio] generated by https://loading.io --></svg>