<svg xmlns="http://www.w3.org/2000/svg" viewBox="0 0 1742 928" preserveAspectRatio="xMidYMid" width="100%" height="100%" style="shape-rendering: auto; display: block; background: rgba(255, 163, 0, 0);" xmlns:xlink="http://www.w3.org/1999/xlink"><g><g transform="translate(871 464)"><g><path fill="var(--primary)" d="M0 0L1306.5 0 L1227.7084090567894 446.84931725498615 Z"></path><path fill="var(--primary)" d="M0 0L1000.8370649349448 839.8020120554635 L653.2500000000001 1131.462190044369 Z"></path><path fill="var(--primary)" d="M0 0L226.87134412184457 1286.6513293104497 L-226.87134412184443 1286.6513293104497 Z"></path><path fill="var(--primary)" d="M0 0L-653.2499999999997 1131.4621900443692 L-1000.8370649349446 839.8020120554638 Z"></path><path fill="var(--primary)" d="M0 0L-1227.7084090567892 446.8493172549864 L-1306.5 1.6000010430860169e-13 Z"></path><path fill="var(--primary)" d="M0 0L-1227.7084090567894 -446.8493172549861 L-1000.8370649349453 -839.8020120554631 Z"></path><path fill="var(--primary)" d="M0 0L-653.2500000000006 -1131.4621900443688 L-226.8713441218445 -1286.6513293104497 Z"></path><path fill="var(--primary)" d="M0 0L226.871344121844 -1286.65132931045 L653.2499999999991 -1131.4621900443697 Z"></path><path fill="var(--primary)" d="M0 0L1000.8370649349445 -839.8020120554639 L1227.7084090567894 -446.84931725498603 Z"></path><path stroke-width="0" stroke-linecap="round" stroke-linejoin="round" stroke="var(--secondary)" fill="var(--accent)" d="M348 0A66.81120376634294 66.81120376634294 0 0 0 327.01303203349613 119.02300987733271A66.81120376634294 66.81120376634294 0 0 0 266.58346620540436 223.69008817091566A66.81120376634294 66.81120376634294 0 0 0 174.00000000000003 301.37684051698466A66.81120376634294 66.81120376634294 0 0 0 60.42956582809178 342.7130980482484A66.81120376634294 66.81120376634294 0 0 0 -60.42956582809175 342.7130980482484A66.81120376634294 66.81120376634294 0 0 0 -173.99999999999991 301.37684051698466A66.81120376634294 66.81120376634294 0 0 0 -266.5834662054043 223.69008817091574A66.81120376634294 66.81120376634294 0 0 0 -327.0130320334961 119.02300987733277A66.81120376634294 66.81120376634294 0 0 0 -348 4.2617708610327895e-14A66.81120376634294 66.81120376634294 0 0 0 -327.01303203349613 -119.0230098773327A66.81120376634294 66.81120376634294 0 0 0 -266.5834662054045 -223.69008817091554A66.81120376634294 66.81120376634294 0 0 0 -174.00000000000014 -301.37684051698454A66.81120376634294 66.81120376634294 0 0 0 -60.429565828091754 -342.7130980482484A66.81120376634294 66.81120376634294 0 0 0 60.42956582809163 -342.7130980482484A66.81120376634294 66.81120376634294 0 0 0 173.99999999999977 -301.37684051698477A66.81120376634294 66.81120376634294 0 0 0 266.58346620540425 -223.69008817091577A66.81120376634294 66.81120376634294 0 0 0 327.01303203349613 -119.02300987733267A66.81120376634294 66.81120376634294 0 0 0 348 -8.523541722065579e-14"></path><animateTransform repeatCount="indefinite" dur="50s" keyTimes="0;1" values="0 0 0;80 0 0" type="rotate" attributeName="transform"></animateTransform>
</g>
</g><g></g></g><!-- [ldio] generated by https://loading.io --></svg>