<svg xmlns="http://www.w3.org/2000/svg" viewBox="0 0 2221 928" preserveAspectRatio="xMidYMid" width="100%" height="100%" style="shape-rendering: auto; display: block; background: rgba(122, 206, 255, 0);" xmlns:xlink="http://www.w3.org/1999/xlink"><g><g transform="translate(-100 739.3519149350395) rotate(0)">
  <animateTransform begin="-488.9381565268193s" repeatCount="indefinite" dur="500s" values="-100 739.3519149350395;2221 739.3519149350395" keyTimes="0;1" type="translate" attributeName="transform"></animateTransform>
  <path transform="scale(0.55)" fill="var(--primary)" d="M84.717,33.597c0.791-2.503,1.186-5.138,1.186-7.773C85.903,11.594,74.308,0,60.079,0 c-9.881,0-18.445,5.534-22.793,13.702c-1.581-0.527-3.426-0.791-5.138-0.791c-9.486,0-17.128,7.642-17.128,17.128 c0,1.186,0.132,2.372,0.395,3.426C6.719,34.783,0,42.424,0,51.515C0,61.66,8.169,69.829,18.314,69.829h63.373 C91.831,69.829,100,61.66,100,51.515C99.868,42.556,93.281,35.046,84.717,33.597z"></path>
</g><g transform="translate(-100 383.771864011936) rotate(0)">
  <animateTransform begin="-117.4105500066232s" repeatCount="indefinite" dur="500s" values="-100 383.771864011936;2221 383.771864011936" keyTimes="0;1" type="translate" attributeName="transform"></animateTransform>
  <path transform="scale(0.55)" fill="var(--primary)" d="M84.717,33.597c0.791-2.503,1.186-5.138,1.186-7.773C85.903,11.594,74.308,0,60.079,0 c-9.881,0-18.445,5.534-22.793,13.702c-1.581-0.527-3.426-0.791-5.138-0.791c-9.486,0-17.128,7.642-17.128,17.128 c0,1.186,0.132,2.372,0.395,3.426C6.719,34.783,0,42.424,0,51.515C0,61.66,8.169,69.829,18.314,69.829h63.373 C91.831,69.829,100,61.66,100,51.515C99.868,42.556,93.281,35.046,84.717,33.597z"></path>
</g><g transform="translate(-100 595.3751356660091) rotate(0)">
  <animateTransform begin="-368.7822812141275s" repeatCount="indefinite" dur="500s" values="-100 595.3751356660091;2221 595.3751356660091" keyTimes="0;1" type="translate" attributeName="transform"></animateTransform>
  <path transform="scale(0.55)" fill="var(--primary)" d="M84.717,33.597c0.791-2.503,1.186-5.138,1.186-7.773C85.903,11.594,74.308,0,60.079,0 c-9.881,0-18.445,5.534-22.793,13.702c-1.581-0.527-3.426-0.791-5.138-0.791c-9.486,0-17.128,7.642-17.128,17.128 c0,1.186,0.132,2.372,0.395,3.426C6.719,34.783,0,42.424,0,51.515C0,61.66,8.169,69.829,18.314,69.829h63.373 C91.831,69.829,100,61.66,100,51.515C99.868,42.556,93.281,35.046,84.717,33.597z"></path>
</g><g transform="translate(-100 788.6057338694516) rotate(0)">
  <animateTransform begin="-464.04496821789314s" repeatCount="indefinite" dur="500s" values="-100 788.6057338694516;2221 788.6057338694516" keyTimes="0;1" type="translate" attributeName="transform"></animateTransform>
  <path transform="scale(0.55)" fill="var(--primary)" d="M84.717,33.597c0.791-2.503,1.186-5.138,1.186-7.773C85.903,11.594,74.308,0,60.079,0 c-9.881,0-18.445,5.534-22.793,13.702c-1.581-0.527-3.426-0.791-5.138-0.791c-9.486,0-17.128,7.642-17.128,17.128 c0,1.186,0.132,2.372,0.395,3.426C6.719,34.783,0,42.424,0,51.515C0,61.66,8.169,69.829,18.314,69.829h63.373 C91.831,69.829,100,61.66,100,51.515C99.868,42.556,93.281,35.046,84.717,33.597z"></path>
</g><g transform="translate(-100 746.6031958468384) rotate(0)">
  <animateTransform begin="-447.8085233367174s" repeatCount="indefinite" dur="500s" values="-100 746.6031958468384;2221 746.6031958468384" keyTimes="0;1" type="translate" attributeName="transform"></animateTransform>
  <path transform="scale(0.55)" fill="var(--primary)" d="M84.717,33.597c0.791-2.503,1.186-5.138,1.186-7.773C85.903,11.594,74.308,0,60.079,0 c-9.881,0-18.445,5.534-22.793,13.702c-1.581-0.527-3.426-0.791-5.138-0.791c-9.486,0-17.128,7.642-17.128,17.128 c0,1.186,0.132,2.372,0.395,3.426C6.719,34.783,0,42.424,0,51.515C0,61.66,8.169,69.829,18.314,69.829h63.373 C91.831,69.829,100,61.66,100,51.515C99.868,42.556,93.281,35.046,84.717,33.597z"></path>
</g><g transform="translate(-100 383.7295402687538) rotate(0)">
  <animateTransform begin="-244.3774481522179s" repeatCount="indefinite" dur="500s" values="-100 383.7295402687538;2221 383.7295402687538" keyTimes="0;1" type="translate" attributeName="transform"></animateTransform>
  <path transform="scale(0.55)" fill="var(--primary)" d="M84.717,33.597c0.791-2.503,1.186-5.138,1.186-7.773C85.903,11.594,74.308,0,60.079,0 c-9.881,0-18.445,5.534-22.793,13.702c-1.581-0.527-3.426-0.791-5.138-0.791c-9.486,0-17.128,7.642-17.128,17.128 c0,1.186,0.132,2.372,0.395,3.426C6.719,34.783,0,42.424,0,51.515C0,61.66,8.169,69.829,18.314,69.829h63.373 C91.831,69.829,100,61.66,100,51.515C99.868,42.556,93.281,35.046,84.717,33.597z"></path>
</g><g transform="translate(-100 766.4153863794561) rotate(0)">
  <animateTransform begin="-190.57939845747939s" repeatCount="indefinite" dur="500s" values="-100 766.4153863794561;2221 766.4153863794561" keyTimes="0;1" type="translate" attributeName="transform"></animateTransform>
  <path transform="scale(0.55)" fill="var(--primary)" d="M84.717,33.597c0.791-2.503,1.186-5.138,1.186-7.773C85.903,11.594,74.308,0,60.079,0 c-9.881,0-18.445,5.534-22.793,13.702c-1.581-0.527-3.426-0.791-5.138-0.791c-9.486,0-17.128,7.642-17.128,17.128 c0,1.186,0.132,2.372,0.395,3.426C6.719,34.783,0,42.424,0,51.515C0,61.66,8.169,69.829,18.314,69.829h63.373 C91.831,69.829,100,61.66,100,51.515C99.868,42.556,93.281,35.046,84.717,33.597z"></path>
</g><g transform="translate(-100 84.40185526074484) rotate(0)">
  <animateTransform begin="-388.82320435045426s" repeatCount="indefinite" dur="500s" values="-100 84.40185526074484;2221 84.40185526074484" keyTimes="0;1" type="translate" attributeName="transform"></animateTransform>
  <path transform="scale(0.55)" fill="var(--primary)" d="M84.717,33.597c0.791-2.503,1.186-5.138,1.186-7.773C85.903,11.594,74.308,0,60.079,0 c-9.881,0-18.445,5.534-22.793,13.702c-1.581-0.527-3.426-0.791-5.138-0.791c-9.486,0-17.128,7.642-17.128,17.128 c0,1.186,0.132,2.372,0.395,3.426C6.719,34.783,0,42.424,0,51.515C0,61.66,8.169,69.829,18.314,69.829h63.373 C91.831,69.829,100,61.66,100,51.515C99.868,42.556,93.281,35.046,84.717,33.597z"></path>
</g><g transform="translate(-100 877.6815188887604) rotate(0)">
  <animateTransform begin="-305.20283042559504s" repeatCount="indefinite" dur="500s" values="-100 877.6815188887604;2221 877.6815188887604" keyTimes="0;1" type="translate" attributeName="transform"></animateTransform>
  <path transform="scale(0.55)" fill="var(--primary)" d="M84.717,33.597c0.791-2.503,1.186-5.138,1.186-7.773C85.903,11.594,74.308,0,60.079,0 c-9.881,0-18.445,5.534-22.793,13.702c-1.581-0.527-3.426-0.791-5.138-0.791c-9.486,0-17.128,7.642-17.128,17.128 c0,1.186,0.132,2.372,0.395,3.426C6.719,34.783,0,42.424,0,51.515C0,61.66,8.169,69.829,18.314,69.829h63.373 C91.831,69.829,100,61.66,100,51.515C99.868,42.556,93.281,35.046,84.717,33.597z"></path>
</g><g transform="translate(-100 82.94564887030742) rotate(0)">
  <animateTransform begin="-417.0482267562225s" repeatCount="indefinite" dur="500s" values="-100 82.94564887030742;2221 82.94564887030742" keyTimes="0;1" type="translate" attributeName="transform"></animateTransform>
  <path transform="scale(0.55)" fill="var(--primary)" d="M84.717,33.597c0.791-2.503,1.186-5.138,1.186-7.773C85.903,11.594,74.308,0,60.079,0 c-9.881,0-18.445,5.534-22.793,13.702c-1.581-0.527-3.426-0.791-5.138-0.791c-9.486,0-17.128,7.642-17.128,17.128 c0,1.186,0.132,2.372,0.395,3.426C6.719,34.783,0,42.424,0,51.515C0,61.66,8.169,69.829,18.314,69.829h63.373 C91.831,69.829,100,61.66,100,51.515C99.868,42.556,93.281,35.046,84.717,33.597z"></path>
</g><g transform="translate(-100 757.9835535864361) rotate(0)">
  <animateTransform begin="-139.04116462762744s" repeatCount="indefinite" dur="500s" values="-100 757.9835535864361;2221 757.9835535864361" keyTimes="0;1" type="translate" attributeName="transform"></animateTransform>
  <path transform="scale(0.55)" fill="var(--primary)" d="M84.717,33.597c0.791-2.503,1.186-5.138,1.186-7.773C85.903,11.594,74.308,0,60.079,0 c-9.881,0-18.445,5.534-22.793,13.702c-1.581-0.527-3.426-0.791-5.138-0.791c-9.486,0-17.128,7.642-17.128,17.128 c0,1.186,0.132,2.372,0.395,3.426C6.719,34.783,0,42.424,0,51.515C0,61.66,8.169,69.829,18.314,69.829h63.373 C91.831,69.829,100,61.66,100,51.515C99.868,42.556,93.281,35.046,84.717,33.597z"></path>
</g><g transform="translate(-100 410.9927197902943) rotate(0)">
  <animateTransform begin="-170.60209772029606s" repeatCount="indefinite" dur="250s" values="-100 410.9927197902943;2221 410.9927197902943" keyTimes="0;1" type="translate" attributeName="transform"></animateTransform>
  <path transform="scale(0.7)" fill="var(--secondary)" d="M84.717,33.597c0.791-2.503,1.186-5.138,1.186-7.773C85.903,11.594,74.308,0,60.079,0 c-9.881,0-18.445,5.534-22.793,13.702c-1.581-0.527-3.426-0.791-5.138-0.791c-9.486,0-17.128,7.642-17.128,17.128 c0,1.186,0.132,2.372,0.395,3.426C6.719,34.783,0,42.424,0,51.515C0,61.66,8.169,69.829,18.314,69.829h63.373 C91.831,69.829,100,61.66,100,51.515C99.868,42.556,93.281,35.046,84.717,33.597z"></path>
</g><g transform="translate(-100 808.0646520004823) rotate(0)">
  <animateTransform begin="-130.59553440109542s" repeatCount="indefinite" dur="250s" values="-100 808.0646520004823;2221 808.0646520004823" keyTimes="0;1" type="translate" attributeName="transform"></animateTransform>
  <path transform="scale(0.7)" fill="var(--secondary)" d="M84.717,33.597c0.791-2.503,1.186-5.138,1.186-7.773C85.903,11.594,74.308,0,60.079,0 c-9.881,0-18.445,5.534-22.793,13.702c-1.581-0.527-3.426-0.791-5.138-0.791c-9.486,0-17.128,7.642-17.128,17.128 c0,1.186,0.132,2.372,0.395,3.426C6.719,34.783,0,42.424,0,51.515C0,61.66,8.169,69.829,18.314,69.829h63.373 C91.831,69.829,100,61.66,100,51.515C99.868,42.556,93.281,35.046,84.717,33.597z"></path>
</g><g transform="translate(-100 576.8171192790938) rotate(0)">
  <animateTransform begin="-331.8166623164733s" repeatCount="indefinite" dur="250s" values="-100 576.8171192790938;2221 576.8171192790938" keyTimes="0;1" type="translate" attributeName="transform"></animateTransform>
  <path transform="scale(0.7)" fill="var(--secondary)" d="M84.717,33.597c0.791-2.503,1.186-5.138,1.186-7.773C85.903,11.594,74.308,0,60.079,0 c-9.881,0-18.445,5.534-22.793,13.702c-1.581-0.527-3.426-0.791-5.138-0.791c-9.486,0-17.128,7.642-17.128,17.128 c0,1.186,0.132,2.372,0.395,3.426C6.719,34.783,0,42.424,0,51.515C0,61.66,8.169,69.829,18.314,69.829h63.373 C91.831,69.829,100,61.66,100,51.515C99.868,42.556,93.281,35.046,84.717,33.597z"></path>
</g><g transform="translate(-100 209.72989630612258) rotate(0)">
  <animateTransform begin="-154.3768452060773s" repeatCount="indefinite" dur="250s" values="-100 209.72989630612258;2221 209.72989630612258" keyTimes="0;1" type="translate" attributeName="transform"></animateTransform>
  <path transform="scale(0.7)" fill="var(--secondary)" d="M84.717,33.597c0.791-2.503,1.186-5.138,1.186-7.773C85.903,11.594,74.308,0,60.079,0 c-9.881,0-18.445,5.534-22.793,13.702c-1.581-0.527-3.426-0.791-5.138-0.791c-9.486,0-17.128,7.642-17.128,17.128 c0,1.186,0.132,2.372,0.395,3.426C6.719,34.783,0,42.424,0,51.515C0,61.66,8.169,69.829,18.314,69.829h63.373 C91.831,69.829,100,61.66,100,51.515C99.868,42.556,93.281,35.046,84.717,33.597z"></path>
</g><g transform="translate(-100 910.1856183597646) rotate(0)">
  <animateTransform begin="-382.35474626127814s" repeatCount="indefinite" dur="250s" values="-100 910.1856183597646;2221 910.1856183597646" keyTimes="0;1" type="translate" attributeName="transform"></animateTransform>
  <path transform="scale(0.7)" fill="var(--secondary)" d="M84.717,33.597c0.791-2.503,1.186-5.138,1.186-7.773C85.903,11.594,74.308,0,60.079,0 c-9.881,0-18.445,5.534-22.793,13.702c-1.581-0.527-3.426-0.791-5.138-0.791c-9.486,0-17.128,7.642-17.128,17.128 c0,1.186,0.132,2.372,0.395,3.426C6.719,34.783,0,42.424,0,51.515C0,61.66,8.169,69.829,18.314,69.829h63.373 C91.831,69.829,100,61.66,100,51.515C99.868,42.556,93.281,35.046,84.717,33.597z"></path>
</g><g transform="translate(-100 848.3002402490456) rotate(0)">
  <animateTransform begin="-229.47038376750623s" repeatCount="indefinite" dur="250s" values="-100 848.3002402490456;2221 848.3002402490456" keyTimes="0;1" type="translate" attributeName="transform"></animateTransform>
  <path transform="scale(0.7)" fill="var(--secondary)" d="M84.717,33.597c0.791-2.503,1.186-5.138,1.186-7.773C85.903,11.594,74.308,0,60.079,0 c-9.881,0-18.445,5.534-22.793,13.702c-1.581-0.527-3.426-0.791-5.138-0.791c-9.486,0-17.128,7.642-17.128,17.128 c0,1.186,0.132,2.372,0.395,3.426C6.719,34.783,0,42.424,0,51.515C0,61.66,8.169,69.829,18.314,69.829h63.373 C91.831,69.829,100,61.66,100,51.515C99.868,42.556,93.281,35.046,84.717,33.597z"></path>
</g><g transform="translate(-100 747.7341449564703) rotate(0)">
  <animateTransform begin="-321.38374938947345s" repeatCount="indefinite" dur="250s" values="-100 747.7341449564703;2221 747.7341449564703" keyTimes="0;1" type="translate" attributeName="transform"></animateTransform>
  <path transform="scale(0.7)" fill="var(--secondary)" d="M84.717,33.597c0.791-2.503,1.186-5.138,1.186-7.773C85.903,11.594,74.308,0,60.079,0 c-9.881,0-18.445,5.534-22.793,13.702c-1.581-0.527-3.426-0.791-5.138-0.791c-9.486,0-17.128,7.642-17.128,17.128 c0,1.186,0.132,2.372,0.395,3.426C6.719,34.783,0,42.424,0,51.515C0,61.66,8.169,69.829,18.314,69.829h63.373 C91.831,69.829,100,61.66,100,51.515C99.868,42.556,93.281,35.046,84.717,33.597z"></path>
</g><g transform="translate(-100 623.0586787457727) rotate(0)">
  <animateTransform begin="-253.15771256306863s" repeatCount="indefinite" dur="250s" values="-100 623.0586787457727;2221 623.0586787457727" keyTimes="0;1" type="translate" attributeName="transform"></animateTransform>
  <path transform="scale(0.7)" fill="var(--secondary)" d="M84.717,33.597c0.791-2.503,1.186-5.138,1.186-7.773C85.903,11.594,74.308,0,60.079,0 c-9.881,0-18.445,5.534-22.793,13.702c-1.581-0.527-3.426-0.791-5.138-0.791c-9.486,0-17.128,7.642-17.128,17.128 c0,1.186,0.132,2.372,0.395,3.426C6.719,34.783,0,42.424,0,51.515C0,61.66,8.169,69.829,18.314,69.829h63.373 C91.831,69.829,100,61.66,100,51.515C99.868,42.556,93.281,35.046,84.717,33.597z"></path>
</g><g transform="translate(-100 137.46757841166462) rotate(0)">
  <animateTransform begin="-128.47053807601958s" repeatCount="indefinite" dur="250s" values="-100 137.46757841166462;2221 137.46757841166462" keyTimes="0;1" type="translate" attributeName="transform"></animateTransform>
  <path transform="scale(0.7)" fill="var(--secondary)" d="M84.717,33.597c0.791-2.503,1.186-5.138,1.186-7.773C85.903,11.594,74.308,0,60.079,0 c-9.881,0-18.445,5.534-22.793,13.702c-1.581-0.527-3.426-0.791-5.138-0.791c-9.486,0-17.128,7.642-17.128,17.128 c0,1.186,0.132,2.372,0.395,3.426C6.719,34.783,0,42.424,0,51.515C0,61.66,8.169,69.829,18.314,69.829h63.373 C91.831,69.829,100,61.66,100,51.515C99.868,42.556,93.281,35.046,84.717,33.597z"></path>
</g><g transform="translate(-100 16.585863757585198) rotate(0)">
  <animateTransform begin="-7.390613934949539s" repeatCount="indefinite" dur="250s" values="-100 16.585863757585198;2221 16.585863757585198" keyTimes="0;1" type="translate" attributeName="transform"></animateTransform>
  <path transform="scale(0.7)" fill="var(--secondary)" d="M84.717,33.597c0.791-2.503,1.186-5.138,1.186-7.773C85.903,11.594,74.308,0,60.079,0 c-9.881,0-18.445,5.534-22.793,13.702c-1.581-0.527-3.426-0.791-5.138-0.791c-9.486,0-17.128,7.642-17.128,17.128 c0,1.186,0.132,2.372,0.395,3.426C6.719,34.783,0,42.424,0,51.515C0,61.66,8.169,69.829,18.314,69.829h63.373 C91.831,69.829,100,61.66,100,51.515C99.868,42.556,93.281,35.046,84.717,33.597z"></path>
</g><g transform="translate(-100 209.2755354210117) rotate(0)">
  <animateTransform begin="-323.49776232161065s" repeatCount="indefinite" dur="250s" values="-100 209.2755354210117;2221 209.2755354210117" keyTimes="0;1" type="translate" attributeName="transform"></animateTransform>
  <path transform="scale(0.7)" fill="var(--secondary)" d="M84.717,33.597c0.791-2.503,1.186-5.138,1.186-7.773C85.903,11.594,74.308,0,60.079,0 c-9.881,0-18.445,5.534-22.793,13.702c-1.581-0.527-3.426-0.791-5.138-0.791c-9.486,0-17.128,7.642-17.128,17.128 c0,1.186,0.132,2.372,0.395,3.426C6.719,34.783,0,42.424,0,51.515C0,61.66,8.169,69.829,18.314,69.829h63.373 C91.831,69.829,100,61.66,100,51.515C99.868,42.556,93.281,35.046,84.717,33.597z"></path>
</g><g transform="translate(-100 195.0355141958222) rotate(0)">
  <animateTransform begin="-212.21858822427345s" repeatCount="indefinite" dur="166.66666666666666s" values="-100 195.0355141958222;2221 195.0355141958222" keyTimes="0;1" type="translate" attributeName="transform"></animateTransform>
  <path transform="scale(0.85)" fill="var(--accent)" d="M84.717,33.597c0.791-2.503,1.186-5.138,1.186-7.773C85.903,11.594,74.308,0,60.079,0 c-9.881,0-18.445,5.534-22.793,13.702c-1.581-0.527-3.426-0.791-5.138-0.791c-9.486,0-17.128,7.642-17.128,17.128 c0,1.186,0.132,2.372,0.395,3.426C6.719,34.783,0,42.424,0,51.515C0,61.66,8.169,69.829,18.314,69.829h63.373 C91.831,69.829,100,61.66,100,51.515C99.868,42.556,93.281,35.046,84.717,33.597z"></path>
</g><g transform="translate(-100 70.38112203318403) rotate(0)">
  <animateTransform begin="-259.2780616935035s" repeatCount="indefinite" dur="166.66666666666666s" values="-100 70.38112203318403;2221 70.38112203318403" keyTimes="0;1" type="translate" attributeName="transform"></animateTransform>
  <path transform="scale(0.85)" fill="var(--accent)" d="M84.717,33.597c0.791-2.503,1.186-5.138,1.186-7.773C85.903,11.594,74.308,0,60.079,0 c-9.881,0-18.445,5.534-22.793,13.702c-1.581-0.527-3.426-0.791-5.138-0.791c-9.486,0-17.128,7.642-17.128,17.128 c0,1.186,0.132,2.372,0.395,3.426C6.719,34.783,0,42.424,0,51.515C0,61.66,8.169,69.829,18.314,69.829h63.373 C91.831,69.829,100,61.66,100,51.515C99.868,42.556,93.281,35.046,84.717,33.597z"></path>
</g><g transform="translate(-100 538.3831827425382) rotate(0)">
  <animateTransform begin="-129.75238599382814s" repeatCount="indefinite" dur="166.66666666666666s" values="-100 538.3831827425382;2221 538.3831827425382" keyTimes="0;1" type="translate" attributeName="transform"></animateTransform>
  <path transform="scale(0.85)" fill="var(--accent)" d="M84.717,33.597c0.791-2.503,1.186-5.138,1.186-7.773C85.903,11.594,74.308,0,60.079,0 c-9.881,0-18.445,5.534-22.793,13.702c-1.581-0.527-3.426-0.791-5.138-0.791c-9.486,0-17.128,7.642-17.128,17.128 c0,1.186,0.132,2.372,0.395,3.426C6.719,34.783,0,42.424,0,51.515C0,61.66,8.169,69.829,18.314,69.829h63.373 C91.831,69.829,100,61.66,100,51.515C99.868,42.556,93.281,35.046,84.717,33.597z"></path>
</g><g transform="translate(-100 449.5484669096235) rotate(0)">
  <animateTransform begin="-120.53129519463572s" repeatCount="indefinite" dur="166.66666666666666s" values="-100 449.5484669096235;2221 449.5484669096235" keyTimes="0;1" type="translate" attributeName="transform"></animateTransform>
  <path transform="scale(0.85)" fill="var(--accent)" d="M84.717,33.597c0.791-2.503,1.186-5.138,1.186-7.773C85.903,11.594,74.308,0,60.079,0 c-9.881,0-18.445,5.534-22.793,13.702c-1.581-0.527-3.426-0.791-5.138-0.791c-9.486,0-17.128,7.642-17.128,17.128 c0,1.186,0.132,2.372,0.395,3.426C6.719,34.783,0,42.424,0,51.515C0,61.66,8.169,69.829,18.314,69.829h63.373 C91.831,69.829,100,61.66,100,51.515C99.868,42.556,93.281,35.046,84.717,33.597z"></path>
</g><g transform="translate(-100 566.5070593602651) rotate(0)">
  <animateTransform begin="-228.82317159463068s" repeatCount="indefinite" dur="166.66666666666666s" values="-100 566.5070593602651;2221 566.5070593602651" keyTimes="0;1" type="translate" attributeName="transform"></animateTransform>
  <path transform="scale(0.85)" fill="var(--accent)" d="M84.717,33.597c0.791-2.503,1.186-5.138,1.186-7.773C85.903,11.594,74.308,0,60.079,0 c-9.881,0-18.445,5.534-22.793,13.702c-1.581-0.527-3.426-0.791-5.138-0.791c-9.486,0-17.128,7.642-17.128,17.128 c0,1.186,0.132,2.372,0.395,3.426C6.719,34.783,0,42.424,0,51.515C0,61.66,8.169,69.829,18.314,69.829h63.373 C91.831,69.829,100,61.66,100,51.515C99.868,42.556,93.281,35.046,84.717,33.597z"></path>
</g><g transform="translate(-100 80.88083035591532) rotate(0)">
  <animateTransform begin="-259.9244312933279s" repeatCount="indefinite" dur="166.66666666666666s" values="-100 80.88083035591532;2221 80.88083035591532" keyTimes="0;1" type="translate" attributeName="transform"></animateTransform>
  <path transform="scale(0.85)" fill="var(--accent)" d="M84.717,33.597c0.791-2.503,1.186-5.138,1.186-7.773C85.903,11.594,74.308,0,60.079,0 c-9.881,0-18.445,5.534-22.793,13.702c-1.581-0.527-3.426-0.791-5.138-0.791c-9.486,0-17.128,7.642-17.128,17.128 c0,1.186,0.132,2.372,0.395,3.426C6.719,34.783,0,42.424,0,51.515C0,61.66,8.169,69.829,18.314,69.829h63.373 C91.831,69.829,100,61.66,100,51.515C99.868,42.556,93.281,35.046,84.717,33.597z"></path>
</g><g transform="translate(-100 259.08837565510225) rotate(0)">
  <animateTransform begin="-203.51182197969322s" repeatCount="indefinite" dur="166.66666666666666s" values="-100 259.08837565510225;2221 259.08837565510225" keyTimes="0;1" type="translate" attributeName="transform"></animateTransform>
  <path transform="scale(0.85)" fill="var(--accent)" d="M84.717,33.597c0.791-2.503,1.186-5.138,1.186-7.773C85.903,11.594,74.308,0,60.079,0 c-9.881,0-18.445,5.534-22.793,13.702c-1.581-0.527-3.426-0.791-5.138-0.791c-9.486,0-17.128,7.642-17.128,17.128 c0,1.186,0.132,2.372,0.395,3.426C6.719,34.783,0,42.424,0,51.515C0,61.66,8.169,69.829,18.314,69.829h63.373 C91.831,69.829,100,61.66,100,51.515C99.868,42.556,93.281,35.046,84.717,33.597z"></path>
</g><g transform="translate(-100 110.23575640414731) rotate(0)">
  <animateTransform begin="-82.26474341149685s" repeatCount="indefinite" dur="166.66666666666666s" values="-100 110.23575640414731;2221 110.23575640414731" keyTimes="0;1" type="translate" attributeName="transform"></animateTransform>
  <path transform="scale(0.85)" fill="var(--accent)" d="M84.717,33.597c0.791-2.503,1.186-5.138,1.186-7.773C85.903,11.594,74.308,0,60.079,0 c-9.881,0-18.445,5.534-22.793,13.702c-1.581-0.527-3.426-0.791-5.138-0.791c-9.486,0-17.128,7.642-17.128,17.128 c0,1.186,0.132,2.372,0.395,3.426C6.719,34.783,0,42.424,0,51.515C0,61.66,8.169,69.829,18.314,69.829h63.373 C91.831,69.829,100,61.66,100,51.515C99.868,42.556,93.281,35.046,84.717,33.597z"></path>
</g><g transform="translate(-100 77.75106813542637) rotate(0)">
  <animateTransform begin="-258.27078028450603s" repeatCount="indefinite" dur="166.66666666666666s" values="-100 77.75106813542637;2221 77.75106813542637" keyTimes="0;1" type="translate" attributeName="transform"></animateTransform>
  <path transform="scale(0.85)" fill="var(--accent)" d="M84.717,33.597c0.791-2.503,1.186-5.138,1.186-7.773C85.903,11.594,74.308,0,60.079,0 c-9.881,0-18.445,5.534-22.793,13.702c-1.581-0.527-3.426-0.791-5.138-0.791c-9.486,0-17.128,7.642-17.128,17.128 c0,1.186,0.132,2.372,0.395,3.426C6.719,34.783,0,42.424,0,51.515C0,61.66,8.169,69.829,18.314,69.829h63.373 C91.831,69.829,100,61.66,100,51.515C99.868,42.556,93.281,35.046,84.717,33.597z"></path>
</g><g transform="translate(-100 246.6960011583738) rotate(0)">
  <animateTransform begin="-166.5475098348626s" repeatCount="indefinite" dur="166.66666666666666s" values="-100 246.6960011583738;2221 246.6960011583738" keyTimes="0;1" type="translate" attributeName="transform"></animateTransform>
  <path transform="scale(0.85)" fill="var(--accent)" d="M84.717,33.597c0.791-2.503,1.186-5.138,1.186-7.773C85.903,11.594,74.308,0,60.079,0 c-9.881,0-18.445,5.534-22.793,13.702c-1.581-0.527-3.426-0.791-5.138-0.791c-9.486,0-17.128,7.642-17.128,17.128 c0,1.186,0.132,2.372,0.395,3.426C6.719,34.783,0,42.424,0,51.515C0,61.66,8.169,69.829,18.314,69.829h63.373 C91.831,69.829,100,61.66,100,51.515C99.868,42.556,93.281,35.046,84.717,33.597z"></path>
</g><g transform="translate(-100 775.4215211376876) rotate(0)">
  <animateTransform begin="-484.7599257151823s" repeatCount="indefinite" dur="166.66666666666666s" values="-100 775.4215211376876;2221 775.4215211376876" keyTimes="0;1" type="translate" attributeName="transform"></animateTransform>
  <path transform="scale(0.85)" fill="var(--accent)" d="M84.717,33.597c0.791-2.503,1.186-5.138,1.186-7.773C85.903,11.594,74.308,0,60.079,0 c-9.881,0-18.445,5.534-22.793,13.702c-1.581-0.527-3.426-0.791-5.138-0.791c-9.486,0-17.128,7.642-17.128,17.128 c0,1.186,0.132,2.372,0.395,3.426C6.719,34.783,0,42.424,0,51.515C0,61.66,8.169,69.829,18.314,69.829h63.373 C91.831,69.829,100,61.66,100,51.515C99.868,42.556,93.281,35.046,84.717,33.597z"></path>
</g><g transform="translate(-100 187.80067714798676) rotate(0)">
  <animateTransform begin="-473.9586578244302s" repeatCount="indefinite" dur="125s" values="-100 187.80067714798676;2221 187.80067714798676" keyTimes="0;1" type="translate" attributeName="transform"></animateTransform>
  <path transform="scale(1)" fill="var(--primary)" d="M84.717,33.597c0.791-2.503,1.186-5.138,1.186-7.773C85.903,11.594,74.308,0,60.079,0 c-9.881,0-18.445,5.534-22.793,13.702c-1.581-0.527-3.426-0.791-5.138-0.791c-9.486,0-17.128,7.642-17.128,17.128 c0,1.186,0.132,2.372,0.395,3.426C6.719,34.783,0,42.424,0,51.515C0,61.66,8.169,69.829,18.314,69.829h63.373 C91.831,69.829,100,61.66,100,51.515C99.868,42.556,93.281,35.046,84.717,33.597z"></path>
</g><g transform="translate(-100 439.17374275377375) rotate(0)">
  <animateTransform begin="-2.0834552827364368s" repeatCount="indefinite" dur="125s" values="-100 439.17374275377375;2221 439.17374275377375" keyTimes="0;1" type="translate" attributeName="transform"></animateTransform>
  <path transform="scale(1)" fill="var(--primary)" d="M84.717,33.597c0.791-2.503,1.186-5.138,1.186-7.773C85.903,11.594,74.308,0,60.079,0 c-9.881,0-18.445,5.534-22.793,13.702c-1.581-0.527-3.426-0.791-5.138-0.791c-9.486,0-17.128,7.642-17.128,17.128 c0,1.186,0.132,2.372,0.395,3.426C6.719,34.783,0,42.424,0,51.515C0,61.66,8.169,69.829,18.314,69.829h63.373 C91.831,69.829,100,61.66,100,51.515C99.868,42.556,93.281,35.046,84.717,33.597z"></path>
</g><g transform="translate(-100 404.59962067421424) rotate(0)">
  <animateTransform begin="-239.25231909972248s" repeatCount="indefinite" dur="125s" values="-100 404.59962067421424;2221 404.59962067421424" keyTimes="0;1" type="translate" attributeName="transform"></animateTransform>
  <path transform="scale(1)" fill="var(--primary)" d="M84.717,33.597c0.791-2.503,1.186-5.138,1.186-7.773C85.903,11.594,74.308,0,60.079,0 c-9.881,0-18.445,5.534-22.793,13.702c-1.581-0.527-3.426-0.791-5.138-0.791c-9.486,0-17.128,7.642-17.128,17.128 c0,1.186,0.132,2.372,0.395,3.426C6.719,34.783,0,42.424,0,51.515C0,61.66,8.169,69.829,18.314,69.829h63.373 C91.831,69.829,100,61.66,100,51.515C99.868,42.556,93.281,35.046,84.717,33.597z"></path>
</g><g transform="translate(-100 410.5334336976653) rotate(0)">
  <animateTransform begin="-415.80248912833713s" repeatCount="indefinite" dur="125s" values="-100 410.5334336976653;2221 410.5334336976653" keyTimes="0;1" type="translate" attributeName="transform"></animateTransform>
  <path transform="scale(1)" fill="var(--primary)" d="M84.717,33.597c0.791-2.503,1.186-5.138,1.186-7.773C85.903,11.594,74.308,0,60.079,0 c-9.881,0-18.445,5.534-22.793,13.702c-1.581-0.527-3.426-0.791-5.138-0.791c-9.486,0-17.128,7.642-17.128,17.128 c0,1.186,0.132,2.372,0.395,3.426C6.719,34.783,0,42.424,0,51.515C0,61.66,8.169,69.829,18.314,69.829h63.373 C91.831,69.829,100,61.66,100,51.515C99.868,42.556,93.281,35.046,84.717,33.597z"></path>
</g><g transform="translate(-100 43.039355410092696) rotate(0)">
  <animateTransform begin="-91.53939961336006s" repeatCount="indefinite" dur="125s" values="-100 43.039355410092696;2221 43.039355410092696" keyTimes="0;1" type="translate" attributeName="transform"></animateTransform>
  <path transform="scale(1)" fill="var(--primary)" d="M84.717,33.597c0.791-2.503,1.186-5.138,1.186-7.773C85.903,11.594,74.308,0,60.079,0 c-9.881,0-18.445,5.534-22.793,13.702c-1.581-0.527-3.426-0.791-5.138-0.791c-9.486,0-17.128,7.642-17.128,17.128 c0,1.186,0.132,2.372,0.395,3.426C6.719,34.783,0,42.424,0,51.515C0,61.66,8.169,69.829,18.314,69.829h63.373 C91.831,69.829,100,61.66,100,51.515C99.868,42.556,93.281,35.046,84.717,33.597z"></path>
</g><g transform="translate(-100 728.1573314135353) rotate(0)">
  <animateTransform begin="-171.3690649826795s" repeatCount="indefinite" dur="125s" values="-100 728.1573314135353;2221 728.1573314135353" keyTimes="0;1" type="translate" attributeName="transform"></animateTransform>
  <path transform="scale(1)" fill="var(--primary)" d="M84.717,33.597c0.791-2.503,1.186-5.138,1.186-7.773C85.903,11.594,74.308,0,60.079,0 c-9.881,0-18.445,5.534-22.793,13.702c-1.581-0.527-3.426-0.791-5.138-0.791c-9.486,0-17.128,7.642-17.128,17.128 c0,1.186,0.132,2.372,0.395,3.426C6.719,34.783,0,42.424,0,51.515C0,61.66,8.169,69.829,18.314,69.829h63.373 C91.831,69.829,100,61.66,100,51.515C99.868,42.556,93.281,35.046,84.717,33.597z"></path>
</g><g transform="translate(-100 871.5468183426152) rotate(0)">
  <animateTransform begin="-127.27783547170579s" repeatCount="indefinite" dur="125s" values="-100 871.5468183426152;2221 871.5468183426152" keyTimes="0;1" type="translate" attributeName="transform"></animateTransform>
  <path transform="scale(1)" fill="var(--primary)" d="M84.717,33.597c0.791-2.503,1.186-5.138,1.186-7.773C85.903,11.594,74.308,0,60.079,0 c-9.881,0-18.445,5.534-22.793,13.702c-1.581-0.527-3.426-0.791-5.138-0.791c-9.486,0-17.128,7.642-17.128,17.128 c0,1.186,0.132,2.372,0.395,3.426C6.719,34.783,0,42.424,0,51.515C0,61.66,8.169,69.829,18.314,69.829h63.373 C91.831,69.829,100,61.66,100,51.515C99.868,42.556,93.281,35.046,84.717,33.597z"></path>
</g><g transform="translate(-100 183.08629446214746) rotate(0)">
  <animateTransform begin="-301.0183891796487s" repeatCount="indefinite" dur="125s" values="-100 183.08629446214746;2221 183.08629446214746" keyTimes="0;1" type="translate" attributeName="transform"></animateTransform>
  <path transform="scale(1)" fill="var(--primary)" d="M84.717,33.597c0.791-2.503,1.186-5.138,1.186-7.773C85.903,11.594,74.308,0,60.079,0 c-9.881,0-18.445,5.534-22.793,13.702c-1.581-0.527-3.426-0.791-5.138-0.791c-9.486,0-17.128,7.642-17.128,17.128 c0,1.186,0.132,2.372,0.395,3.426C6.719,34.783,0,42.424,0,51.515C0,61.66,8.169,69.829,18.314,69.829h63.373 C91.831,69.829,100,61.66,100,51.515C99.868,42.556,93.281,35.046,84.717,33.597z"></path>
</g><g transform="translate(-100 753.2568661722139) rotate(0)">
  <animateTransform begin="-471.17644061715447s" repeatCount="indefinite" dur="125s" values="-100 753.2568661722139;2221 753.2568661722139" keyTimes="0;1" type="translate" attributeName="transform"></animateTransform>
  <path transform="scale(1)" fill="var(--primary)" d="M84.717,33.597c0.791-2.503,1.186-5.138,1.186-7.773C85.903,11.594,74.308,0,60.079,0 c-9.881,0-18.445,5.534-22.793,13.702c-1.581-0.527-3.426-0.791-5.138-0.791c-9.486,0-17.128,7.642-17.128,17.128 c0,1.186,0.132,2.372,0.395,3.426C6.719,34.783,0,42.424,0,51.515C0,61.66,8.169,69.829,18.314,69.829h63.373 C91.831,69.829,100,61.66,100,51.515C99.868,42.556,93.281,35.046,84.717,33.597z"></path>
</g><g transform="translate(-100 713.3766779418368) rotate(0)">
  <animateTransform begin="-462.1640038191982s" repeatCount="indefinite" dur="125s" values="-100 713.3766779418368;2221 713.3766779418368" keyTimes="0;1" type="translate" attributeName="transform"></animateTransform>
  <path transform="scale(1)" fill="var(--primary)" d="M84.717,33.597c0.791-2.503,1.186-5.138,1.186-7.773C85.903,11.594,74.308,0,60.079,0 c-9.881,0-18.445,5.534-22.793,13.702c-1.581-0.527-3.426-0.791-5.138-0.791c-9.486,0-17.128,7.642-17.128,17.128 c0,1.186,0.132,2.372,0.395,3.426C6.719,34.783,0,42.424,0,51.515C0,61.66,8.169,69.829,18.314,69.829h63.373 C91.831,69.829,100,61.66,100,51.515C99.868,42.556,93.281,35.046,84.717,33.597z"></path>
</g><g transform="translate(-100 700.0386839559399) rotate(0)">
  <animateTransform begin="-483.7882674369177s" repeatCount="indefinite" dur="125s" values="-100 700.0386839559399;2221 700.0386839559399" keyTimes="0;1" type="translate" attributeName="transform"></animateTransform>
  <path transform="scale(1)" fill="var(--primary)" d="M84.717,33.597c0.791-2.503,1.186-5.138,1.186-7.773C85.903,11.594,74.308,0,60.079,0 c-9.881,0-18.445,5.534-22.793,13.702c-1.581-0.527-3.426-0.791-5.138-0.791c-9.486,0-17.128,7.642-17.128,17.128 c0,1.186,0.132,2.372,0.395,3.426C6.719,34.783,0,42.424,0,51.515C0,61.66,8.169,69.829,18.314,69.829h63.373 C91.831,69.829,100,61.66,100,51.515C99.868,42.556,93.281,35.046,84.717,33.597z"></path>
</g><g transform="translate(-100 244.28176048809763) rotate(0)">
  <animateTransform begin="-254.67331749452666s" repeatCount="indefinite" dur="125s" values="-100 244.28176048809763;2221 244.28176048809763" keyTimes="0;1" type="translate" attributeName="transform"></animateTransform>
  <path transform="scale(1)" fill="var(--primary)" d="M84.717,33.597c0.791-2.503,1.186-5.138,1.186-7.773C85.903,11.594,74.308,0,60.079,0 c-9.881,0-18.445,5.534-22.793,13.702c-1.581-0.527-3.426-0.791-5.138-0.791c-9.486,0-17.128,7.642-17.128,17.128 c0,1.186,0.132,2.372,0.395,3.426C6.719,34.783,0,42.424,0,51.515C0,61.66,8.169,69.829,18.314,69.829h63.373 C91.831,69.829,100,61.66,100,51.515C99.868,42.556,93.281,35.046,84.717,33.597z"></path>
</g><g></g></g><!-- [ldio] generated by https://loading.io --></svg>