<svg xmlns="http://www.w3.org/2000/svg" viewBox="0 0 1742 928" preserveAspectRatio="xMidYMid" width="100%" height="100%" style="shape-rendering: auto; display: block; background: rgba(123, 241, 255, 0);" xmlns:xlink="http://www.w3.org/1999/xlink"><g><defs>
  <radialGradient id="lgbk-oersv4ab58c">
  <stop stop-opacity="1" stop-color="var(--secondary)" offset="0.23"></stop>
  <stop stop-opacity="0" stop-color="var(--secondary)" offset="1"></stop>
  </radialGradient>
</defs><g transform="translate(871 464)"><g><path fill="var(--primary)" d="M0 0L1306.5 0 L1290.4148169875475 204.38162857506163 Z"></path><path fill="var(--primary)" d="M0 0L1242.555338539618 403.73070315086875 L1164.1000238521026 593.1385879097178 Z"></path><path fill="var(--primary)" d="M0 0L1056.9807031508687 767.9414321201161 L923.8350096202244 923.8350096202242 Z"></path><path fill="var(--primary)" d="M0 0L767.9414321201161 1056.9807031508687 L593.1385879097179 1164.1000238521026 Z"></path><path fill="var(--primary)" d="M0 0L403.73070315086886 1242.555338539618 L204.3816285750617 1290.4148169875475 Z"></path><path fill="var(--primary)" d="M0 0L8.000005215430084e-14 1306.5 L-204.38162857506126 1290.4148169875475 Z"></path><path fill="var(--primary)" d="M0 0L-403.7307031508687 1242.5553385396183 L-593.1385879097178 1164.1000238521026 Z"></path><path fill="var(--primary)" d="M0 0L-767.941432120116 1056.9807031508687 L-923.8350096202242 923.8350096202244 Z"></path><path fill="var(--primary)" d="M0 0L-1056.9807031508687 767.9414321201162 L-1164.1000238521026 593.138587909718 Z"></path><path fill="var(--primary)" d="M0 0L-1242.555338539618 403.7307031508689 L-1290.4148169875473 204.38162857506177 Z"></path><path fill="var(--primary)" d="M0 0L-1306.5 1.6000010430860169e-13 L-1290.4148169875475 -204.38162857506146 Z"></path><path fill="var(--primary)" d="M0 0L-1242.5553385396183 -403.7307031508681 L-1164.1000238521026 -593.1385879097178 Z"></path><path fill="var(--primary)" d="M0 0L-1056.980703150869 -767.941432120116 L-923.8350096202246 -923.8350096202242 Z"></path><path fill="var(--primary)" d="M0 0L-767.9414321201162 -1056.9807031508687 L-593.138587909718 -1164.1000238521026 Z"></path><path fill="var(--primary)" d="M0 0L-403.730703150869 -1242.555338539618 L-204.38162857506185 -1290.4148169875473 Z"></path><path fill="var(--primary)" d="M0 0L-2.4000015646290255e-13 -1306.5 L204.38162857506137 -1290.4148169875475 Z"></path><path fill="var(--primary)" d="M0 0L403.7307031508686 -1242.5553385396183 L593.1385879097177 -1164.1000238521026 Z"></path><path fill="var(--primary)" d="M0 0L767.9414321201159 -1056.980703150869 L923.8350096202241 -923.8350096202246 Z"></path><path fill="var(--primary)" d="M0 0L1056.9807031508687 -767.9414321201165 L1164.1000238521026 -593.1385879097181 Z"></path><path fill="var(--primary)" d="M0 0L1242.555338539618 -403.73070315086915 L1290.4148169875473 -204.38162857506197 Z"></path><circle fill="url(#lgbk-oersv4ab58c)" r="1515.54" cy="0" cx="0"></circle><animateTransform repeatCount="indefinite" dur="14.285714285714286s" keyTimes="0;1" values="0 0 0;36 0 0" type="rotate" attributeName="transform"></animateTransform>
</g>
</g><g></g></g><!-- [ldio] generated by https://loading.io --></svg>